<svg xmlns="http://www.w3.org/2000/svg" xmlns:xlink="http://www.w3.org/1999/xlink" contentStyleType="text/css" data-diagram-type="CLASS" height="375px" preserveAspectRatio="none" style="width:1328px;height:375px;background:#FFFFFF;" version="1.1" viewBox="0 0 1328 375" width="1328px" zoomAndPan="magnify"><defs/><g><!--class IImplementation--><g id="elem_IImplementation"><rect codeLine="1" fill="#F1F1F1" height="64.2969" id="IImplementation" rx="2.5" ry="2.5" style="stroke:#181818;stroke-width:0.5;" width="267.1172" x="752.79" y="147.59"/><ellipse cx="824.4511" cy="163.59" fill="#B4A7E5" rx="11" ry="11" style="stroke:#181818;stroke-width:1;"/><path d="M820.373,159.3556 L820.373,157.1994 L827.7636,157.1994 L827.7636,159.3556 L825.2949,159.3556 L825.2949,167.4337 L827.7636,167.4337 L827.7636,169.59 L820.373,169.59 L820.373,167.4337 L822.8418,167.4337 L822.8418,159.3556 L820.373,159.3556 Z " fill="#000000"/><text fill="#000000" font-family="sans-serif" font-size="14" font-style="italic" lengthAdjust="spacing" textLength="115.2949" x="844.9511" y="168.4367">IImplementation</text><line style="stroke:#181818;stroke-width:0.5;" x1="753.79" x2="1018.9072" y1="179.59" y2="179.59"/><line style="stroke:#181818;stroke-width:0.5;" x1="753.79" x2="1018.9072" y1="187.59" y2="187.59"/><ellipse cx="763.79" cy="201.2384" fill="#84BE84" rx="3" ry="3" style="stroke:#038048;stroke-width:1;"/><text fill="#000000" font-family="sans-serif" font-size="14" lengthAdjust="spacing" textLength="241.1172" x="772.79" y="204.5851">OperationImplementation(): string</text></g><!--class Abstraction--><g id="elem_Abstraction"><rect codeLine="5" fill="#F1F1F1" height="96.8906" id="Abstraction" rx="2.5" ry="2.5" style="stroke:#181818;stroke-width:0.5;" width="347.6924" x="353.5" y="131.3"/><ellipse cx="483.0479" cy="147.3" fill="#ADD1B2" rx="11" ry="11" style="stroke:#181818;stroke-width:1;"/><path d="M486.0166,152.9406 Q485.4385,153.2375 484.7979,153.3781 Q484.1572,153.5344 483.4541,153.5344 Q480.9541,153.5344 479.626,151.8937 Q478.3135,150.2375 478.3135,147.1125 Q478.3135,143.9875 479.626,142.3312 Q480.9541,140.675 483.4541,140.675 Q484.1572,140.675 484.7979,140.8312 Q485.4541,140.9875 486.0166,141.2844 L486.0166,144.0031 Q485.3916,143.425 484.7979,143.1594 Q484.2041,142.8781 483.5791,142.8781 Q482.2354,142.8781 481.5479,143.9562 Q480.8604,145.0187 480.8604,147.1125 Q480.8604,149.2062 481.5479,150.2844 Q482.2354,151.3469 483.5791,151.3469 Q484.2041,151.3469 484.7979,151.0812 Q485.3916,150.8 486.0166,150.2219 L486.0166,152.9406 Z " fill="#000000"/><text fill="#000000" font-family="sans-serif" font-size="14" lengthAdjust="spacing" textLength="80.0967" x="503.5479" y="152.1467">Abstraction</text><line style="stroke:#181818;stroke-width:0.5;" x1="354.5" x2="700.1924" y1="163.3" y2="163.3"/><rect fill="none" height="6" style="stroke:#C82930;stroke-width:1;" width="6" x="361.5" y="173.9484"/><text fill="#000000" font-family="sans-serif" font-size="14" lengthAdjust="spacing" textLength="242.3887" x="373.5" y="180.2951">_implementation: IImplementation</text><line style="stroke:#181818;stroke-width:0.5;" x1="354.5" x2="700.1924" y1="187.5969" y2="187.5969"/><ellipse cx="364.5" cy="201.2453" fill="#84BE84" rx="3" ry="3" style="stroke:#038048;stroke-width:1;"/><text fill="#000000" font-family="sans-serif" font-size="14" lengthAdjust="spacing" textLength="321.6924" x="373.5" y="204.592">Abstraction(IImplementation implementation)</text><ellipse cx="364.5" cy="217.5422" fill="#84BE84" rx="3" ry="3" style="stroke:#038048;stroke-width:1;"/><text fill="#000000" font-family="sans-serif" font-size="14" lengthAdjust="spacing" textLength="129.9512" x="373.5" y="220.8889">Operation(): string</text></g><!--class ExtendedAbstraction--><g id="elem_ExtendedAbstraction"><rect codeLine="11" fill="#F1F1F1" height="80.5938" id="ExtendedAbstraction" rx="2.5" ry="2.5" style="stroke:#181818;stroke-width:0.5;" width="414.1855" x="303.26" y="288.19"/><ellipse cx="432.8079" cy="304.19" fill="#ADD1B2" rx="11" ry="11" style="stroke:#181818;stroke-width:1;"/><path d="M435.7766,309.8306 Q435.1985,310.1275 434.5579,310.2681 Q433.9172,310.4244 433.2141,310.4244 Q430.7141,310.4244 429.386,308.7837 Q428.0735,307.1275 428.0735,304.0025 Q428.0735,300.8775 429.386,299.2212 Q430.7141,297.565 433.2141,297.565 Q433.9172,297.565 434.5579,297.7212 Q435.2141,297.8775 435.7766,298.1744 L435.7766,300.8931 Q435.1516,300.315 434.5579,300.0494 Q433.9641,299.7681 433.3391,299.7681 Q431.9954,299.7681 431.3079,300.8462 Q430.6204,301.9087 430.6204,304.0025 Q430.6204,306.0962 431.3079,307.1744 Q431.9954,308.2369 433.3391,308.2369 Q433.9641,308.2369 434.5579,307.9712 Q435.1516,307.69 435.7766,307.1119 L435.7766,309.8306 Z " fill="#000000"/><text fill="#000000" font-family="sans-serif" font-size="14" lengthAdjust="spacing" textLength="146.5898" x="453.3079" y="309.0367">ExtendedAbstraction</text><line style="stroke:#181818;stroke-width:0.5;" x1="304.26" x2="716.4455" y1="320.19" y2="320.19"/><line style="stroke:#181818;stroke-width:0.5;" x1="304.26" x2="716.4455" y1="328.19" y2="328.19"/><ellipse cx="314.26" cy="341.8384" fill="#84BE84" rx="3" ry="3" style="stroke:#038048;stroke-width:1;"/><text fill="#000000" font-family="sans-serif" font-size="14" lengthAdjust="spacing" textLength="388.1855" x="323.26" y="345.1851">ExtendedAbstraction(IImplementation implementation)</text><ellipse cx="314.26" cy="358.1353" fill="#84BE84" rx="3" ry="3" style="stroke:#038048;stroke-width:1;"/><text fill="#000000" font-family="sans-serif" font-size="14" lengthAdjust="spacing" textLength="129.9512" x="323.26" y="361.482">Operation(): string</text></g><!--class ConcreteImplementationA--><g id="elem_ConcreteImplementationA"><rect codeLine="19" fill="#F1F1F1" height="64.2969" id="ConcreteImplementationA" rx="2.5" ry="2.5" style="stroke:#181818;stroke-width:0.5;" width="267.1172" x="752.79" y="296.33"/><ellipse cx="790.736" cy="312.33" fill="#ADD1B2" rx="11" ry="11" style="stroke:#181818;stroke-width:1;"/><path d="M793.7048,317.9706 Q793.1267,318.2675 792.486,318.4081 Q791.8454,318.5644 791.1423,318.5644 Q788.6423,318.5644 787.3142,316.9238 Q786.0017,315.2675 786.0017,312.1425 Q786.0017,309.0175 787.3142,307.3613 Q788.6423,305.705 791.1423,305.705 Q791.8454,305.705 792.486,305.8613 Q793.1423,306.0175 793.7048,306.3144 L793.7048,309.0331 Q793.0798,308.455 792.486,308.1894 Q791.8923,307.9081 791.2673,307.9081 Q789.9235,307.9081 789.236,308.9863 Q788.5485,310.0488 788.5485,312.1425 Q788.5485,314.2363 789.236,315.3144 Q789.9235,316.3769 791.2673,316.3769 Q791.8923,316.3769 792.486,316.1113 Q793.0798,315.83 793.7048,315.2519 L793.7048,317.9706 Z " fill="#000000"/><text fill="#000000" font-family="sans-serif" font-size="14" lengthAdjust="spacing" textLength="184.126" x="809.8352" y="317.1767">ConcreteImplementationA</text><line style="stroke:#181818;stroke-width:0.5;" x1="753.79" x2="1018.9072" y1="328.33" y2="328.33"/><line style="stroke:#181818;stroke-width:0.5;" x1="753.79" x2="1018.9072" y1="336.33" y2="336.33"/><ellipse cx="763.79" cy="349.9784" fill="#84BE84" rx="3" ry="3" style="stroke:#038048;stroke-width:1;"/><text fill="#000000" font-family="sans-serif" font-size="14" lengthAdjust="spacing" textLength="241.1172" x="772.79" y="353.3251">OperationImplementation(): string</text></g><!--class ConcreteImplementationB--><g id="elem_ConcreteImplementationB"><rect codeLine="23" fill="#F1F1F1" height="64.2969" id="ConcreteImplementationB" rx="2.5" ry="2.5" style="stroke:#181818;stroke-width:0.5;" width="267.1172" x="1054.79" y="296.33"/><ellipse cx="1092.7237" cy="312.33" fill="#ADD1B2" rx="11" ry="11" style="stroke:#181818;stroke-width:1;"/><path d="M1095.6925,317.9706 Q1095.1144,318.2675 1094.4737,318.4081 Q1093.8331,318.5644 1093.13,318.5644 Q1090.63,318.5644 1089.3019,316.9238 Q1087.9894,315.2675 1087.9894,312.1425 Q1087.9894,309.0175 1089.3019,307.3613 Q1090.63,305.705 1093.13,305.705 Q1093.8331,305.705 1094.4737,305.8613 Q1095.13,306.0175 1095.6925,306.3144 L1095.6925,309.0331 Q1095.0675,308.455 1094.4737,308.1894 Q1093.88,307.9081 1093.255,307.9081 Q1091.9112,307.9081 1091.2237,308.9863 Q1090.5362,310.0488 1090.5362,312.1425 Q1090.5362,314.2363 1091.2237,315.3144 Q1091.9112,316.3769 1093.255,316.3769 Q1093.88,316.3769 1094.4737,316.1113 Q1095.0675,315.83 1095.6925,315.2519 L1095.6925,317.9706 Z " fill="#000000"/><text fill="#000000" font-family="sans-serif" font-size="14" lengthAdjust="spacing" textLength="184.1533" x="1111.8201" y="317.1767">ConcreteImplementationB</text><line style="stroke:#181818;stroke-width:0.5;" x1="1055.79" x2="1320.9072" y1="328.33" y2="328.33"/><line style="stroke:#181818;stroke-width:0.5;" x1="1055.79" x2="1320.9072" y1="336.33" y2="336.33"/><ellipse cx="1065.79" cy="349.9784" fill="#84BE84" rx="3" ry="3" style="stroke:#038048;stroke-width:1;"/><text fill="#000000" font-family="sans-serif" font-size="14" lengthAdjust="spacing" textLength="241.1172" x="1074.79" y="353.3251">OperationImplementation(): string</text></g><!--class Client--><g id="elem_Client"><rect codeLine="30" fill="#F1F1F1" height="64.2969" id="Client" rx="2.5" ry="2.5" style="stroke:#181818;stroke-width:0.5;" width="315.7344" x="369.48" y="7"/><ellipse cx="502.8321" cy="23" fill="#ADD1B2" rx="11" ry="11" style="stroke:#181818;stroke-width:1;"/><path d="M505.8008,28.6406 Q505.2227,28.9375 504.5821,29.0781 Q503.9414,29.2344 503.2383,29.2344 Q500.7383,29.2344 499.4102,27.5938 Q498.0977,25.9375 498.0977,22.8125 Q498.0977,19.6875 499.4102,18.0313 Q500.7383,16.375 503.2383,16.375 Q503.9414,16.375 504.5821,16.5313 Q505.2383,16.6875 505.8008,16.9844 L505.8008,19.7031 Q505.1758,19.125 504.5821,18.8594 Q503.9883,18.5781 503.3633,18.5781 Q502.0196,18.5781 501.3321,19.6563 Q500.6446,20.7188 500.6446,22.8125 Q500.6446,24.9063 501.3321,25.9844 Q502.0196,27.0469 503.3633,27.0469 Q503.9883,27.0469 504.5821,26.7813 Q505.1758,26.5 505.8008,25.9219 L505.8008,28.6406 Z " fill="#000000"/><text fill="#000000" font-family="sans-serif" font-size="14" lengthAdjust="spacing" textLength="40.5303" x="523.3321" y="27.8467">Client</text><line style="stroke:#181818;stroke-width:0.5;" x1="370.48" x2="684.2144" y1="39" y2="39"/><line style="stroke:#181818;stroke-width:0.5;" x1="370.48" x2="684.2144" y1="47" y2="47"/><ellipse cx="380.48" cy="60.6484" fill="#84BE84" rx="3" ry="3" style="stroke:#038048;stroke-width:1;"/><text fill="#000000" font-family="sans-serif" font-size="14" lengthAdjust="spacing" textLength="289.7344" x="389.48" y="63.9951">ClientCode(Abstraction abstraction): void</text></g><g id="elem_GMN13"><path d="M180.28,26.58 L180.28,51.7128 A0,0 0 0 0 180.28,51.7128 L334.4284,51.7128 A0,0 0 0 0 334.4284,51.7128 L334.4284,44.58 L369.08,39.15 L334.4284,36.58 L334.4284,36.58 L324.4284,26.58 L180.28,26.58 A0,0 0 0 0 180.28,26.58 " fill="#FEFFDD" style="stroke:#181818;stroke-width:0.5;"/><path d="M324.4284,26.58 L324.4284,36.58 L334.4284,36.58 L324.4284,26.58 " fill="#FEFFDD" style="stroke:#181818;stroke-width:0.5;"/><text fill="#000000" font-family="sans-serif" font-size="13" lengthAdjust="spacing" textLength="133.1484" x="186.28" y="43.6469">only use Abstraction</text></g><g id="elem_GMN16"><path d="M1054.57,167.17 L1054.57,175.74 L1020.09,179.74 L1054.57,183.74 L1054.57,192.3028 A0,0 0 0 0 1054.57,192.3028 L1216.1325,192.3028 A0,0 0 0 0 1216.1325,192.3028 L1216.1325,177.17 L1206.1325,167.17 L1054.57,167.17 A0,0 0 0 0 1054.57,167.17 " fill="#FEFFDD" style="stroke:#181818;stroke-width:0.5;"/><path d="M1206.1325,167.17 L1206.1325,177.17 L1216.1325,177.17 L1206.1325,167.17 " fill="#FEFFDD" style="stroke:#181818;stroke-width:0.5;"/><text fill="#000000" font-family="sans-serif" font-size="13" lengthAdjust="spacing" textLength="140.5625" x="1060.57" y="184.2369">also call Implementor</text></g><g id="elem_GMN19"><path d="M6,167.17 L6,192.3028 A0,0 0 0 0 6,192.3028 L318.7002,192.3028 A0,0 0 0 0 318.7002,192.3028 L318.7002,185.17 L353.34,179.74 L318.7002,177.17 L318.7002,177.17 L308.7002,167.17 L6,167.17 A0,0 0 0 0 6,167.17 " fill="#FEFFDD" style="stroke:#181818;stroke-width:0.5;"/><path d="M308.7002,167.17 L308.7002,177.17 L318.7002,177.17 L308.7002,167.17 " fill="#FEFFDD" style="stroke:#181818;stroke-width:0.5;"/><text fill="#000000" font-family="sans-serif" font-size="13" lengthAdjust="spacing" textLength="291.7002" x="12" y="184.2369">_implementation.OperationImplementation()</text></g><g id="elem_GMN22"><path d="M66.35,308.35 L66.35,348.6156 A0,0 0 0 0 66.35,348.6156 L268.3407,348.6156 A0,0 0 0 0 268.3407,348.6156 L268.3407,332.48 L302.81,328.48 L268.3407,324.48 L268.3407,318.35 L258.3407,308.35 L66.35,308.35 A0,0 0 0 0 66.35,308.35 " fill="#FEFFDD" style="stroke:#181818;stroke-width:0.5;"/><path d="M258.3407,308.35 L258.3407,318.35 L268.3407,318.35 L258.3407,308.35 " fill="#FEFFDD" style="stroke:#181818;stroke-width:0.5;"/><text fill="#000000" font-family="sans-serif" font-size="13" lengthAdjust="spacing" textLength="180.9907" x="72.35" y="325.4169">also call RefinedAbstraction</text><text fill="#000000" font-family="sans-serif" font-size="13" lengthAdjust="spacing" textLength="62.8291" x="72.35" y="340.5497">(optional)</text></g><!--reverse link Abstraction to ExtendedAbstraction--><g id="link_Abstraction_ExtendedAbstraction"><path codeLine="16" d="M519.7587,246.2604 C517.5287,265.5104 517.06,269.58 514.93,287.93 " fill="none" id="Abstraction-backto-ExtendedAbstraction" style="stroke:#181818;stroke-width:1;"/><polygon fill="none" points="521.83,228.38,513.7985,245.57,525.7188,246.9509,521.83,228.38" style="stroke:#181818;stroke-width:1;"/></g><!--reverse link Abstraction to IImplementation--><g id="link_Abstraction_IImplementation"><path codeLine="17" d="M713.59,179.74 C730.55,179.74 735.51,179.74 752.47,179.74 " fill="none" id="Abstraction-backto-IImplementation" style="stroke:#181818;stroke-width:1;"/><polygon fill="none" points="701.59,179.74,707.59,183.74,713.59,179.74,707.59,175.74,701.59,179.74" style="stroke:#181818;stroke-width:1;"/></g><!--reverse link IImplementation to ConcreteImplementationA--><g id="link_IImplementation_ConcreteImplementationA"><path codeLine="27" d="M886.35,230.22 C886.35,254.98 886.35,271.31 886.35,296.06 " fill="none" id="IImplementation-backto-ConcreteImplementationA" style="stroke:#181818;stroke-width:1;stroke-dasharray:7.0,7.0;"/><polygon fill="none" points="886.35,212.22,880.35,230.22,892.35,230.22,886.35,212.22" style="stroke:#181818;stroke-width:1;"/></g><!--reverse link IImplementation to ConcreteImplementationB--><g id="link_IImplementation_ConcreteImplementationB"><path codeLine="28" d="M967.3291,220.0885 C1018.1891,244.8085 1072.5,271.19 1123.41,295.93 " fill="none" id="IImplementation-backto-ConcreteImplementationB" style="stroke:#181818;stroke-width:1;stroke-dasharray:7.0,7.0;"/><polygon fill="none" points="951.14,212.22,964.7062,225.4849,969.9519,214.6922,951.14,212.22" style="stroke:#181818;stroke-width:1;"/></g><!--link Client to Abstraction--><g id="link_Client_Abstraction"><path codeLine="34" d="M527.35,71.6 C527.35,89.09 527.35,105.22 527.35,124.82 " fill="none" id="Client-to-Abstraction" style="stroke:#181818;stroke-width:1;stroke-dasharray:7.0,7.0;"/><polygon fill="#181818" points="527.35,130.82,531.35,121.82,527.35,125.82,523.35,121.82,527.35,130.82" style="stroke:#181818;stroke-width:1;"/></g><!--SRC=[fLFDRiCW3Bxp53wcgf87gAf9RRL3JvFs0XC3fqEYE0BsftNlFjAb2L1owCObnFRtWmtAUBGj5mZx_R7JU4JZkLTau8j1M4juwD2U8sc-Mgp0UQlCWNqp9ZHt3ZRF8S951A_XIIMmLQupg4JGAdUICYnoNoKdznyUZKHvxMXPolrFCXPPdsf9xwOkgII5L5jrUF7rLJ-64-p828iUq-pcBsCfKsrleyexj3ur_K6REQEt0hQZMwr2R3Jt-xiZYLNSFZxjWyqtKh8tEM2RvYw-K8mPyWWQMm_KNWGO6Vq9hmwJqZ0pwAi7p7b6FIYV4jUEG72jOKoGpT4NnLWWUm_DRFFdo4eNQtBpYAqoQRAYhlzoFL7-0000]--></g></svg>