<svg xmlns="http://www.w3.org/2000/svg" xmlns:xlink="http://www.w3.org/1999/xlink" contentStyleType="text/css" data-diagram-type="CLASS" height="366px" preserveAspectRatio="none" style="width:946px;height:366px;background:#FFFFFF;" version="1.1" viewBox="0 0 946 366" width="946px" zoomAndPan="magnify"><defs/><g><!--class Iterator--><g id="elem_Iterator"><rect codeLine="1" fill="#F1F1F1" height="113.1875" id="Iterator" rx="2.5" ry="2.5" style="stroke:#181818;stroke-width:0.5;" width="203.9053" x="132.81" y="7"/><ellipse cx="204.3242" cy="23" fill="#A9DCDF" rx="11" ry="11" style="stroke:#181818;stroke-width:1;"/><path d="M204.4335,18.3438 L203.2773,23.4219 L205.6054,23.4219 L204.4335,18.3438 Z M202.9492,16.1094 L205.9335,16.1094 L209.2929,28.5 L206.8398,28.5 L206.0742,25.4375 L202.7929,25.4375 L202.0429,28.5 L199.6054,28.5 L202.9492,16.1094 Z " fill="#000000"/><text fill="#000000" font-family="sans-serif" font-size="14" font-style="italic" lengthAdjust="spacing" textLength="52.377" x="224.8242" y="27.8467">Iterator</text><line style="stroke:#181818;stroke-width:0.5;" x1="133.81" x2="335.7153" y1="39" y2="39"/><line style="stroke:#181818;stroke-width:0.5;" x1="133.81" x2="335.7153" y1="47" y2="47"/><ellipse cx="143.81" cy="60.6484" fill="#84BE84" rx="3" ry="3" style="stroke:#038048;stroke-width:1;"/><text fill="#000000" font-family="sans-serif" font-size="14" lengthAdjust="spacing" textLength="121.9258" x="152.81" y="63.9951">abstract int Key()</text><ellipse cx="143.81" cy="76.9453" fill="#84BE84" rx="3" ry="3" style="stroke:#038048;stroke-width:1;"/><text fill="#000000" font-family="sans-serif" font-size="14" lengthAdjust="spacing" textLength="173.8721" x="152.81" y="80.292">abstract object Current()</text><ellipse cx="143.81" cy="93.2422" fill="#84BE84" rx="3" ry="3" style="stroke:#038048;stroke-width:1;"/><text fill="#000000" font-family="sans-serif" font-size="14" lengthAdjust="spacing" textLength="177.9053" x="152.81" y="96.5889">abstract bool MoveNext()</text><ellipse cx="143.81" cy="109.5391" fill="#84BE84" rx="3" ry="3" style="stroke:#038048;stroke-width:1;"/><text fill="#000000" font-family="sans-serif" font-size="14" lengthAdjust="spacing" textLength="146.959" x="152.81" y="112.8857">abstract void Reset()</text></g><!--class IteratorAggregate--><g id="elem_IteratorAggregate"><rect codeLine="8" fill="#F1F1F1" height="64.2969" id="IteratorAggregate" rx="2.5" ry="2.5" style="stroke:#181818;stroke-width:0.5;" width="298.6514" x="640.43" y="31.44"/><ellipse cx="722.6732" cy="47.44" fill="#A9DCDF" rx="11" ry="11" style="stroke:#181818;stroke-width:1;"/><path d="M722.7825,42.7838 L721.6263,47.8619 L723.9544,47.8619 L722.7825,42.7838 Z M721.2982,40.5494 L724.2825,40.5494 L727.6419,52.94 L725.1888,52.94 L724.4232,49.8775 L721.1419,49.8775 L720.3919,52.94 L717.9544,52.94 L721.2982,40.5494 Z " fill="#000000"/><text fill="#000000" font-family="sans-serif" font-size="14" font-style="italic" lengthAdjust="spacing" textLength="125.665" x="743.1732" y="52.2867">IteratorAggregate</text><line style="stroke:#181818;stroke-width:0.5;" x1="641.43" x2="938.0814" y1="63.44" y2="63.44"/><line style="stroke:#181818;stroke-width:0.5;" x1="641.43" x2="938.0814" y1="71.44" y2="71.44"/><ellipse cx="651.43" cy="85.0884" fill="#84BE84" rx="3" ry="3" style="stroke:#038048;stroke-width:1;"/><text fill="#000000" font-family="sans-serif" font-size="14" lengthAdjust="spacing" textLength="272.6514" x="660.43" y="88.4351">abstract IEnumerator GetEnumerator()</text></g><!--class AlphabeticalOrderIterator--><g id="elem_AlphabeticalOrderIterator"><rect codeLine="12" fill="#F1F1F1" height="178.375" id="AlphabeticalOrderIterator" rx="2.5" ry="2.5" style="stroke:#181818;stroke-width:0.5;" width="551.5195" x="7" y="181.18"/><ellipse cx="188.8804" cy="197.18" fill="#ADD1B2" rx="11" ry="11" style="stroke:#181818;stroke-width:1;"/><path d="M191.8491,202.8206 Q191.271,203.1175 190.6304,203.2581 Q189.9897,203.4144 189.2866,203.4144 Q186.7866,203.4144 185.4585,201.7738 Q184.146,200.1175 184.146,196.9925 Q184.146,193.8675 185.4585,192.2113 Q186.7866,190.555 189.2866,190.555 Q189.9897,190.555 190.6304,190.7113 Q191.2866,190.8675 191.8491,191.1644 L191.8491,193.8831 Q191.2241,193.305 190.6304,193.0394 Q190.0366,192.7581 189.4116,192.7581 Q188.0679,192.7581 187.3804,193.8363 Q186.6929,194.8988 186.6929,196.9925 Q186.6929,199.0863 187.3804,200.1644 Q188.0679,201.2269 189.4116,201.2269 Q190.0366,201.2269 190.6304,200.9613 Q191.2241,200.68 191.8491,200.1019 L191.8491,202.8206 Z " fill="#000000"/><text fill="#000000" font-family="sans-serif" font-size="14" lengthAdjust="spacing" textLength="179.2588" x="209.3804" y="202.0267">AlphabeticalOrderIterator</text><line style="stroke:#181818;stroke-width:0.5;" x1="8" x2="557.5195" y1="213.18" y2="213.18"/><rect fill="#FFFFFF" fill-opacity="0.00000" height="6" style="stroke:#C82930;stroke-width:1;" width="6" x="15" y="223.8284"/><text fill="#000000" font-family="sans-serif" font-size="14" lengthAdjust="spacing" textLength="192.2129" x="27" y="230.1751">WordsCollection _collection</text><rect fill="#FFFFFF" fill-opacity="0.00000" height="6" style="stroke:#C82930;stroke-width:1;" width="6" x="15" y="240.1253"/><text fill="#000000" font-family="sans-serif" font-size="14" lengthAdjust="spacing" textLength="85.1553" x="27" y="246.472">int _position</text><rect fill="#FFFFFF" fill-opacity="0.00000" height="6" style="stroke:#C82930;stroke-width:1;" width="6" x="15" y="256.4222"/><text fill="#000000" font-family="sans-serif" font-size="14" lengthAdjust="spacing" textLength="94.2881" x="27" y="262.7689">bool _reverse</text><line style="stroke:#181818;stroke-width:0.5;" x1="8" x2="557.5195" y1="270.0706" y2="270.0706"/><ellipse cx="18" cy="283.7191" fill="#84BE84" rx="3" ry="3" style="stroke:#038048;stroke-width:1;"/><text fill="#000000" font-family="sans-serif" font-size="14" lengthAdjust="spacing" textLength="525.5195" x="27" y="287.0657">AlphabeticalOrderIterator(WordsCollection collection, bool reverse = false)</text><ellipse cx="18" cy="300.0159" fill="#84BE84" rx="3" ry="3" style="stroke:#038048;stroke-width:1;"/><text fill="#000000" font-family="sans-serif" font-size="14" lengthAdjust="spacing" textLength="174.4668" x="27" y="303.3626">override object Current()</text><ellipse cx="18" cy="316.3128" fill="#84BE84" rx="3" ry="3" style="stroke:#038048;stroke-width:1;"/><text fill="#000000" font-family="sans-serif" font-size="14" lengthAdjust="spacing" textLength="122.5205" x="27" y="319.6595">override int Key()</text><ellipse cx="18" cy="332.6097" fill="#84BE84" rx="3" ry="3" style="stroke:#038048;stroke-width:1;"/><text fill="#000000" font-family="sans-serif" font-size="14" lengthAdjust="spacing" textLength="178.5" x="27" y="335.9564">override bool MoveNext()</text><ellipse cx="18" cy="348.9066" fill="#84BE84" rx="3" ry="3" style="stroke:#038048;stroke-width:1;"/><text fill="#000000" font-family="sans-serif" font-size="14" lengthAdjust="spacing" textLength="147.5537" x="27" y="352.2532">override void Reset()</text></g><!--class WordsCollection--><g id="elem_WordsCollection"><rect codeLine="23" fill="#F1F1F1" height="145.7813" id="WordsCollection" rx="2.5" ry="2.5" style="stroke:#181818;stroke-width:0.5;" width="299.2461" x="632.14" y="197.48"/><ellipse cx="720.7167" cy="213.48" fill="#ADD1B2" rx="11" ry="11" style="stroke:#181818;stroke-width:1;"/><path d="M723.6854,219.1206 Q723.1073,219.4175 722.4667,219.5581 Q721.826,219.7144 721.1229,219.7144 Q718.6229,219.7144 717.2948,218.0738 Q715.9823,216.4175 715.9823,213.2925 Q715.9823,210.1675 717.2948,208.5113 Q718.6229,206.855 721.1229,206.855 Q721.826,206.855 722.4667,207.0113 Q723.1229,207.1675 723.6854,207.4644 L723.6854,210.1831 Q723.0604,209.605 722.4667,209.3394 Q721.8729,209.0581 721.2479,209.0581 Q719.9042,209.0581 719.2167,210.1363 Q718.5292,211.1988 718.5292,213.2925 Q718.5292,215.3863 719.2167,216.4644 Q719.9042,217.5269 721.2479,217.5269 Q721.8729,217.5269 722.4667,217.2613 Q723.0604,216.98 723.6854,216.4019 L723.6854,219.1206 Z " fill="#000000"/><text fill="#000000" font-family="sans-serif" font-size="14" lengthAdjust="spacing" textLength="113.5928" x="741.2167" y="218.3267">WordsCollection</text><line style="stroke:#181818;stroke-width:0.5;" x1="633.14" x2="930.3861" y1="229.48" y2="229.48"/><rect fill="#FFFFFF" fill-opacity="0.00000" height="6" style="stroke:#C82930;stroke-width:1;" width="6" x="640.14" y="240.1284"/><text fill="#000000" font-family="sans-serif" font-size="14" lengthAdjust="spacing" textLength="166.7422" x="652.14" y="246.4751">List&lt;string&gt; _collection</text><rect fill="#FFFFFF" fill-opacity="0.00000" height="6" style="stroke:#C82930;stroke-width:1;" width="6" x="640.14" y="256.4253"/><text fill="#000000" font-family="sans-serif" font-size="14" lengthAdjust="spacing" textLength="103.0176" x="652.14" y="262.772">bool _direction</text><line style="stroke:#181818;stroke-width:0.5;" x1="633.14" x2="930.3861" y1="270.0738" y2="270.0738"/><ellipse cx="643.14" cy="283.7222" fill="#84BE84" rx="3" ry="3" style="stroke:#038048;stroke-width:1;"/><text fill="#000000" font-family="sans-serif" font-size="14" lengthAdjust="spacing" textLength="165.457" x="652.14" y="287.0689">void ReverseDirection()</text><ellipse cx="643.14" cy="300.0191" fill="#84BE84" rx="3" ry="3" style="stroke:#038048;stroke-width:1;"/><text fill="#000000" font-family="sans-serif" font-size="14" lengthAdjust="spacing" textLength="165.6484" x="652.14" y="303.3657">List&lt;string&gt; getItems()</text><ellipse cx="643.14" cy="316.3159" fill="#84BE84" rx="3" ry="3" style="stroke:#038048;stroke-width:1;"/><text fill="#000000" font-family="sans-serif" font-size="14" lengthAdjust="spacing" textLength="180.4893" x="652.14" y="319.6626">void AddItem(string item)</text><ellipse cx="643.14" cy="332.6128" fill="#84BE84" rx="3" ry="3" style="stroke:#038048;stroke-width:1;"/><text fill="#000000" font-family="sans-serif" font-size="14" lengthAdjust="spacing" textLength="273.2461" x="652.14" y="335.9595">override IEnumerator GetEnumerator()</text></g><!--class Program--><g id="elem_Program"><rect codeLine="32" fill="#F1F1F1" height="64.2969" id="Program" rx="2.5" ry="2.5" style="stroke:#181818;stroke-width:0.5;" width="233.3887" x="372.07" y="31.44"/><ellipse cx="454.7028" cy="47.44" fill="#ADD1B2" rx="11" ry="11" style="stroke:#181818;stroke-width:1;"/><path d="M457.6716,53.0806 Q457.0934,53.3775 456.4528,53.5181 Q455.8122,53.6744 455.1091,53.6744 Q452.6091,53.6744 451.2809,52.0338 Q449.9684,50.3775 449.9684,47.2525 Q449.9684,44.1275 451.2809,42.4713 Q452.6091,40.815 455.1091,40.815 Q455.8122,40.815 456.4528,40.9713 Q457.1091,41.1275 457.6716,41.4244 L457.6716,44.1431 Q457.0466,43.565 456.4528,43.2994 Q455.8591,43.0181 455.2341,43.0181 Q453.8903,43.0181 453.2028,44.0963 Q452.5153,45.1588 452.5153,47.2525 Q452.5153,49.3463 453.2028,50.4244 Q453.8903,51.4869 455.2341,51.4869 Q455.8591,51.4869 456.4528,51.2213 Q457.0466,50.94 457.6716,50.3619 L457.6716,53.0806 Z " fill="#000000"/><text fill="#000000" font-family="sans-serif" font-size="14" lengthAdjust="spacing" textLength="59.623" x="475.2028" y="52.2867">Program</text><line style="stroke:#181818;stroke-width:0.5;" x1="373.07" x2="604.4587" y1="63.44" y2="63.44"/><line style="stroke:#181818;stroke-width:0.5;" x1="373.07" x2="604.4587" y1="71.44" y2="71.44"/><ellipse cx="383.07" cy="85.0884" fill="#84BE84" rx="3" ry="3" style="stroke:#038048;stroke-width:1;"/><text fill="#000000" font-family="sans-serif" font-size="14" lengthAdjust="spacing" textLength="207.3887" x="392.07" y="88.4351">static void Main(string[] args)</text></g><!--reverse link Iterator to AlphabeticalOrderIterator--><g id="link_Iterator_AlphabeticalOrderIterator"><path codeLine="36" d="M251.9812,138.0766 C256.3312,156.6666 257.2,160.32 261.99,180.76 " fill="#FFFFFF" fill-opacity="0.00000" id="Iterator-backto-AlphabeticalOrderIterator" style="stroke:#181818;stroke-width:1;"/><polygon fill="#FFFFFF" fill-opacity="0.00000" points="247.88,120.55,246.139,139.4436,257.8233,136.7095,247.88,120.55" style="stroke:#181818;stroke-width:1;"/></g><!--reverse link IteratorAggregate to WordsCollection--><g id="link_IteratorAggregate_WordsCollection"><path codeLine="37" d="M787.8256,114.1262 C786.7756,140.9362 785.94,162.48 784.59,197.01 " fill="#FFFFFF" fill-opacity="0.00000" id="IteratorAggregate-backto-WordsCollection" style="stroke:#181818;stroke-width:1;"/><polygon fill="#FFFFFF" fill-opacity="0.00000" points="788.53,96.14,781.8302,113.8914,793.821,114.361,788.53,96.14" style="stroke:#181818;stroke-width:1;"/></g><!--link AlphabeticalOrderIterator to WordsCollection--><g id="link_AlphabeticalOrderIterator_WordsCollection"><path codeLine="38" d="M564.89,270.37 C589.88,270.37 602.51,270.37 625.76,270.37 " fill="#FFFFFF" fill-opacity="0.00000" id="AlphabeticalOrderIterator-WordsCollection" style="stroke:#181818;stroke-width:1;"/><polygon fill="#181818" points="558.89,270.37,567.89,274.37,563.89,270.37,567.89,266.37,558.89,270.37" style="stroke:#181818;stroke-width:1;"/><polygon fill="#181818" points="631.76,270.37,622.76,266.37,626.76,270.37,622.76,274.37,631.76,270.37" style="stroke:#181818;stroke-width:1;"/><text fill="#000000" font-family="sans-serif" font-size="13" lengthAdjust="spacing" textLength="29.7832" x="580.83" y="263.4369">uses</text></g><!--reverse link Iterator to Program--><g id="link_Iterator_Program"><path codeLine="40" d="M342.96,63.59 C354.52,63.59 360.08,63.59 371.64,63.59 " fill="#FFFFFF" fill-opacity="0.00000" id="Iterator-backto-Program" style="stroke:#181818;stroke-width:1;"/><polygon fill="#181818" points="336.96,63.59,345.96,67.59,341.96,63.59,345.96,59.59,336.96,63.59" style="stroke:#181818;stroke-width:1;"/></g><!--link Program to IteratorAggregate--><g id="link_Program_IteratorAggregate"><path codeLine="41" d="M605.75,63.59 C617.25,63.59 622.75,63.59 634.25,63.59 " fill="#FFFFFF" fill-opacity="0.00000" id="Program-to-IteratorAggregate" style="stroke:#181818;stroke-width:1;"/><polygon fill="#181818" points="640.25,63.59,631.25,59.59,635.25,63.59,631.25,67.59,640.25,63.59" style="stroke:#181818;stroke-width:1;"/></g><!--SRC=[ZLB1JiCm3BtdAtmS6lq1D2PD0w491eWB1uIcjF6oeAoPd6m20VzErZJPI3j4BqtyOh_dP_FIEkALWqfpQs7caBWp19yC_3S47d5LExZ5Zy5P3fZo3VrlkYN2sdNnqXWDSxF3UtplWNT62NX2Ytlicp7UBsWY9Q7a3hlAPjVrTjtAla5tk8M2eSv4RrQyHASghXz886MT5l1iIDYfqTfteqmDYogTsnTx2nOROzLHhEbkGRX3ijWgEyaro3aE5EUXKbi8Bc79jSNebdUFI0ayPNR2yoabe7yA2Swd44pBvKQhxfHr8- - -gkMunwVWYL1q51r6YgQ_guWb9RzAIdJUihLDQ9Cx4M8V7OHNeFovqyU_Tk6HZ2I-Jfja7VUp2YHphkgMuUKLE4dR9APj6NqLnUa1i-wwDWcPaImtTbHeNBfY_CUQNi3MecKiYeyPYJe1fEJg64bQVW00]--></g></svg>