<svg xmlns="http://www.w3.org/2000/svg" xmlns:xlink="http://www.w3.org/1999/xlink" contentStyleType="text/css" data-diagram-type="CLASS" height="413px" preserveAspectRatio="none" style="width:726px;height:413px;background:#FFFFFF;" version="1.1" viewBox="0 0 726 413" width="726px" zoomAndPan="magnify"><defs/><g><!--class ISubject--><g id="elem_ISubject"><rect codeLine="1" fill="#F1F1F1" height="64.2969" id="ISubject" rx="2.5" ry="2.5" style="stroke:#181818;stroke-width:0.5;" width="133.2148" x="310.62" y="7"/><ellipse cx="345.7575" cy="23" fill="#B4A7E5" rx="11" ry="11" style="stroke:#181818;stroke-width:1;"/><path d="M341.6794,18.7656 L341.6794,16.6094 L349.07,16.6094 L349.07,18.7656 L346.6013,18.7656 L346.6013,26.8438 L349.07,26.8438 L349.07,29 L341.6794,29 L341.6794,26.8438 L344.1481,26.8438 L344.1481,18.7656 L341.6794,18.7656 Z " fill="#000000"/><text fill="#000000" font-family="sans-serif" font-size="14" font-style="italic" lengthAdjust="spacing" textLength="56.4648" x="364.2325" y="27.8467">ISubject</text><line style="stroke:#181818;stroke-width:0.5;" x1="311.62" x2="442.8348" y1="39" y2="39"/><line style="stroke:#181818;stroke-width:0.5;" x1="311.62" x2="442.8348" y1="47" y2="47"/><ellipse cx="321.62" cy="60.6484" fill="#84BE84" rx="3" ry="3" style="stroke:#038048;stroke-width:1;"/><text fill="#000000" font-family="sans-serif" font-size="14" lengthAdjust="spacing" textLength="107.2148" x="330.62" y="63.9951">Request(): void</text></g><!--class RealSubject--><g id="elem_RealSubject"><rect codeLine="5" fill="#F1F1F1" height="64.2969" id="RealSubject" rx="2.5" ry="2.5" style="stroke:#181818;stroke-width:0.5;" width="133.2148" x="423.62" y="163.9"/><ellipse cx="446.7512" cy="179.9" fill="#ADD1B2" rx="11" ry="11" style="stroke:#181818;stroke-width:1;"/><path d="M449.72,185.5406 Q449.1418,185.8375 448.5012,185.9781 Q447.8606,186.1344 447.1575,186.1344 Q444.6575,186.1344 443.3293,184.4937 Q442.0168,182.8375 442.0168,179.7125 Q442.0168,176.5875 443.3293,174.9312 Q444.6575,173.275 447.1575,173.275 Q447.8606,173.275 448.5012,173.4312 Q449.1575,173.5875 449.72,173.8844 L449.72,176.6031 Q449.095,176.025 448.5012,175.7594 Q447.9075,175.4781 447.2825,175.4781 Q445.9387,175.4781 445.2512,176.5562 Q444.5637,177.6187 444.5637,179.7125 Q444.5637,181.8062 445.2512,182.8844 Q445.9387,183.9469 447.2825,183.9469 Q447.9075,183.9469 448.5012,183.6812 Q449.095,183.4 449.72,182.8219 L449.72,185.5406 Z " fill="#000000"/><text fill="#000000" font-family="sans-serif" font-size="14" lengthAdjust="spacing" textLength="83.1455" x="462.5581" y="184.7467">RealSubject</text><line style="stroke:#181818;stroke-width:0.5;" x1="424.62" x2="555.8348" y1="195.9" y2="195.9"/><line style="stroke:#181818;stroke-width:0.5;" x1="424.62" x2="555.8348" y1="203.9" y2="203.9"/><ellipse cx="434.62" cy="217.5484" fill="#84BE84" rx="3" ry="3" style="stroke:#038048;stroke-width:1;"/><text fill="#000000" font-family="sans-serif" font-size="14" lengthAdjust="spacing" textLength="107.2148" x="443.62" y="220.8951">Request(): void</text></g><!--class Proxy--><g id="elem_Proxy"><rect codeLine="9" fill="#F1F1F1" height="129.4844" id="Proxy" rx="2.5" ry="2.5" style="stroke:#181818;stroke-width:0.5;" width="247.7441" x="141.36" y="131.3"/><ellipse cx="241.3151" cy="147.3" fill="#ADD1B2" rx="11" ry="11" style="stroke:#181818;stroke-width:1;"/><path d="M244.2838,152.9406 Q243.7057,153.2375 243.0651,153.3781 Q242.4245,153.5344 241.7213,153.5344 Q239.2213,153.5344 237.8932,151.8938 Q236.5807,150.2375 236.5807,147.1125 Q236.5807,143.9875 237.8932,142.3313 Q239.2213,140.675 241.7213,140.675 Q242.4245,140.675 243.0651,140.8313 Q243.7213,140.9875 244.2838,141.2844 L244.2838,144.0031 Q243.6588,143.425 243.0651,143.1594 Q242.4713,142.8781 241.8463,142.8781 Q240.5026,142.8781 239.8151,143.9563 Q239.1276,145.0188 239.1276,147.1125 Q239.1276,149.2063 239.8151,150.2844 Q240.5026,151.3469 241.8463,151.3469 Q242.4713,151.3469 243.0651,151.0813 Q243.6588,150.8 244.2838,150.2219 L244.2838,152.9406 Z " fill="#000000"/><text fill="#000000" font-family="sans-serif" font-size="14" lengthAdjust="spacing" textLength="39.334" x="261.8151" y="152.1467">Proxy</text><line style="stroke:#181818;stroke-width:0.5;" x1="142.36" x2="388.1041" y1="163.3" y2="163.3"/><rect fill="none" height="6" style="stroke:#C82930;stroke-width:1;" width="6" x="149.36" y="173.9484"/><text fill="#000000" font-family="sans-serif" font-size="14" lengthAdjust="spacing" textLength="178.4863" x="161.36" y="180.2951">_realSubject: RealSubject</text><line style="stroke:#181818;stroke-width:0.5;" x1="142.36" x2="388.1041" y1="187.5969" y2="187.5969"/><ellipse cx="152.36" cy="201.2453" fill="#84BE84" rx="3" ry="3" style="stroke:#038048;stroke-width:1;"/><text fill="#000000" font-family="sans-serif" font-size="14" lengthAdjust="spacing" textLength="221.7441" x="161.36" y="204.592">Proxy(realSubject: RealSubject)</text><ellipse cx="152.36" cy="217.5422" fill="#84BE84" rx="3" ry="3" style="stroke:#038048;stroke-width:1;"/><text fill="#000000" font-family="sans-serif" font-size="14" lengthAdjust="spacing" textLength="107.2148" x="161.36" y="220.8889">Request(): void</text><ellipse cx="152.36" cy="233.8391" fill="#84BE84" rx="3" ry="3" style="stroke:#038048;stroke-width:1;"/><text fill="#000000" font-family="sans-serif" font-size="14" lengthAdjust="spacing" textLength="141.2373" x="161.36" y="237.1857">CheckAccess(): bool</text><ellipse cx="152.36" cy="250.1359" fill="#84BE84" rx="3" ry="3" style="stroke:#038048;stroke-width:1;"/><text fill="#000000" font-family="sans-serif" font-size="14" lengthAdjust="spacing" textLength="123.1426" x="161.36" y="253.4826">LogAccess(): void</text></g><!--class Client--><g id="elem_Client"><rect codeLine="17" fill="#F1F1F1" height="64.2969" id="Client" rx="2.5" ry="2.5" style="stroke:#181818;stroke-width:0.5;" width="268.4639" x="7" y="7"/><ellipse cx="116.7168" cy="23" fill="#ADD1B2" rx="11" ry="11" style="stroke:#181818;stroke-width:1;"/><path d="M119.6855,28.6406 Q119.1074,28.9375 118.4668,29.0781 Q117.8262,29.2344 117.123,29.2344 Q114.623,29.2344 113.2949,27.5938 Q111.9824,25.9375 111.9824,22.8125 Q111.9824,19.6875 113.2949,18.0313 Q114.623,16.375 117.123,16.375 Q117.8262,16.375 118.4668,16.5313 Q119.123,16.6875 119.6855,16.9844 L119.6855,19.7031 Q119.0605,19.125 118.4668,18.8594 Q117.873,18.5781 117.248,18.5781 Q115.9043,18.5781 115.2168,19.6563 Q114.5293,20.7188 114.5293,22.8125 Q114.5293,24.9063 115.2168,25.9844 Q115.9043,27.0469 117.248,27.0469 Q117.873,27.0469 118.4668,26.7813 Q119.0605,26.5 119.6855,25.9219 L119.6855,28.6406 Z " fill="#000000"/><text fill="#000000" font-family="sans-serif" font-size="14" lengthAdjust="spacing" textLength="40.5303" x="137.2168" y="27.8467">Client</text><line style="stroke:#181818;stroke-width:0.5;" x1="8" x2="274.4639" y1="39" y2="39"/><line style="stroke:#181818;stroke-width:0.5;" x1="8" x2="274.4639" y1="47" y2="47"/><ellipse cx="18" cy="60.6484" fill="#84BE84" rx="3" ry="3" style="stroke:#038048;stroke-width:1;"/><text fill="#000000" font-family="sans-serif" font-size="14" lengthAdjust="spacing" textLength="242.4639" x="27" y="63.9951">ClientCode(subject: ISubject): void</text></g><g id="elem_GMN10"><path d="M96.77,320.79 L96.77,406.4541 A0,0 0 0 0 96.77,406.4541 L377.7002,406.4541 A0,0 0 0 0 377.7002,406.4541 L377.7002,330.79 L367.7002,320.79 L248.32,320.79 L254.41,261.06 L240.32,320.79 L96.77,320.79 A0,0 0 0 0 96.77,320.79 " fill="#FEFFDD" style="stroke:#181818;stroke-width:0.5;"/><path d="M367.7002,320.79 L367.7002,330.79 L377.7002,330.79 L367.7002,320.79 " fill="#FEFFDD" style="stroke:#181818;stroke-width:0.5;"/><text fill="#000000" font-family="sans-serif" font-size="13" lengthAdjust="spacing" textLength="259.9302" x="102.77" y="337.8569">The Proxy can perform additional tasks:</text><text fill="#000000" font-family="sans-serif" font-size="13" lengthAdjust="spacing" textLength="90.5684" x="102.77" y="352.9897">- Lazy loading</text><text fill="#000000" font-family="sans-serif" font-size="13" lengthAdjust="spacing" textLength="61.3564" x="102.77" y="368.1225">- Caching</text><text fill="#000000" font-family="sans-serif" font-size="13" lengthAdjust="spacing" textLength="103.0352" x="102.77" y="383.2553">- Access control</text><text fill="#000000" font-family="sans-serif" font-size="13" lengthAdjust="spacing" textLength="60.6265" x="102.77" y="398.3881">- Logging</text></g><g id="elem_GMN13"><path d="M478.96,19.02 L478.96,35.15 L444.01,39.15 L478.96,43.15 L478.96,59.2856 A0,0 0 0 0 478.96,59.2856 L719.5064,59.2856 A0,0 0 0 0 719.5064,59.2856 L719.5064,29.02 L709.5064,19.02 L478.96,19.02 A0,0 0 0 0 478.96,19.02 " fill="#FEFFDD" style="stroke:#181818;stroke-width:0.5;"/><path d="M709.5064,19.02 L709.5064,29.02 L719.5064,29.02 L709.5064,19.02 " fill="#FEFFDD" style="stroke:#181818;stroke-width:0.5;"/><text fill="#000000" font-family="sans-serif" font-size="13" lengthAdjust="spacing" textLength="219.5464" x="484.96" y="36.0869">Defines the common interface for</text><text fill="#000000" font-family="sans-serif" font-size="13" lengthAdjust="spacing" textLength="184.2598" x="484.96" y="51.2197">both RealSubject and Proxy.</text></g><g id="elem_GMN16"><path d="M413.15,351.05 L413.15,376.1828 A0,0 0 0 0 413.15,376.1828 L623.3165,376.1828 A0,0 0 0 0 623.3165,376.1828 L623.3165,361.05 L613.3165,351.05 L520.24,351.05 L495.56,228.58 L512.24,351.05 L413.15,351.05 A0,0 0 0 0 413.15,351.05 " fill="#FEFFDD" style="stroke:#181818;stroke-width:0.5;"/><path d="M613.3165,351.05 L613.3165,361.05 L623.3165,361.05 L613.3165,351.05 " fill="#FEFFDD" style="stroke:#181818;stroke-width:0.5;"/><text fill="#000000" font-family="sans-serif" font-size="13" lengthAdjust="spacing" textLength="189.1665" x="419.15" y="368.1169">Contains core business logic.</text></g><!--reverse link ISubject to RealSubject--><g id="link_ISubject_RealSubject"><path codeLine="21" d="M410.7097,86.0408 C430.2497,112.8208 447.62,136.63 467.21,163.48 " fill="none" id="ISubject-backto-RealSubject" style="stroke:#181818;stroke-width:1;stroke-dasharray:7.0,7.0;"/><polygon fill="none" points="400.1,71.5,405.8627,89.5774,415.5566,82.5042,400.1,71.5" style="stroke:#181818;stroke-width:1;"/></g><!--reverse link ISubject to Proxy--><g id="link_ISubject_Proxy"><path codeLine="22" d="M344.0234,86.0866 C331.6234,103.2366 326.34,110.54 311.46,131.11 " fill="none" id="ISubject-backto-Proxy" style="stroke:#181818;stroke-width:1;stroke-dasharray:7.0,7.0;"/><polygon fill="none" points="354.57,71.5,339.1612,82.5711,348.8856,89.6021,354.57,71.5" style="stroke:#181818;stroke-width:1;"/></g><!--reverse link Proxy to RealSubject--><g id="link_Proxy_RealSubject"><path codeLine="23" d="M401.6,196.04 C412.87,196.04 412.14,196.04 423.4,196.04 " fill="none" id="Proxy-backto-RealSubject" style="stroke:#181818;stroke-width:1;"/><polygon fill="none" points="389.6,196.04,395.6,200.04,401.6,196.04,395.6,192.04,389.6,196.04" style="stroke:#181818;stroke-width:1;"/></g><!--link Client to ISubject--><g id="link_Client_ISubject"><path codeLine="24" d="M275.83,39.15 C287.31,39.15 292.8,39.15 304.29,39.15 " fill="none" id="Client-to-ISubject" style="stroke:#181818;stroke-width:1;stroke-dasharray:7.0,7.0;"/><polygon fill="#181818" points="310.29,39.15,301.29,35.15,305.29,39.15,301.29,43.15,310.29,39.15" style="stroke:#181818;stroke-width:1;"/></g><!--SRC=[ZLBDJeGm4BxtAUR8ni0346DYy6AoXurwDzqoGDtIqROOrvztTmfTM4msaLFRR_hzKMq3kaOgXFl7OV-2Ai2N0Fwku07V1lGXsvJmJheMFq8e8xrdG9f_3-ySVHpJM0xFRhbRdXCbcd4wkpIqkI0sdLOTgiEjKkXzHFP49Y5RQfVpjRtAQBHBZ6bRKOsPFnau5NDsT-xg-hieLZ7Mo1X7J1LGxdJRXNmrdkIB4IfkPYqXB0Na325G3zGafgSEKw5AMdZbFqUk1rdNEcYoqa2G_k1BaSDMVXx1aAorRNbRITLDgwa8K6I3uuBoM4uR8RGrHD4aFJgAohEbEsoqHG-1JIZgUxAWvzV3HWIxxLQFGpBbQBVuoxu4MxN1fgIsqPtZcS57FSynMgqMYby0]--></g></svg>