<svg xmlns="http://www.w3.org/2000/svg" xmlns:xlink="http://www.w3.org/1999/xlink" contentStyleType="text/css" data-diagram-type="CLASS" height="284px" preserveAspectRatio="none" style="width:417px;height:284px;background:#FFFFFF;" version="1.1" viewBox="0 0 417 284" width="417px" zoomAndPan="magnify"><defs/><g><!--class ReusablePool--><g id="elem_ReusablePool"><rect codeLine="1" fill="#F1F1F1" height="145.7813" id="ReusablePool" rx="2.5" ry="2.5" style="stroke:#181818;stroke-width:0.5;" width="272.4971" x="137.99" y="132"/><ellipse cx="223.0188" cy="148" fill="#ADD1B2" rx="11" ry="11" style="stroke:#181818;stroke-width:1;"/><path d="M225.9876,153.6406 Q225.4094,153.9375 224.7688,154.0781 Q224.1282,154.2344 223.4251,154.2344 Q220.9251,154.2344 219.5969,152.5937 Q218.2844,150.9375 218.2844,147.8125 Q218.2844,144.6875 219.5969,143.0312 Q220.9251,141.375 223.4251,141.375 Q224.1282,141.375 224.7688,141.5312 Q225.4251,141.6875 225.9876,141.9844 L225.9876,144.7031 Q225.3626,144.125 224.7688,143.8594 Q224.1751,143.5781 223.5501,143.5781 Q222.2063,143.5781 221.5188,144.6562 Q220.8313,145.7187 220.8313,147.8125 Q220.8313,149.9062 221.5188,150.9844 Q222.2063,152.0469 223.5501,152.0469 Q224.1751,152.0469 224.7688,151.7812 Q225.3626,151.5 225.9876,150.9219 L225.9876,153.6406 Z " fill="#000000"/><text fill="#000000" font-family="sans-serif" font-size="14" lengthAdjust="spacing" textLength="93.9395" x="243.5188" y="152.8467">ReusablePool</text><line style="stroke:#181818;stroke-width:0.5;" x1="138.99" x2="409.4871" y1="164" y2="164"/><rect fill="#FFFFFF" fill-opacity="0.00000" height="6" style="stroke:#C82930;stroke-width:1;" width="6" x="145.99" y="174.6484"/><text fill="#000000" font-family="sans-serif" font-size="14" lengthAdjust="spacing" textLength="191.6387" x="157.99" y="180.9951">static readonly object _lock</text><line style="stroke:#181818;stroke-width:0.5;" x1="138.99" x2="409.4871" y1="188.2969" y2="188.2969"/><rect fill="#F24D5C" height="6" style="stroke:#C82930;stroke-width:1;" width="6" x="145.99" y="198.9453"/><text fill="#000000" font-family="sans-serif" font-size="14" lengthAdjust="spacing" textLength="176.627" x="157.99" y="205.292">ReusablePool() {private}</text><ellipse cx="148.99" cy="218.2422" fill="#84BE84" rx="3" ry="3" style="stroke:#038048;stroke-width:1;"/><text fill="#000000" font-family="sans-serif" font-size="14" lengthAdjust="spacing" textLength="236.7012" x="157.99" y="221.5889">static ReusablePool GetInstance()</text><ellipse cx="148.99" cy="234.5391" fill="#84BE84" rx="3" ry="3" style="stroke:#038048;stroke-width:1;"/><text fill="#000000" font-family="sans-serif" font-size="14" lengthAdjust="spacing" textLength="206.2334" x="157.99" y="237.8857">Reuseable AcquireReusable()</text><ellipse cx="148.99" cy="250.8359" fill="#84BE84" rx="3" ry="3" style="stroke:#038048;stroke-width:1;"/><text fill="#000000" font-family="sans-serif" font-size="14" lengthAdjust="spacing" textLength="246.4971" x="157.99" y="254.1826">void ReleaseReusable(Reusable in)</text><ellipse cx="148.99" cy="267.1328" fill="#84BE84" rx="3" ry="3" style="stroke:#038048;stroke-width:1;"/><text fill="#000000" font-family="sans-serif" font-size="14" lengthAdjust="spacing" textLength="237.0771" x="157.99" y="270.4795">void SetMaxPoolSize(int maxSize)</text></g><!--class Client--><g id="elem_Client"><rect codeLine="10" fill="#F1F1F1" height="48" id="Client" rx="2.5" ry="2.5" style="stroke:#181818;stroke-width:0.5;" width="72.5303" x="127.97" y="7"/><ellipse cx="142.97" cy="23" fill="#ADD1B2" rx="11" ry="11" style="stroke:#181818;stroke-width:1;"/><path d="M145.9388,28.6406 Q145.3606,28.9375 144.72,29.0781 Q144.0794,29.2344 143.3763,29.2344 Q140.8763,29.2344 139.5481,27.5938 Q138.2356,25.9375 138.2356,22.8125 Q138.2356,19.6875 139.5481,18.0313 Q140.8763,16.375 143.3763,16.375 Q144.0794,16.375 144.72,16.5313 Q145.3763,16.6875 145.9388,16.9844 L145.9388,19.7031 Q145.3138,19.125 144.72,18.8594 Q144.1263,18.5781 143.5013,18.5781 Q142.1575,18.5781 141.47,19.6563 Q140.7825,20.7188 140.7825,22.8125 Q140.7825,24.9063 141.47,25.9844 Q142.1575,27.0469 143.5013,27.0469 Q144.1263,27.0469 144.72,26.7813 Q145.3138,26.5 145.9388,25.9219 L145.9388,28.6406 Z " fill="#000000"/><text fill="#000000" font-family="sans-serif" font-size="14" lengthAdjust="spacing" textLength="40.5303" x="156.97" y="27.8467">Client</text><line style="stroke:#181818;stroke-width:0.5;" x1="128.97" x2="199.5003" y1="39" y2="39"/><line style="stroke:#181818;stroke-width:0.5;" x1="128.97" x2="199.5003" y1="47" y2="47"/></g><!--class Reusable--><g id="elem_Reusable"><rect codeLine="13" fill="#F1F1F1" height="48" id="Reusable" rx="2.5" ry="2.5" style="stroke:#181818;stroke-width:0.5;" width="96.4766" x="7" y="180.89"/><ellipse cx="22" cy="196.89" fill="#ADD1B2" rx="11" ry="11" style="stroke:#181818;stroke-width:1;"/><path d="M24.9688,202.5306 Q24.3906,202.8275 23.75,202.9681 Q23.1094,203.1244 22.4063,203.1244 Q19.9063,203.1244 18.5781,201.4838 Q17.2656,199.8275 17.2656,196.7025 Q17.2656,193.5775 18.5781,191.9213 Q19.9063,190.265 22.4063,190.265 Q23.1094,190.265 23.75,190.4213 Q24.4063,190.5775 24.9688,190.8744 L24.9688,193.5931 Q24.3438,193.015 23.75,192.7494 Q23.1563,192.4681 22.5313,192.4681 Q21.1875,192.4681 20.5,193.5463 Q19.8125,194.6088 19.8125,196.7025 Q19.8125,198.7963 20.5,199.8744 Q21.1875,200.9369 22.5313,200.9369 Q23.1563,200.9369 23.75,200.6713 Q24.3438,200.39 24.9688,199.8119 L24.9688,202.5306 Z " fill="#000000"/><text fill="#000000" font-family="sans-serif" font-size="14" lengthAdjust="spacing" textLength="64.4766" x="36" y="201.7367">Reusable</text><line style="stroke:#181818;stroke-width:0.5;" x1="8" x2="102.4766" y1="212.89" y2="212.89"/><line style="stroke:#181818;stroke-width:0.5;" x1="8" x2="102.4766" y1="220.89" y2="220.89"/></g><!--link Client to ReusablePool--><g id="link_Client_ReusablePool"><path codeLine="16" d="M179.07,55.18 C191.68,74.88 207.2454,99.2065 224.8154,126.6565 " fill="#FFFFFF" fill-opacity="0.00000" id="Client-to-ReusablePool" style="stroke:#181818;stroke-width:1;stroke-dasharray:7.0,7.0;"/><polygon fill="#181818" points="228.05,131.71,226.5671,121.9734,225.3545,127.4988,219.8292,126.2862,228.05,131.71" style="stroke:#181818;stroke-width:1;"/><text fill="#000000" font-family="sans-serif" font-size="13" lengthAdjust="spacing" textLength="31.0591" x="206.24" y="98.0669">Uses</text></g><!--link Client to Reusable--><g id="link_Client_Reusable"><path codeLine="17" d="M149.54,55.18 C128.73,87.99 94.1333,142.553 73.2633,175.463 " fill="#FFFFFF" fill-opacity="0.00000" id="Client-to-Reusable" style="stroke:#181818;stroke-width:1;stroke-dasharray:7.0,7.0;"/><polygon fill="#181818" points="70.05,180.53,78.2479,175.0716,72.7277,176.3075,71.4919,170.7873,70.05,180.53" style="stroke:#181818;stroke-width:1;"/><text fill="#000000" font-family="sans-serif" font-size="13" lengthAdjust="spacing" textLength="31.0591" x="130.24" y="98.0669">Uses</text></g><!--link Reusable to ReusablePool--><g id="link_Reusable_ReusablePool"><path codeLine="18" d="M103.57,204.89 C114.91,204.89 114.24,204.89 125.57,204.89 " fill="#FFFFFF" fill-opacity="0.00000" id="Reusable-to-ReusablePool" style="stroke:#181818;stroke-width:1;"/><polygon fill="#FFFFFF" fill-opacity="0.00000" points="137.57,204.89,131.57,200.89,125.57,204.89,131.57,208.89,137.57,204.89" style="stroke:#181818;stroke-width:1;"/></g><!--SRC=[VP313e8m38RlUueU8GOVm7Wn7em74oFnRCQeINLko0P12U_kM1Xa5tjg_l_xswr2ScFWWetXXSIprX9w1gwoI4nIwAkQMcvnc6nZkIK1DV9IA_a1NJnGMBX9BPuUMGKacdv0UrJEK0AJTE9604S2TkBTK8qXCHEjfj9X4hbPpD00gOZBqPvuDsxBwOi9AGilterzoWR6XF_oNX8wer-KUPpNeaTlrqsr3f4DN0sQ6VXh-hJE9DxjSj0V]--></g></svg>