<svg xmlns="http://www.w3.org/2000/svg" xmlns:xlink="http://www.w3.org/1999/xlink" contentStyleType="text/css" height="320px" preserveAspectRatio="none" style="width:969px;height:320px;background:#FFFFFF;" version="1.1" viewBox="0 0 969 320" width="969px" zoomAndPan="magnify"><defs/><g><!--class Context--><g id="elem_Context"><rect codeLine="1" fill="#F1F1F1" height="129.4844" id="Context" rx="2.5" ry="2.5" style="stroke:#181818;stroke-width:0.5;" width="280.9326" x="212.1" y="7"/><ellipse cx="320.7709" cy="23" fill="#ADD1B2" rx="11" ry="11" style="stroke:#181818;stroke-width:1;"/><path d="M323.7396,28.6406 Q323.1615,28.9375 322.5209,29.0781 Q321.8803,29.2344 321.1771,29.2344 Q318.6771,29.2344 317.349,27.5938 Q316.0365,25.9375 316.0365,22.8125 Q316.0365,19.6875 317.349,18.0313 Q318.6771,16.375 321.1771,16.375 Q321.8803,16.375 322.5209,16.5313 Q323.1771,16.6875 323.7396,16.9844 L323.7396,19.7031 Q323.1146,19.125 322.5209,18.8594 Q321.9271,18.5781 321.3021,18.5781 Q319.9584,18.5781 319.2709,19.6563 Q318.5834,20.7188 318.5834,22.8125 Q318.5834,24.9063 319.2709,25.9844 Q319.9584,27.0469 321.3021,27.0469 Q321.9271,27.0469 322.5209,26.7813 Q323.1146,26.5 323.7396,25.9219 L323.7396,28.6406 Z " fill="#000000"/><text fill="#000000" font-family="sans-serif" font-size="14" lengthAdjust="spacing" textLength="55.0908" x="341.2709" y="27.8467">Context</text><line style="stroke:#181818;stroke-width:0.5;" x1="213.1" x2="492.0326" y1="39" y2="39"/><rect fill="none" height="6" style="stroke:#C82930;stroke-width:1;" width="6" x="220.1" y="49.6484"/><text fill="#000000" font-family="sans-serif" font-size="14" lengthAdjust="spacing" textLength="133.957" x="232.1" y="55.9951">IStrategy _strategy</text><line style="stroke:#181818;stroke-width:0.5;" x1="213.1" x2="492.0326" y1="63.2969" y2="63.2969"/><ellipse cx="223.1" cy="76.9453" fill="#84BE84" rx="3" ry="3" style="stroke:#038048;stroke-width:1;"/><text fill="#000000" font-family="sans-serif" font-size="14" lengthAdjust="spacing" textLength="66.0146" x="232.1" y="80.292">Context()</text><ellipse cx="223.1" cy="93.2422" fill="#84BE84" rx="3" ry="3" style="stroke:#038048;stroke-width:1;"/><text fill="#000000" font-family="sans-serif" font-size="14" lengthAdjust="spacing" textLength="192.9717" x="232.1" y="96.5889">Context(IStrategy strategy)</text><ellipse cx="223.1" cy="109.5391" fill="#84BE84" rx="3" ry="3" style="stroke:#038048;stroke-width:1;"/><text fill="#000000" font-family="sans-serif" font-size="14" lengthAdjust="spacing" textLength="254.9326" x="232.1" y="112.8857">void SetStrategy(IStrategy strategy)</text><ellipse cx="223.1" cy="125.8359" fill="#84BE84" rx="3" ry="3" style="stroke:#038048;stroke-width:1;"/><text fill="#000000" font-family="sans-serif" font-size="14" lengthAdjust="spacing" textLength="202.624" x="232.1" y="129.1826">void DoSomeBusinessLogic()</text></g><!--class IStrategy--><g id="elem_IStrategy"><rect codeLine="9" fill="#F1F1F1" height="64.2969" id="IStrategy" rx="2.5" ry="2.5" style="stroke:#181818;stroke-width:0.5;" width="251.5518" x="558.79" y="39.59"/><ellipse cx="648.2588" cy="55.59" fill="#B4A7E5" rx="11" ry="11" style="stroke:#181818;stroke-width:1;"/><path d="M644.1806,51.3556 L644.1806,49.1994 L651.5713,49.1994 L651.5713,51.3556 L649.1025,51.3556 L649.1025,59.4338 L651.5713,59.4338 L651.5713,61.59 L644.1806,61.59 L644.1806,59.4338 L646.6494,59.4338 L646.6494,51.3556 L644.1806,51.3556 Z " fill="#000000"/><text fill="#000000" font-family="sans-serif" font-size="14" font-style="italic" lengthAdjust="spacing" textLength="64.1143" x="668.7588" y="60.4367">IStrategy</text><line style="stroke:#181818;stroke-width:0.5;" x1="559.79" x2="809.3418" y1="71.59" y2="71.59"/><line style="stroke:#181818;stroke-width:0.5;" x1="559.79" x2="809.3418" y1="79.59" y2="79.59"/><ellipse cx="569.79" cy="93.2384" fill="#84BE84" rx="3" ry="3" style="stroke:#038048;stroke-width:1;"/><text fill="#000000" font-family="sans-serif" font-size="14" lengthAdjust="spacing" textLength="225.5518" x="578.79" y="96.5851">object DoAlgorithm(object data)</text></g><!--class ConcreteStrategyA--><g id="elem_ConcreteStrategyA"><rect codeLine="13" fill="#F1F1F1" height="64.2969" id="ConcreteStrategyA" rx="2.5" ry="2.5" style="stroke:#181818;stroke-width:0.5;" width="251.5518" x="710.79" y="223.3"/><ellipse cx="765.8432" cy="239.3" fill="#ADD1B2" rx="11" ry="11" style="stroke:#181818;stroke-width:1;"/><path d="M768.812,244.9406 Q768.2338,245.2375 767.5932,245.3781 Q766.9526,245.5344 766.2495,245.5344 Q763.7495,245.5344 762.4213,243.8938 Q761.1088,242.2375 761.1088,239.1125 Q761.1088,235.9875 762.4213,234.3313 Q763.7495,232.675 766.2495,232.675 Q766.9526,232.675 767.5932,232.8313 Q768.2495,232.9875 768.812,233.2844 L768.812,236.0031 Q768.187,235.425 767.5932,235.1594 Q766.9995,234.8781 766.3745,234.8781 Q765.0307,234.8781 764.3432,235.9563 Q763.6557,237.0188 763.6557,239.1125 Q763.6557,241.2063 764.3432,242.2844 Q765.0307,243.3469 766.3745,243.3469 Q766.9995,243.3469 767.5932,243.0813 Q768.187,242.8 768.812,242.2219 L768.812,244.9406 Z " fill="#000000"/><text fill="#000000" font-family="sans-serif" font-size="14" lengthAdjust="spacing" textLength="132.9453" x="786.3432" y="244.1467">ConcreteStrategyA</text><line style="stroke:#181818;stroke-width:0.5;" x1="711.79" x2="961.3418" y1="255.3" y2="255.3"/><line style="stroke:#181818;stroke-width:0.5;" x1="711.79" x2="961.3418" y1="263.3" y2="263.3"/><ellipse cx="721.79" cy="276.9484" fill="#84BE84" rx="3" ry="3" style="stroke:#038048;stroke-width:1;"/><text fill="#000000" font-family="sans-serif" font-size="14" lengthAdjust="spacing" textLength="225.5518" x="730.79" y="280.2951">object DoAlgorithm(object data)</text></g><!--class ConcreteStrategyB--><g id="elem_ConcreteStrategyB"><rect codeLine="17" fill="#F1F1F1" height="64.2969" id="ConcreteStrategyB" rx="2.5" ry="2.5" style="stroke:#181818;stroke-width:0.5;" width="251.5518" x="423.79" y="223.3"/><ellipse cx="478.8296" cy="239.3" fill="#ADD1B2" rx="11" ry="11" style="stroke:#181818;stroke-width:1;"/><path d="M481.7983,244.9406 Q481.2202,245.2375 480.5796,245.3781 Q479.9389,245.5344 479.2358,245.5344 Q476.7358,245.5344 475.4077,243.8938 Q474.0952,242.2375 474.0952,239.1125 Q474.0952,235.9875 475.4077,234.3313 Q476.7358,232.675 479.2358,232.675 Q479.9389,232.675 480.5796,232.8313 Q481.2358,232.9875 481.7983,233.2844 L481.7983,236.0031 Q481.1733,235.425 480.5796,235.1594 Q479.9858,234.8781 479.3608,234.8781 Q478.0171,234.8781 477.3296,235.9563 Q476.6421,237.0188 476.6421,239.1125 Q476.6421,241.2063 477.3296,242.2844 Q478.0171,243.3469 479.3608,243.3469 Q479.9858,243.3469 480.5796,243.0813 Q481.1733,242.8 481.7983,242.2219 L481.7983,244.9406 Z " fill="#000000"/><text fill="#000000" font-family="sans-serif" font-size="14" lengthAdjust="spacing" textLength="132.9727" x="499.3296" y="244.1467">ConcreteStrategyB</text><line style="stroke:#181818;stroke-width:0.5;" x1="424.79" x2="674.3418" y1="255.3" y2="255.3"/><line style="stroke:#181818;stroke-width:0.5;" x1="424.79" x2="674.3418" y1="263.3" y2="263.3"/><ellipse cx="434.79" cy="276.9484" fill="#84BE84" rx="3" ry="3" style="stroke:#038048;stroke-width:1;"/><text fill="#000000" font-family="sans-serif" font-size="14" lengthAdjust="spacing" textLength="225.5518" x="443.79" y="280.2951">object DoAlgorithm(object data)</text></g><!--class Client--><g id="elem_Client"><rect codeLine="21" fill="#F1F1F1" height="48" id="Client" rx="2.5" ry="2.5" style="stroke:#181818;stroke-width:0.5;" width="72.5303" x="316.3" y="231.45"/><ellipse cx="331.3" cy="247.45" fill="#ADD1B2" rx="11" ry="11" style="stroke:#181818;stroke-width:1;"/><path d="M334.2688,253.0906 Q333.6906,253.3875 333.05,253.5281 Q332.4094,253.6844 331.7063,253.6844 Q329.2063,253.6844 327.8781,252.0438 Q326.5656,250.3875 326.5656,247.2625 Q326.5656,244.1375 327.8781,242.4813 Q329.2063,240.825 331.7063,240.825 Q332.4094,240.825 333.05,240.9813 Q333.7063,241.1375 334.2688,241.4344 L334.2688,244.1531 Q333.6438,243.575 333.05,243.3094 Q332.4563,243.0281 331.8313,243.0281 Q330.4875,243.0281 329.8,244.1063 Q329.1125,245.1688 329.1125,247.2625 Q329.1125,249.3563 329.8,250.4344 Q330.4875,251.4969 331.8313,251.4969 Q332.4563,251.4969 333.05,251.2313 Q333.6438,250.95 334.2688,250.3719 L334.2688,253.0906 Z " fill="#000000"/><text fill="#000000" font-family="sans-serif" font-size="14" lengthAdjust="spacing" textLength="40.5303" x="345.3" y="252.2967">Client</text><line style="stroke:#181818;stroke-width:0.5;" x1="317.3" x2="387.8303" y1="263.45" y2="263.45"/><line style="stroke:#181818;stroke-width:0.5;" x1="317.3" x2="387.8303" y1="271.45" y2="271.45"/></g><g id="elem_GMN16"><path d="M41.86,197.48 L41.86,313.4097 A0,0 0 0 0 41.86,313.4097 L281.2702,313.4097 A0,0 0 0 0 281.2702,313.4097 L281.2702,259.45 L316.02,255.45 L281.2702,251.45 L281.2702,207.48 L271.2702,197.48 L41.86,197.48 A0,0 0 0 0 41.86,197.48 " fill="#FEFFDD" style="stroke:#181818;stroke-width:0.5;"/><path d="M271.2702,197.48 L271.2702,207.48 L281.2702,207.48 L271.2702,197.48 " fill="#FEFFDD" style="stroke:#181818;stroke-width:0.5;"/><text fill="#000000" font-family="sans-serif" font-size="13" lengthAdjust="spacing" textLength="200.9668" x="47.86" y="214.5469">str = new ConcreteStrategyA()</text><text fill="#000000" font-family="sans-serif" font-size="13" lengthAdjust="spacing" textLength="157.7646" x="47.86" y="229.6797">context.SetStrategy(str)</text><text fill="#000000" font-family="sans-serif" font-size="13" lengthAdjust="spacing" textLength="151.7725" x="47.86" y="244.8125">context.DoSomething()</text><text fill="#000000" font-family="sans-serif" font-size="13" lengthAdjust="spacing" textLength="4.1323" x="47.86" y="259.9453">&#160;</text><text fill="#000000" font-family="sans-serif" font-size="13" lengthAdjust="spacing" textLength="218.4102" x="47.86" y="275.0781">other = new ConcreteStrategyB()</text><text fill="#000000" font-family="sans-serif" font-size="13" lengthAdjust="spacing" textLength="175.1826" x="47.86" y="290.211">context.SetStrategy(other)</text><text fill="#000000" font-family="sans-serif" font-size="13" lengthAdjust="spacing" textLength="151.7725" x="47.86" y="305.3438">context.DoSomething()</text></g><g id="elem_GMN19"><path d="M6,59.17 L6,84.3028 A0,0 0 0 0 6,84.3028 L177.1284,84.3028 A0,0 0 0 0 177.1284,84.3028 L177.1284,77.17 L211.66,71.74 L177.1284,69.17 L177.1284,69.17 L167.1284,59.17 L6,59.17 A0,0 0 0 0 6,59.17 " fill="#FEFFDD" style="stroke:#181818;stroke-width:0.5;"/><path d="M167.1284,59.17 L167.1284,69.17 L177.1284,69.17 L167.1284,59.17 " fill="#FEFFDD" style="stroke:#181818;stroke-width:0.5;"/><text fill="#000000" font-family="sans-serif" font-size="13" lengthAdjust="spacing" textLength="150.1284" x="12" y="76.2369">strategy.DoAlgorithm()</text></g><!--link Context to IStrategy--><g id="link_Context_IStrategy"><path codeLine="24" d="M505.36,71.74 C527.01,71.74 531.25,71.74 552.55,71.74 " fill="none" id="Context-IStrategy" style="stroke:#181818;stroke-width:1;"/><polygon fill="none" points="493.36,71.74,499.36,75.74,505.36,71.74,499.36,67.74,493.36,71.74" style="stroke:#181818;stroke-width:1;"/><polygon fill="#181818" points="558.55,71.74,549.55,67.74,553.55,71.74,549.55,75.74,558.55,71.74" style="stroke:#181818;stroke-width:1;"/><text fill="#000000" font-family="sans-serif" font-size="13" lengthAdjust="spacing" textLength="29.7832" x="511.41" y="64.8069">uses</text></g><!--reverse link IStrategy to ConcreteStrategyA--><g id="link_IStrategy_ConcreteStrategyA"><path codeLine="25" d="M722.2374,117.7779 C750.0774,151.0679 782.36,189.65 810.27,223.01 " fill="none" id="IStrategy-backto-ConcreteStrategyA" style="stroke:#181818;stroke-width:1;stroke-dasharray:7.0,7.0;"/><polygon fill="none" points="710.69,103.97,717.6347,121.627,726.84,113.9288,710.69,103.97" style="stroke:#181818;stroke-width:1;"/></g><!--reverse link IStrategy to ConcreteStrategyB--><g id="link_IStrategy_ConcreteStrategyB"><path codeLine="26" d="M650.6261,118.4193 C625.8961,151.7093 597.7,189.65 572.92,223.01 " fill="none" id="IStrategy-backto-ConcreteStrategyB" style="stroke:#181818;stroke-width:1;stroke-dasharray:7.0,7.0;"/><polygon fill="none" points="661.36,103.97,645.8096,114.8414,655.4425,121.9973,661.36,103.97" style="stroke:#181818;stroke-width:1;"/></g><!--link Client to ConcreteStrategyA--><g id="link_Client_ConcreteStrategyA"><path codeLine="27" d="M364.27,231.16 C376.06,209.82 396.44,180.17 424.06,166.98 C524.73,118.91 566.99,139.32 675.06,166.98 C717.49,177.84 755.7524,199.1049 786.8124,219.6049 " fill="none" id="Client-to-ConcreteStrategyA" style="stroke:#181818;stroke-width:1;stroke-dasharray:7.0,7.0;"/><polygon fill="#181818" points="791.82,222.91,786.512,214.6139,787.647,220.1558,782.1052,221.2908,791.82,222.91" style="stroke:#181818;stroke-width:1;"/></g><!--link Client to ConcreteStrategyB--><g id="link_Client_ConcreteStrategyB"><path codeLine="28" d="M389.12,255.45 C400.61,255.45 406.1,255.45 417.59,255.45 " fill="none" id="Client-to-ConcreteStrategyB" style="stroke:#181818;stroke-width:1;stroke-dasharray:7.0,7.0;"/><polygon fill="#181818" points="423.59,255.45,414.59,251.45,418.59,255.45,414.59,259.45,423.59,255.45" style="stroke:#181818;stroke-width:1;"/></g><!--reverse link Context to Client--><g id="link_Context_Client"><path codeLine="29" d="M352.56,142.8 C352.56,175.5 352.56,207.28 352.56,231.02 " fill="none" id="Context-backto-Client" style="stroke:#181818;stroke-width:1;stroke-dasharray:7.0,7.0;"/><polygon fill="#181818" points="352.56,136.8,348.56,145.8,352.56,141.8,356.56,145.8,352.56,136.8" style="stroke:#181818;stroke-width:1;"/></g><!--SRC=[hPB1JiCm38RlUGeVDw7c0P2ejC85YLiV08NKJOEw12Nk1YgyEw5BjcoqqYJ89L7y_R_jnB8NtiEzDOJl12E3k0fuhCa9GlK1ppwUZj6Rf5YjP-vEoYJCgPtL3TH82Re6Vx2rtM8rU6tG-oUhj8oPlzYqwP3PjK9YLlQOkTYNLvGKV3QziavJjrt5gqQGEBEIwKMaGyBajlbVk-gFThr6GsCUI5ze2wTLHqMPlSGj31vzmYxwuiCR_ypeMQnQmAOwW4yfUJdZVXLMdL4XKPdQOSnOGkYn3Psr4M5XJk0E3Ev_9mnZ8GzIdizOK9m2XscYJXiLS6QfmoM_Qi5lqYmu0aFJm4_TbzN7djAOy_p3rqVLDm00]--></g></svg>