<svg xmlns="http://www.w3.org/2000/svg" xmlns:xlink="http://www.w3.org/1999/xlink" contentStyleType="text/css" data-diagram-type="CLASS" height="473px" preserveAspectRatio="none" style="width:421px;height:473px;background:#FFFFFF;" version="1.1" viewBox="0 0 421 473" width="421px" zoomAndPan="magnify"><defs/><g><!--class AbstractClass--><g id="elem_AbstractClass"><rect codeLine="1" fill="#F1F1F1" height="178.375" id="AbstractClass" rx="2.5" ry="2.5" style="stroke:#181818;stroke-width:0.5;" width="193.043" x="113.5" y="131.29"/><ellipse cx="157.9712" cy="147.29" fill="#A9DCDF" rx="11" ry="11" style="stroke:#181818;stroke-width:1;"/><path d="M158.0806,142.6338 L156.9243,147.7119 L159.2524,147.7119 L158.0806,142.6338 Z M156.5962,140.3994 L159.5806,140.3994 L162.9399,152.79 L160.4868,152.79 L159.7212,149.7275 L156.4399,149.7275 L155.6899,152.79 L153.2524,152.79 L156.5962,140.3994 Z " fill="#000000"/><text fill="#000000" font-family="sans-serif" font-size="14" font-style="italic" lengthAdjust="spacing" textLength="95.6006" x="178.4712" y="152.1367">AbstractClass</text><line style="stroke:#181818;stroke-width:0.5;" x1="114.5" x2="305.543" y1="163.29" y2="163.29"/><line style="stroke:#181818;stroke-width:0.5;" x1="114.5" x2="305.543" y1="171.29" y2="171.29"/><ellipse cx="124.5" cy="184.9384" fill="#84BE84" rx="3" ry="3" style="stroke:#038048;stroke-width:1;"/><text fill="#000000" font-family="sans-serif" font-size="14" lengthAdjust="spacing" textLength="129.6914" x="133.5" y="188.2851">TemplateMethod()</text><polygon fill="#FFFF44" points="124.5,196.2353,128.5,200.2353,124.5,204.2353,120.5,200.2353" style="stroke:#B38D22;stroke-width:1;"/><text fill="#000000" font-family="sans-serif" font-size="14" lengthAdjust="spacing" textLength="123.5938" x="133.5" y="204.582">BaseOperation1()</text><polygon fill="#FFFF44" points="124.5,212.5322,128.5,216.5322,124.5,220.5322,120.5,216.5322" style="stroke:#B38D22;stroke-width:1;"/><text fill="#000000" font-family="sans-serif" font-size="14" lengthAdjust="spacing" textLength="123.5938" x="133.5" y="220.8789">BaseOperation2()</text><polygon fill="#FFFF44" points="124.5,228.8291,128.5,232.8291,124.5,236.8291,120.5,232.8291" style="stroke:#B38D22;stroke-width:1;"/><text fill="#000000" font-family="sans-serif" font-size="14" lengthAdjust="spacing" textLength="123.5938" x="133.5" y="237.1757">BaseOperation3()</text><polygon fill="#FFFF44" points="124.5,245.1259,128.5,249.1259,124.5,253.1259,120.5,249.1259" style="stroke:#B38D22;stroke-width:1;"/><text fill="#000000" font-family="sans-serif" font-size="14" lengthAdjust="spacing" textLength="167.043" x="133.5" y="253.4726">RequiredOperations1()*</text><polygon fill="#FFFF44" points="124.5,261.4228,128.5,265.4228,124.5,269.4228,120.5,265.4228" style="stroke:#B38D22;stroke-width:1;"/><text fill="#000000" font-family="sans-serif" font-size="14" lengthAdjust="spacing" textLength="159.749" x="133.5" y="269.7695">RequiredOperation2()*</text><polygon fill="#FFFF44" points="124.5,277.7197,128.5,281.7197,124.5,285.7197,120.5,281.7197" style="stroke:#B38D22;stroke-width:1;"/><text fill="#000000" font-family="sans-serif" font-size="14" lengthAdjust="spacing" textLength="55.5967" x="133.5" y="286.0664">Hook1()</text><polygon fill="#FFFF44" points="124.5,294.0166,128.5,298.0166,124.5,302.0166,120.5,298.0166" style="stroke:#B38D22;stroke-width:1;"/><text fill="#000000" font-family="sans-serif" font-size="14" lengthAdjust="spacing" textLength="55.5967" x="133.5" y="302.3632">Hook2()</text></g><!--class ConcreteClass1--><g id="elem_ConcreteClass1"><rect codeLine="12" fill="#F1F1F1" height="80.5938" id="ConcreteClass1" rx="2.5" ry="2.5" style="stroke:#181818;stroke-width:0.5;" width="186.043" x="7" y="377.82"/><ellipse cx="42.2144" cy="393.82" fill="#ADD1B2" rx="11" ry="11" style="stroke:#181818;stroke-width:1;"/><path d="M45.1832,399.4606 Q44.605,399.7575 43.9644,399.8981 Q43.3238,400.0544 42.6207,400.0544 Q40.1207,400.0544 38.7925,398.4138 Q37.48,396.7575 37.48,393.6325 Q37.48,390.5075 38.7925,388.8513 Q40.1207,387.195 42.6207,387.195 Q43.3238,387.195 43.9644,387.3513 Q44.6207,387.5075 45.1832,387.8044 L45.1832,390.5231 Q44.5582,389.945 43.9644,389.6794 Q43.3707,389.3981 42.7457,389.3981 Q41.4019,389.3981 40.7144,390.4763 Q40.0269,391.5388 40.0269,393.6325 Q40.0269,395.7263 40.7144,396.8044 Q41.4019,397.8669 42.7457,397.8669 Q43.3707,397.8669 43.9644,397.6013 Q44.5582,397.32 45.1832,396.7419 L45.1832,399.4606 Z " fill="#000000"/><text fill="#000000" font-family="sans-serif" font-size="14" lengthAdjust="spacing" textLength="109.1221" x="60.7065" y="398.6667">ConcreteClass1</text><line style="stroke:#181818;stroke-width:0.5;" x1="8" x2="192.043" y1="409.82" y2="409.82"/><line style="stroke:#181818;stroke-width:0.5;" x1="8" x2="192.043" y1="417.82" y2="417.82"/><ellipse cx="18" cy="431.4684" fill="#84BE84" rx="3" ry="3" style="stroke:#038048;stroke-width:1;"/><text fill="#000000" font-family="sans-serif" font-size="14" lengthAdjust="spacing" textLength="160.043" x="27" y="434.8151">RequiredOperations1()</text><ellipse cx="18" cy="447.7653" fill="#84BE84" rx="3" ry="3" style="stroke:#038048;stroke-width:1;"/><text fill="#000000" font-family="sans-serif" font-size="14" lengthAdjust="spacing" textLength="152.749" x="27" y="451.112">RequiredOperation2()</text></g><!--class ConcreteClass2--><g id="elem_ConcreteClass2"><rect codeLine="17" fill="#F1F1F1" height="96.8906" id="ConcreteClass2" rx="2.5" ry="2.5" style="stroke:#181818;stroke-width:0.5;" width="186.043" x="228" y="369.67"/><ellipse cx="263.2144" cy="385.67" fill="#ADD1B2" rx="11" ry="11" style="stroke:#181818;stroke-width:1;"/><path d="M266.1832,391.3106 Q265.605,391.6075 264.9644,391.7481 Q264.3238,391.9044 263.6207,391.9044 Q261.1207,391.9044 259.7925,390.2638 Q258.48,388.6075 258.48,385.4825 Q258.48,382.3575 259.7925,380.7013 Q261.1207,379.045 263.6207,379.045 Q264.3238,379.045 264.9644,379.2013 Q265.6207,379.3575 266.1832,379.6544 L266.1832,382.3731 Q265.5582,381.795 264.9644,381.5294 Q264.3707,381.2481 263.7457,381.2481 Q262.4019,381.2481 261.7144,382.3263 Q261.0269,383.3888 261.0269,385.4825 Q261.0269,387.5763 261.7144,388.6544 Q262.4019,389.7169 263.7457,389.7169 Q264.3707,389.7169 264.9644,389.4513 Q265.5582,389.17 266.1832,388.5919 L266.1832,391.3106 Z " fill="#000000"/><text fill="#000000" font-family="sans-serif" font-size="14" lengthAdjust="spacing" textLength="109.1221" x="281.7065" y="390.5167">ConcreteClass2</text><line style="stroke:#181818;stroke-width:0.5;" x1="229" x2="413.043" y1="401.67" y2="401.67"/><line style="stroke:#181818;stroke-width:0.5;" x1="229" x2="413.043" y1="409.67" y2="409.67"/><ellipse cx="239" cy="423.3184" fill="#84BE84" rx="3" ry="3" style="stroke:#038048;stroke-width:1;"/><text fill="#000000" font-family="sans-serif" font-size="14" lengthAdjust="spacing" textLength="160.043" x="248" y="426.6651">RequiredOperations1()</text><ellipse cx="239" cy="439.6153" fill="#84BE84" rx="3" ry="3" style="stroke:#038048;stroke-width:1;"/><text fill="#000000" font-family="sans-serif" font-size="14" lengthAdjust="spacing" textLength="152.749" x="248" y="442.962">RequiredOperation2()</text><ellipse cx="239" cy="455.9122" fill="#84BE84" rx="3" ry="3" style="stroke:#038048;stroke-width:1;"/><text fill="#000000" font-family="sans-serif" font-size="14" lengthAdjust="spacing" textLength="55.5967" x="248" y="459.2589">Hook1()</text></g><!--class Client--><g id="elem_Client"><rect codeLine="23" fill="#F1F1F1" height="64.2969" id="Client" rx="2.5" ry="2.5" style="stroke:#181818;stroke-width:0.5;" width="307.9482" x="56.05" y="7"/><ellipse cx="185.509" cy="23" fill="#ADD1B2" rx="11" ry="11" style="stroke:#181818;stroke-width:1;"/><path d="M188.4777,28.6406 Q187.8996,28.9375 187.259,29.0781 Q186.6184,29.2344 185.9152,29.2344 Q183.4152,29.2344 182.0871,27.5938 Q180.7746,25.9375 180.7746,22.8125 Q180.7746,19.6875 182.0871,18.0313 Q183.4152,16.375 185.9152,16.375 Q186.6184,16.375 187.259,16.5313 Q187.9152,16.6875 188.4777,16.9844 L188.4777,19.7031 Q187.8527,19.125 187.259,18.8594 Q186.6652,18.5781 186.0402,18.5781 Q184.6965,18.5781 184.009,19.6563 Q183.3215,20.7188 183.3215,22.8125 Q183.3215,24.9063 184.009,25.9844 Q184.6965,27.0469 186.0402,27.0469 Q186.6652,27.0469 187.259,26.7813 Q187.8527,26.5 188.4777,25.9219 L188.4777,28.6406 Z " fill="#000000"/><text fill="#000000" font-family="sans-serif" font-size="14" lengthAdjust="spacing" textLength="40.5303" x="206.009" y="27.8467">Client</text><line style="stroke:#181818;stroke-width:0.5;" x1="57.05" x2="362.9982" y1="39" y2="39"/><line style="stroke:#181818;stroke-width:0.5;" x1="57.05" x2="362.9982" y1="47" y2="47"/><ellipse cx="67.05" cy="60.6484" fill="#84BE84" rx="3" ry="3" style="stroke:#038048;stroke-width:1;"/><text fill="#000000" font-family="sans-serif" font-size="14" lengthAdjust="spacing" textLength="281.9482" x="76.05" y="63.9951">ClientCode(AbstractClass abstractClass)</text></g><!--reverse link AbstractClass to ConcreteClass1--><g id="link_AbstractClass_ConcreteClass1"><path codeLine="27" d="M151.3497,325.8308 C138.0497,349.4908 133.16,358.17 122.2,377.67 " fill="#FFFFFF" fill-opacity="0.00000" id="AbstractClass-backto-ConcreteClass1" style="stroke:#181818;stroke-width:1;"/><polygon fill="#FFFFFF" fill-opacity="0.00000" points="160.17,310.14,146.1194,322.8907,156.58,328.7709,160.17,310.14" style="stroke:#181818;stroke-width:1;"/></g><!--reverse link AbstractClass to ConcreteClass2--><g id="link_AbstractClass_ConcreteClass2"><path codeLine="28" d="M269.2093,325.7975 C280.7893,346.2175 283.8,351.52 293.96,369.41 " fill="#FFFFFF" fill-opacity="0.00000" id="AbstractClass-backto-ConcreteClass2" style="stroke:#181818;stroke-width:1;"/><polygon fill="#FFFFFF" fill-opacity="0.00000" points="260.33,310.14,263.9901,328.7573,274.4284,322.8378,260.33,310.14" style="stroke:#181818;stroke-width:1;"/></g><!--link Client to AbstractClass--><g id="link_Client_AbstractClass"><path codeLine="29" d="M210.02,71.38 C210.02,88.04 210.02,103.47 210.02,124.82 " fill="#FFFFFF" fill-opacity="0.00000" id="Client-to-AbstractClass" style="stroke:#181818;stroke-width:1;"/><polygon fill="#181818" points="210.02,130.82,214.02,121.82,210.02,125.82,206.02,121.82,210.02,130.82" style="stroke:#181818;stroke-width:1;"/></g><!--SRC=[IqmgBYbAJ2vHICv9B2vMS8HodS6yQYu58D1M24dDBSX9B4drJIt9o4_Hq0GBAoiu9HQd-XUa5YMMPERd6M8NDi8kR0mN3aejBCqiIas1InK3JTB29Mc4aFF8pyz6M0hYWUogvUA2-CGvFo-vABKa5UmJGxXNi5g7ImwtWKRa6mYHWhaUONnEPcfU2TnO2DSvFoLL0pLE4f5vOFseyZOrkhfedYUemeWBQhkkhXrg4W00]--></g></svg>