<svg xmlns="http://www.w3.org/2000/svg" xmlns:xlink="http://www.w3.org/1999/xlink" contentStyleType="text/css" height="458px" preserveAspectRatio="none" style="width:547px;height:458px;background:#FFFFFF;" version="1.1" viewBox="0 0 547 458" width="547px" zoomAndPan="magnify"><defs/><g><!--class Component--><g id="elem_Component"><rect codeLine="1" fill="#F1F1F1" height="113.1875" id="Component" rx="2.5" ry="2.5" style="stroke:#181818;stroke-width:0.5;" width="293.374" x="116.74" y="164.59"/><ellipse cx="218.5374" cy="180.59" fill="#A9DCDF" rx="11" ry="11" style="stroke:#181818;stroke-width:1;"/><path d="M218.6467,175.9338 L217.4905,181.0119 L219.8186,181.0119 L218.6467,175.9338 Z M217.1624,173.6994 L220.1467,173.6994 L223.5061,186.09 L221.053,186.09 L220.2874,183.0275 L217.0061,183.0275 L216.2561,186.09 L213.8186,186.09 L217.1624,173.6994 Z " fill="#000000"/><text fill="#000000" font-family="sans-serif" font-size="14" font-style="italic" lengthAdjust="spacing" textLength="81.2793" x="239.0374" y="185.4367">Component</text><line style="stroke:#181818;stroke-width:0.5;" x1="117.74" x2="409.114" y1="196.59" y2="196.59"/><line style="stroke:#181818;stroke-width:0.5;" x1="117.74" x2="409.114" y1="204.59" y2="204.59"/><ellipse cx="127.74" cy="218.2384" fill="#84BE84" rx="3" ry="3" style="stroke:#038048;stroke-width:1;"/><text fill="#000000" font-family="sans-serif" font-size="14" lengthAdjust="spacing" textLength="125.2344" x="136.74" y="221.5851">string Operation()</text><ellipse cx="127.74" cy="234.5353" fill="#84BE84" rx="3" ry="3" style="stroke:#038048;stroke-width:1;"/><text fill="#000000" font-family="sans-serif" font-size="14" lengthAdjust="spacing" textLength="237.2822" x="136.74" y="237.882">void Add(Component component)</text><ellipse cx="127.74" cy="250.8322" fill="#84BE84" rx="3" ry="3" style="stroke:#038048;stroke-width:1;"/><text fill="#000000" font-family="sans-serif" font-size="14" lengthAdjust="spacing" textLength="267.374" x="136.74" y="254.1789">void Remove(Component component)</text><ellipse cx="127.74" cy="267.1291" fill="#84BE84" rx="3" ry="3" style="stroke:#038048;stroke-width:1;"/><text fill="#000000" font-family="sans-serif" font-size="14" lengthAdjust="spacing" textLength="131.4209" x="136.74" y="270.4757">bool IsComposite()</text></g><!--class Leaf--><g id="elem_Leaf"><rect codeLine="8" fill="#F1F1F1" height="80.5938" id="Leaf" rx="2.5" ry="2.5" style="stroke:#181818;stroke-width:0.5;" width="157.4209" x="54.72" y="355.08"/><ellipse cx="114.22" cy="371.08" fill="#ADD1B2" rx="11" ry="11" style="stroke:#181818;stroke-width:1;"/><path d="M117.1888,376.7206 Q116.6106,377.0175 115.97,377.1581 Q115.3294,377.3144 114.6263,377.3144 Q112.1263,377.3144 110.7981,375.6738 Q109.4856,374.0175 109.4856,370.8925 Q109.4856,367.7675 110.7981,366.1113 Q112.1263,364.455 114.6263,364.455 Q115.3294,364.455 115.97,364.6113 Q116.6263,364.7675 117.1888,365.0644 L117.1888,367.7831 Q116.5638,367.205 115.97,366.9394 Q115.3763,366.6581 114.7513,366.6581 Q113.4075,366.6581 112.72,367.7363 Q112.0325,368.7988 112.0325,370.8925 Q112.0325,372.9863 112.72,374.0644 Q113.4075,375.1269 114.7513,375.1269 Q115.3763,375.1269 115.97,374.8613 Q116.5638,374.58 117.1888,374.0019 L117.1888,376.7206 Z " fill="#000000"/><text fill="#000000" font-family="sans-serif" font-size="14" lengthAdjust="spacing" textLength="29.9209" x="134.72" y="375.9267">Leaf</text><line style="stroke:#181818;stroke-width:0.5;" x1="55.72" x2="211.1409" y1="387.08" y2="387.08"/><line style="stroke:#181818;stroke-width:0.5;" x1="55.72" x2="211.1409" y1="395.08" y2="395.08"/><ellipse cx="65.72" cy="408.7284" fill="#84BE84" rx="3" ry="3" style="stroke:#038048;stroke-width:1;"/><text fill="#000000" font-family="sans-serif" font-size="14" lengthAdjust="spacing" textLength="125.2344" x="74.72" y="412.0751">string Operation()</text><ellipse cx="65.72" cy="425.0253" fill="#84BE84" rx="3" ry="3" style="stroke:#038048;stroke-width:1;"/><text fill="#000000" font-family="sans-serif" font-size="14" lengthAdjust="spacing" textLength="131.4209" x="74.72" y="428.372">bool IsComposite()</text></g><!--class Composite--><g id="elem_Composite"><rect codeLine="13" fill="#F1F1F1" height="113.1875" id="Composite" rx="2.5" ry="2.5" style="stroke:#181818;stroke-width:0.5;" width="293.374" x="246.74" y="338.78"/><ellipse cx="351.8186" cy="354.78" fill="#ADD1B2" rx="11" ry="11" style="stroke:#181818;stroke-width:1;"/><path d="M354.7874,360.4206 Q354.2092,360.7175 353.5686,360.8581 Q352.928,361.0144 352.2249,361.0144 Q349.7249,361.0144 348.3967,359.3738 Q347.0842,357.7175 347.0842,354.5925 Q347.0842,351.4675 348.3967,349.8113 Q349.7249,348.155 352.2249,348.155 Q352.928,348.155 353.5686,348.3113 Q354.2249,348.4675 354.7874,348.7644 L354.7874,351.4831 Q354.1624,350.905 353.5686,350.6394 Q352.9749,350.3581 352.3499,350.3581 Q351.0061,350.3581 350.3186,351.4363 Q349.6311,352.4988 349.6311,354.5925 Q349.6311,356.6863 350.3186,357.7644 Q351.0061,358.8269 352.3499,358.8269 Q352.9749,358.8269 353.5686,358.5613 Q354.1624,358.28 354.7874,357.7019 L354.7874,360.4206 Z " fill="#000000"/><text fill="#000000" font-family="sans-serif" font-size="14" lengthAdjust="spacing" textLength="74.7168" x="372.3186" y="359.6267">Composite</text><line style="stroke:#181818;stroke-width:0.5;" x1="247.74" x2="539.114" y1="370.78" y2="370.78"/><rect fill="none" height="6" style="stroke:#C82930;stroke-width:1;" width="6" x="254.74" y="381.4284"/><text fill="#000000" font-family="sans-serif" font-size="14" lengthAdjust="spacing" textLength="197.1416" x="266.74" y="387.7751">List&lt;Component&gt; _children</text><line style="stroke:#181818;stroke-width:0.5;" x1="247.74" x2="539.114" y1="395.0769" y2="395.0769"/><ellipse cx="257.74" cy="408.7253" fill="#84BE84" rx="3" ry="3" style="stroke:#038048;stroke-width:1;"/><text fill="#000000" font-family="sans-serif" font-size="14" lengthAdjust="spacing" textLength="125.2344" x="266.74" y="412.072">string Operation()</text><ellipse cx="257.74" cy="425.0222" fill="#84BE84" rx="3" ry="3" style="stroke:#038048;stroke-width:1;"/><text fill="#000000" font-family="sans-serif" font-size="14" lengthAdjust="spacing" textLength="237.2822" x="266.74" y="428.3689">void Add(Component component)</text><ellipse cx="257.74" cy="441.3191" fill="#84BE84" rx="3" ry="3" style="stroke:#038048;stroke-width:1;"/><text fill="#000000" font-family="sans-serif" font-size="14" lengthAdjust="spacing" textLength="267.374" x="266.74" y="444.6657">void Remove(Component component)</text></g><!--class Client--><g id="elem_Client"><rect codeLine="20" fill="#F1F1F1" height="80.5938" id="Client" rx="2.5" ry="2.5" style="stroke:#181818;stroke-width:0.5;" width="512.8555" x="7" y="7"/><ellipse cx="238.9126" cy="23" fill="#ADD1B2" rx="11" ry="11" style="stroke:#181818;stroke-width:1;"/><path d="M241.8813,28.6406 Q241.3032,28.9375 240.6626,29.0781 Q240.022,29.2344 239.3188,29.2344 Q236.8188,29.2344 235.4907,27.5938 Q234.1782,25.9375 234.1782,22.8125 Q234.1782,19.6875 235.4907,18.0313 Q236.8188,16.375 239.3188,16.375 Q240.022,16.375 240.6626,16.5313 Q241.3188,16.6875 241.8813,16.9844 L241.8813,19.7031 Q241.2563,19.125 240.6626,18.8594 Q240.0688,18.5781 239.4438,18.5781 Q238.1001,18.5781 237.4126,19.6563 Q236.7251,20.7188 236.7251,22.8125 Q236.7251,24.9063 237.4126,25.9844 Q238.1001,27.0469 239.4438,27.0469 Q240.0688,27.0469 240.6626,26.7813 Q241.2563,26.5 241.8813,25.9219 L241.8813,28.6406 Z " fill="#000000"/><text fill="#000000" font-family="sans-serif" font-size="14" lengthAdjust="spacing" textLength="40.5303" x="259.4126" y="27.8467">Client</text><line style="stroke:#181818;stroke-width:0.5;" x1="8" x2="518.8555" y1="39" y2="39"/><line style="stroke:#181818;stroke-width:0.5;" x1="8" x2="518.8555" y1="47" y2="47"/><ellipse cx="18" cy="60.6484" fill="#84BE84" rx="3" ry="3" style="stroke:#038048;stroke-width:1;"/><text fill="#000000" font-family="sans-serif" font-size="14" lengthAdjust="spacing" textLength="233.1123" x="27" y="63.9951">void ClientCode(Component leaf)</text><ellipse cx="18" cy="76.9453" fill="#84BE84" rx="3" ry="3" style="stroke:#038048;stroke-width:1;"/><text fill="#000000" font-family="sans-serif" font-size="14" lengthAdjust="spacing" textLength="486.8555" x="27" y="80.292">void ClientCode2(Component component1, Component component2)</text></g><!--reverse link Component to Leaf--><g id="link_Component_Leaf"><path codeLine="25" d="M210.376,292.4569 C191.476,317.4969 180.46,332.08 163.29,354.82 " fill="none" id="Component-backto-Leaf" style="stroke:#181818;stroke-width:1;"/><polygon fill="none" points="221.22,278.09,205.587,288.8422,215.1649,296.0716,221.22,278.09" style="stroke:#181818;stroke-width:1;"/></g><!--reverse link Component to Composite--><g id="link_Component_Composite"><path codeLine="26" d="M316.4815,292.4588 C331.0815,311.8088 336.6,319.11 351.21,338.46 " fill="none" id="Component-backto-Composite" style="stroke:#181818;stroke-width:1;"/><polygon fill="none" points="305.64,278.09,311.692,296.0726,321.2711,288.8449,305.64,278.09" style="stroke:#181818;stroke-width:1;"/></g><!--link Client to Component--><g id="link_Client_Component"><path codeLine="28" d="M263.43,87.73 C263.43,110.43 263.43,133.32 263.43,158.33 " fill="none" id="Client-to-Component" style="stroke:#181818;stroke-width:1;stroke-dasharray:7.0,7.0;"/><polygon fill="#181818" points="263.43,164.33,267.43,155.33,263.43,159.33,259.43,155.33,263.43,164.33" style="stroke:#181818;stroke-width:1;"/><text fill="#000000" font-family="sans-serif" font-size="13" lengthAdjust="spacing" textLength="29.7832" x="264.43" y="130.6569">uses</text></g><!--SRC=[lL312e905Bpx5U-eb48UGuJm50X1Fn3hxgiMrdtYRbwgVszHKmknMtjQvitCcpUiCBPct09Np1Z8gAn8exPmzy2z5RYnr1SuL5WpAqdxGJzeI0hO2U6F6lx-VN2EM5A3IxI2IC7Uj0mZBReTJy_h4kN8ph_3B3aCO6yJGYwDJOOyAPpuLIfHe_xBpMCm9QTDjy8EoqXCnSfr4CopuhaTcpNCe76xUXmaZp1iw_t6Xi8SkuiOHUd4SGitW-O5]--></g></svg>