<svg xmlns="http://www.w3.org/2000/svg" xmlns:xlink="http://www.w3.org/1999/xlink" contentStyleType="text/css" height="304px" preserveAspectRatio="none" style="width:538px;height:304px;background:#FFFFFF;" version="1.1" viewBox="0 0 538 304" width="538px" zoomAndPan="magnify"><defs/><g><!--class ITarget--><g id="elem_ITarget"><rect codeLine="1" fill="#F1F1F1" height="64.2969" id="ITarget" rx="2.5" ry="2.5" style="stroke:#181818;stroke-width:0.5;" width="164.0107" x="114.26" y="7"/><ellipse cx="167.0129" cy="23" fill="#B4A7E5" rx="11" ry="11" style="stroke:#181818;stroke-width:1;"/><path d="M162.9348,18.7656 L162.9348,16.6094 L170.3254,16.6094 L170.3254,18.7656 L167.8567,18.7656 L167.8567,26.8438 L170.3254,26.8438 L170.3254,29 L162.9348,29 L162.9348,26.8438 L165.4036,26.8438 L165.4036,18.7656 L162.9348,18.7656 Z " fill="#000000"/><text fill="#000000" font-family="sans-serif" font-size="14" font-style="italic" lengthAdjust="spacing" textLength="50.0049" x="187.5129" y="27.8467">ITarget</text><line style="stroke:#181818;stroke-width:0.5;" x1="115.26" x2="277.2707" y1="39" y2="39"/><line style="stroke:#181818;stroke-width:0.5;" x1="115.26" x2="277.2707" y1="47" y2="47"/><ellipse cx="125.26" cy="60.6484" fill="#84BE84" rx="3" ry="3" style="stroke:#038048;stroke-width:1;"/><text fill="#000000" font-family="sans-serif" font-size="14" lengthAdjust="spacing" textLength="138.0107" x="134.26" y="63.9951">string GetRequest()</text></g><!--class Adaptee--><g id="elem_Adaptee"><rect codeLine="5" fill="#F1F1F1" height="64.2969" id="Adaptee" rx="2.5" ry="2.5" style="stroke:#181818;stroke-width:0.5;" width="218.5" x="313.02" y="139.44"/><ellipse cx="388.6972" cy="155.44" fill="#ADD1B2" rx="11" ry="11" style="stroke:#181818;stroke-width:1;"/><path d="M391.666,161.0806 Q391.0879,161.3775 390.4472,161.5181 Q389.8066,161.6744 389.1035,161.6744 Q386.6035,161.6744 385.2754,160.0337 Q383.9629,158.3775 383.9629,155.2525 Q383.9629,152.1275 385.2754,150.4712 Q386.6035,148.815 389.1035,148.815 Q389.8066,148.815 390.4472,148.9712 Q391.1035,149.1275 391.666,149.4244 L391.666,152.1431 Q391.041,151.565 390.4472,151.2994 Q389.8535,151.0181 389.2285,151.0181 Q387.8847,151.0181 387.1972,152.0962 Q386.5097,153.1587 386.5097,155.2525 Q386.5097,157.3462 387.1972,158.4244 Q387.8847,159.4869 389.2285,159.4869 Q389.8535,159.4869 390.4472,159.2212 Q391.041,158.94 391.666,158.3619 L391.666,161.0806 Z " fill="#000000"/><text fill="#000000" font-family="sans-serif" font-size="14" lengthAdjust="spacing" textLength="58.6455" x="409.1972" y="160.2867">Adaptee</text><line style="stroke:#181818;stroke-width:0.5;" x1="314.02" x2="530.52" y1="171.44" y2="171.44"/><line style="stroke:#181818;stroke-width:0.5;" x1="314.02" x2="530.52" y1="179.44" y2="179.44"/><ellipse cx="324.02" cy="193.0884" fill="#84BE84" rx="3" ry="3" style="stroke:#038048;stroke-width:1;"/><text fill="#000000" font-family="sans-serif" font-size="14" lengthAdjust="spacing" textLength="192.5" x="333.02" y="196.4351">string GetSpecificRequest()</text></g><!--class Adapter--><g id="elem_Adapter"><rect codeLine="9" fill="#F1F1F1" height="80.5938" id="Adapter" rx="2.5" ry="2.5" style="stroke:#181818;stroke-width:0.5;" width="164.0107" x="114.26" y="131.29"/><ellipse cx="164.1213" cy="147.29" fill="#ADD1B2" rx="11" ry="11" style="stroke:#181818;stroke-width:1;"/><path d="M167.0901,152.9306 Q166.512,153.2275 165.8713,153.3681 Q165.2307,153.5244 164.5276,153.5244 Q162.0276,153.5244 160.6995,151.8838 Q159.387,150.2275 159.387,147.1025 Q159.387,143.9775 160.6995,142.3213 Q162.0276,140.665 164.5276,140.665 Q165.2307,140.665 165.8713,140.8213 Q166.5276,140.9775 167.0901,141.2744 L167.0901,143.9931 Q166.4651,143.415 165.8713,143.1494 Q165.2776,142.8681 164.6526,142.8681 Q163.3088,142.8681 162.6213,143.9463 Q161.9338,145.0088 161.9338,147.1025 Q161.9338,149.1963 162.6213,150.2744 Q163.3088,151.3369 164.6526,151.3369 Q165.2776,151.3369 165.8713,151.0713 Q166.4651,150.79 167.0901,150.2119 L167.0901,152.9306 Z " fill="#000000"/><text fill="#000000" font-family="sans-serif" font-size="14" lengthAdjust="spacing" textLength="55.7881" x="184.6213" y="152.1367">Adapter</text><line style="stroke:#181818;stroke-width:0.5;" x1="115.26" x2="277.2707" y1="163.29" y2="163.29"/><rect fill="none" height="6" style="stroke:#C82930;stroke-width:1;" width="6" x="122.26" y="173.9384"/><text fill="#000000" font-family="sans-serif" font-size="14" lengthAdjust="spacing" textLength="127.7432" x="134.26" y="180.2851">Adaptee _adaptee</text><line style="stroke:#181818;stroke-width:0.5;" x1="115.26" x2="277.2707" y1="187.5869" y2="187.5869"/><ellipse cx="125.26" cy="201.2353" fill="#84BE84" rx="3" ry="3" style="stroke:#038048;stroke-width:1;"/><text fill="#000000" font-family="sans-serif" font-size="14" lengthAdjust="spacing" textLength="138.0107" x="134.26" y="204.582">string GetRequest()</text></g><!--class Client--><g id="elem_Client"><rect codeLine="17" fill="#F1F1F1" height="48" id="Client" rx="2.5" ry="2.5" style="stroke:#181818;stroke-width:0.5;" width="72.5303" x="7" y="15.14"/><ellipse cx="22" cy="31.14" fill="#ADD1B2" rx="11" ry="11" style="stroke:#181818;stroke-width:1;"/><path d="M24.9688,36.7806 Q24.3906,37.0775 23.75,37.2181 Q23.1094,37.3744 22.4063,37.3744 Q19.9063,37.3744 18.5781,35.7337 Q17.2656,34.0775 17.2656,30.9525 Q17.2656,27.8275 18.5781,26.1712 Q19.9063,24.515 22.4063,24.515 Q23.1094,24.515 23.75,24.6712 Q24.4063,24.8275 24.9688,25.1244 L24.9688,27.8431 Q24.3438,27.265 23.75,26.9994 Q23.1563,26.7181 22.5313,26.7181 Q21.1875,26.7181 20.5,27.7962 Q19.8125,28.8587 19.8125,30.9525 Q19.8125,33.0462 20.5,34.1244 Q21.1875,35.1869 22.5313,35.1869 Q23.1563,35.1869 23.75,34.9212 Q24.3438,34.64 24.9688,34.0619 L24.9688,36.7806 Z " fill="#000000"/><text fill="#000000" font-family="sans-serif" font-size="14" lengthAdjust="spacing" textLength="40.5303" x="36" y="35.9867">Client</text><line style="stroke:#181818;stroke-width:0.5;" x1="8" x2="78.5303" y1="47.14" y2="47.14"/><line style="stroke:#181818;stroke-width:0.5;" x1="8" x2="78.5303" y1="55.14" y2="55.14"/></g><g id="elem_GMN9"><path d="M71.27,271.89 L71.27,297.0228 A0,0 0 0 0 71.27,297.0228 L321.268,297.0228 A0,0 0 0 0 321.268,297.0228 L321.268,281.89 L311.268,271.89 L200.27,271.89 L196.27,212.3 L192.27,271.89 L71.27,271.89 A0,0 0 0 0 71.27,271.89 " fill="#FEFFDD" style="stroke:#181818;stroke-width:0.5;"/><path d="M311.268,271.89 L311.268,281.89 L321.268,281.89 L311.268,271.89 " fill="#FEFFDD" style="stroke:#181818;stroke-width:0.5;"/><text fill="#000000" font-family="sans-serif" font-size="13" lengthAdjust="spacing" textLength="228.998" x="77.27" y="288.9569">GetRequest() call Adaptee function</text></g><!--reverse link ITarget to Adapter--><g id="link_ITarget_Adapter"><path codeLine="14" d="M196.27,89.72 C196.27,107.52 196.27,111.91 196.27,130.89 " fill="none" id="ITarget-backto-Adapter" style="stroke:#181818;stroke-width:1;"/><polygon fill="none" points="196.27,71.72,190.27,89.72,202.27,89.72,196.27,71.72" style="stroke:#181818;stroke-width:1;"/></g><!--link Adapter to Adaptee--><g id="link_Adapter_Adaptee"><path codeLine="15" d="M278.37,171.59 C289.8,171.59 295.23,171.59 306.66,171.59 " fill="none" id="Adapter-to-Adaptee" style="stroke:#181818;stroke-width:1;"/><polygon fill="#181818" points="312.66,171.59,303.66,167.59,307.66,171.59,303.66,175.59,312.66,171.59" style="stroke:#181818;stroke-width:1;"/></g><!--link Client to ITarget--><g id="link_Client_ITarget"><path codeLine="18" d="M80.02,39.14 C91.37,39.14 96.72,39.14 108.08,39.14 " fill="none" id="Client-to-ITarget" style="stroke:#181818;stroke-width:1;"/><polygon fill="#181818" points="114.08,39.14,105.08,35.14,109.08,39.14,105.08,43.14,114.08,39.14" style="stroke:#181818;stroke-width:1;"/></g><!--SRC=[TOyz3i8m38Ltdy8Z2EK620an85PWhqBg54l1AOax0NUdY3GII9tUuFVpcKKfUUi83sUREb9um0gp9fOEzwH7kW-KTR645xXWSyPjQtib-lETUdBisStvq-WtKnORMqhcfWhC-cbCBIYA9d5tLREf96Le5vX4uIiutgUFGA8INg9gl67qjV1d59qDeGBwGPno521fyHD_0m00]--></g></svg>