<svg xmlns="http://www.w3.org/2000/svg" xmlns:xlink="http://www.w3.org/1999/xlink" contentStyleType="text/css" data-diagram-type="CLASS" height="442px" preserveAspectRatio="none" style="width:793px;height:442px;background:#FFFFFF;" version="1.1" viewBox="0 0 793 442" width="793px" zoomAndPan="magnify"><defs/><g><!--class IObserver--><g id="elem_IObserver"><rect codeLine="1" fill="#F1F1F1" height="64.2969" id="IObserver" rx="2.5" ry="2.5" style="stroke:#181818;stroke-width:0.5;" width="199.2842" x="418.12" y="205.63"/><ellipse cx="479.3358" cy="221.63" fill="#B4A7E5" rx="11" ry="11" style="stroke:#181818;stroke-width:1;"/><path d="M475.2577,217.3956 L475.2577,215.2394 L482.6483,215.2394 L482.6483,217.3956 L480.1796,217.3956 L480.1796,225.4738 L482.6483,225.4738 L482.6483,227.63 L475.2577,227.63 L475.2577,225.4738 L477.7264,225.4738 L477.7264,217.3956 L475.2577,217.3956 Z " fill="#000000"/><text fill="#000000" font-family="sans-serif" font-size="14" font-style="italic" lengthAdjust="spacing" textLength="68.3525" x="499.8358" y="226.4767">IObserver</text><line style="stroke:#181818;stroke-width:0.5;" x1="419.12" x2="616.4042" y1="237.63" y2="237.63"/><line style="stroke:#181818;stroke-width:0.5;" x1="419.12" x2="616.4042" y1="245.63" y2="245.63"/><ellipse cx="429.12" cy="259.2784" fill="#84BE84" rx="3" ry="3" style="stroke:#038048;stroke-width:1;"/><text fill="#000000" font-family="sans-serif" font-size="14" lengthAdjust="spacing" textLength="173.2842" x="438.12" y="262.6251">Update(ISubject subject)</text></g><!--class ISubject--><g id="elem_ISubject"><rect codeLine="5" fill="#F1F1F1" height="96.8906" id="ISubject" rx="2.5" ry="2.5" style="stroke:#181818;stroke-width:0.5;" width="221.5283" x="7" y="7"/><ellipse cx="85.2817" cy="23" fill="#B4A7E5" rx="11" ry="11" style="stroke:#181818;stroke-width:1;"/><path d="M81.2036,18.7656 L81.2036,16.6094 L88.5942,16.6094 L88.5942,18.7656 L86.1255,18.7656 L86.1255,26.8438 L88.5942,26.8438 L88.5942,29 L81.2036,29 L81.2036,26.8438 L83.6724,26.8438 L83.6724,18.7656 L81.2036,18.7656 Z " fill="#000000"/><text fill="#000000" font-family="sans-serif" font-size="14" font-style="italic" lengthAdjust="spacing" textLength="56.4648" x="105.7817" y="27.8467">ISubject</text><line style="stroke:#181818;stroke-width:0.5;" x1="8" x2="227.5283" y1="39" y2="39"/><line style="stroke:#181818;stroke-width:0.5;" x1="8" x2="227.5283" y1="47" y2="47"/><ellipse cx="18" cy="60.6484" fill="#84BE84" rx="3" ry="3" style="stroke:#038048;stroke-width:1;"/><text fill="#000000" font-family="sans-serif" font-size="14" lengthAdjust="spacing" textLength="191.2012" x="27" y="63.9951">Attach(IObserver observer)</text><ellipse cx="18" cy="76.9453" fill="#84BE84" rx="3" ry="3" style="stroke:#038048;stroke-width:1;"/><text fill="#000000" font-family="sans-serif" font-size="14" lengthAdjust="spacing" textLength="195.5283" x="27" y="80.292">Detach(IObserver observer)</text><ellipse cx="18" cy="93.2422" fill="#84BE84" rx="3" ry="3" style="stroke:#038048;stroke-width:1;"/><text fill="#000000" font-family="sans-serif" font-size="14" lengthAdjust="spacing" textLength="52.5547" x="27" y="96.5889">Notify()</text></g><!--class Subject--><g id="elem_Subject"><rect codeLine="11" fill="#F1F1F1" height="145.7813" id="Subject" rx="2.5" ry="2.5" style="stroke:#181818;stroke-width:0.5;" width="222.7998" x="98.36" y="164.89"/><ellipse cx="179.3419" cy="180.89" fill="#ADD1B2" rx="11" ry="11" style="stroke:#181818;stroke-width:1;"/><path d="M182.3107,186.5306 Q181.7326,186.8275 181.0919,186.9681 Q180.4513,187.1244 179.7482,187.1244 Q177.2482,187.1244 175.9201,185.4838 Q174.6076,183.8275 174.6076,180.7025 Q174.6076,177.5775 175.9201,175.9213 Q177.2482,174.265 179.7482,174.265 Q180.4513,174.265 181.0919,174.4213 Q181.7482,174.5775 182.3107,174.8744 L182.3107,177.5931 Q181.6857,177.015 181.0919,176.7494 Q180.4982,176.4681 179.8732,176.4681 Q178.5294,176.4681 177.8419,177.5463 Q177.1544,178.6088 177.1544,180.7025 Q177.1544,182.7963 177.8419,183.8744 Q178.5294,184.9369 179.8732,184.9369 Q180.4982,184.9369 181.0919,184.6713 Q181.6857,184.39 182.3107,183.8119 L182.3107,186.5306 Z " fill="#000000"/><text fill="#000000" font-family="sans-serif" font-size="14" lengthAdjust="spacing" textLength="52.3359" x="199.8419" y="185.7367">Subject</text><line style="stroke:#181818;stroke-width:0.5;" x1="99.36" x2="320.1598" y1="196.89" y2="196.89"/><rect fill="#FFFFFF" fill-opacity="0.00000" height="6" style="stroke:#C82930;stroke-width:1;" width="6" x="106.36" y="207.5384"/><text fill="#000000" font-family="sans-serif" font-size="14" lengthAdjust="spacing" textLength="59.7598" x="118.36" y="213.8851">int State</text><rect fill="#FFFFFF" fill-opacity="0.00000" height="6" style="stroke:#C82930;stroke-width:1;" width="6" x="106.36" y="223.8353"/><text fill="#000000" font-family="sans-serif" font-size="14" lengthAdjust="spacing" textLength="196.7998" x="118.36" y="230.182">List&lt;IObserver&gt; _observers</text><line style="stroke:#181818;stroke-width:0.5;" x1="99.36" x2="320.1598" y1="237.4838" y2="237.4838"/><ellipse cx="109.36" cy="251.1322" fill="#84BE84" rx="3" ry="3" style="stroke:#038048;stroke-width:1;"/><text fill="#000000" font-family="sans-serif" font-size="14" lengthAdjust="spacing" textLength="191.2012" x="118.36" y="254.4789">Attach(IObserver observer)</text><ellipse cx="109.36" cy="267.4291" fill="#84BE84" rx="3" ry="3" style="stroke:#038048;stroke-width:1;"/><text fill="#000000" font-family="sans-serif" font-size="14" lengthAdjust="spacing" textLength="195.5283" x="118.36" y="270.7757">Detach(IObserver observer)</text><ellipse cx="109.36" cy="283.7259" fill="#84BE84" rx="3" ry="3" style="stroke:#038048;stroke-width:1;"/><text fill="#000000" font-family="sans-serif" font-size="14" lengthAdjust="spacing" textLength="52.5547" x="118.36" y="287.0726">Notify()</text><ellipse cx="109.36" cy="300.0228" fill="#84BE84" rx="3" ry="3" style="stroke:#038048;stroke-width:1;"/><text fill="#000000" font-family="sans-serif" font-size="14" lengthAdjust="spacing" textLength="149.2012" x="118.36" y="303.3695">SomeBusinessLogic()</text></g><!--class ConcreteObserverA--><g id="elem_ConcreteObserverA"><rect codeLine="20" fill="#F1F1F1" height="64.2969" id="ConcreteObserverA" rx="2.5" ry="2.5" style="stroke:#181818;stroke-width:0.5;" width="199.2842" x="587.12" y="371.67"/><ellipse cx="615.6653" cy="387.67" fill="#ADD1B2" rx="11" ry="11" style="stroke:#181818;stroke-width:1;"/><path d="M618.634,393.3106 Q618.0559,393.6075 617.4153,393.7481 Q616.7746,393.9044 616.0715,393.9044 Q613.5715,393.9044 612.2434,392.2638 Q610.9309,390.6075 610.9309,387.4825 Q610.9309,384.3575 612.2434,382.7013 Q613.5715,381.045 616.0715,381.045 Q616.7746,381.045 617.4153,381.2013 Q618.0715,381.3575 618.634,381.6544 L618.634,384.3731 Q618.009,383.795 617.4153,383.5294 Q616.8215,383.2481 616.1965,383.2481 Q614.8528,383.2481 614.1653,384.3263 Q613.4778,385.3888 613.4778,387.4825 Q613.4778,389.5763 614.1653,390.6544 Q614.8528,391.7169 616.1965,391.7169 Q616.8215,391.7169 617.4153,391.4513 Q618.009,391.17 618.634,390.5919 L618.634,393.3106 Z " fill="#000000"/><text fill="#000000" font-family="sans-serif" font-size="14" lengthAdjust="spacing" textLength="137.1836" x="632.6753" y="392.5167">ConcreteObserverA</text><line style="stroke:#181818;stroke-width:0.5;" x1="588.12" x2="785.4042" y1="403.67" y2="403.67"/><line style="stroke:#181818;stroke-width:0.5;" x1="588.12" x2="785.4042" y1="411.67" y2="411.67"/><ellipse cx="598.12" cy="425.3184" fill="#84BE84" rx="3" ry="3" style="stroke:#038048;stroke-width:1;"/><text fill="#000000" font-family="sans-serif" font-size="14" lengthAdjust="spacing" textLength="173.2842" x="607.12" y="428.6651">Update(ISubject subject)</text></g><!--class ConcreteObserverB--><g id="elem_ConcreteObserverB"><rect codeLine="24" fill="#F1F1F1" height="64.2969" id="ConcreteObserverB" rx="2.5" ry="2.5" style="stroke:#181818;stroke-width:0.5;" width="199.2842" x="353.12" y="371.67"/><ellipse cx="381.653" cy="387.67" fill="#ADD1B2" rx="11" ry="11" style="stroke:#181818;stroke-width:1;"/><path d="M384.6217,393.3106 Q384.0436,393.6075 383.403,393.7481 Q382.7623,393.9044 382.0592,393.9044 Q379.5592,393.9044 378.2311,392.2638 Q376.9186,390.6075 376.9186,387.4825 Q376.9186,384.3575 378.2311,382.7013 Q379.5592,381.045 382.0592,381.045 Q382.7623,381.045 383.403,381.2013 Q384.0592,381.3575 384.6217,381.6544 L384.6217,384.3731 Q383.9967,383.795 383.403,383.5294 Q382.8092,383.2481 382.1842,383.2481 Q380.8405,383.2481 380.153,384.3263 Q379.4655,385.3888 379.4655,387.4825 Q379.4655,389.5763 380.153,390.6544 Q380.8405,391.7169 382.1842,391.7169 Q382.8092,391.7169 383.403,391.4513 Q383.9967,391.17 384.6217,390.5919 L384.6217,393.3106 Z " fill="#000000"/><text fill="#000000" font-family="sans-serif" font-size="14" lengthAdjust="spacing" textLength="137.2109" x="398.6603" y="392.5167">ConcreteObserverB</text><line style="stroke:#181818;stroke-width:0.5;" x1="354.12" x2="551.4042" y1="403.67" y2="403.67"/><line style="stroke:#181818;stroke-width:0.5;" x1="354.12" x2="551.4042" y1="411.67" y2="411.67"/><ellipse cx="364.12" cy="425.3184" fill="#84BE84" rx="3" ry="3" style="stroke:#038048;stroke-width:1;"/><text fill="#000000" font-family="sans-serif" font-size="14" lengthAdjust="spacing" textLength="173.2842" x="373.12" y="428.6651">Update(ISubject subject)</text></g><!--class Program--><g id="elem_Program"><rect codeLine="28" fill="#F1F1F1" height="64.2969" id="Program" rx="2.5" ry="2.5" style="stroke:#181818;stroke-width:0.5;" width="156.4229" x="131.55" y="371.67"/><ellipse cx="175.7099" cy="387.67" fill="#ADD1B2" rx="11" ry="11" style="stroke:#181818;stroke-width:1;"/><path d="M178.6787,393.3106 Q178.1005,393.6075 177.4599,393.7481 Q176.8193,393.9044 176.1162,393.9044 Q173.6162,393.9044 172.288,392.2638 Q170.9755,390.6075 170.9755,387.4825 Q170.9755,384.3575 172.288,382.7013 Q173.6162,381.045 176.1162,381.045 Q176.8193,381.045 177.4599,381.2013 Q178.1162,381.3575 178.6787,381.6544 L178.6787,384.3731 Q178.0537,383.795 177.4599,383.5294 Q176.8662,383.2481 176.2412,383.2481 Q174.8974,383.2481 174.2099,384.3263 Q173.5224,385.3888 173.5224,387.4825 Q173.5224,389.5763 174.2099,390.6544 Q174.8974,391.7169 176.2412,391.7169 Q176.8662,391.7169 177.4599,391.4513 Q178.0537,391.17 178.6787,390.5919 L178.6787,393.3106 Z " fill="#000000"/><text fill="#000000" font-family="sans-serif" font-size="14" lengthAdjust="spacing" textLength="59.623" x="196.1899" y="392.5167">Program</text><line style="stroke:#181818;stroke-width:0.5;" x1="132.55" x2="286.9729" y1="403.67" y2="403.67"/><line style="stroke:#181818;stroke-width:0.5;" x1="132.55" x2="286.9729" y1="411.67" y2="411.67"/><ellipse cx="142.55" cy="425.3184" fill="#84BE84" rx="3" ry="3" style="stroke:#038048;stroke-width:1;"/><text fill="#000000" font-family="sans-serif" font-size="14" lengthAdjust="spacing" textLength="130.4229" x="151.55" y="428.6651">Main(string[] args)</text></g><g id="elem_GMN16"><path d="M453.08,42.88 L453.08,68.0128 A0,0 0 0 0 453.08,68.0128 L529.65,68.0128 L520.72,205.43 L537.65,68.0128 L616.4516,68.0128 A0,0 0 0 0 616.4516,68.0128 L616.4516,52.88 L606.4516,42.88 L453.08,42.88 A0,0 0 0 0 453.08,42.88 " fill="#FEFFDD" style="stroke:#181818;stroke-width:0.5;"/><path d="M606.4516,42.88 L606.4516,52.88 L616.4516,52.88 L606.4516,42.88 " fill="#FEFFDD" style="stroke:#181818;stroke-width:0.5;"/><text fill="#000000" font-family="sans-serif" font-size="13" lengthAdjust="spacing" textLength="142.3716" x="459.08" y="59.9469">also called Subscriber</text></g><g id="elem_GMN19"><path d="M263.73,42.88 L263.73,51.45 L228.83,55.45 L263.73,59.45 L263.73,68.0128 A0,0 0 0 0 263.73,68.0128 L417.7959,68.0128 A0,0 0 0 0 417.7959,68.0128 L417.7959,52.88 L407.7959,42.88 L263.73,42.88 A0,0 0 0 0 263.73,42.88 " fill="#FEFFDD" style="stroke:#181818;stroke-width:0.5;"/><path d="M407.7959,42.88 L407.7959,52.88 L417.7959,52.88 L407.7959,42.88 " fill="#FEFFDD" style="stroke:#181818;stroke-width:0.5;"/><text fill="#000000" font-family="sans-serif" font-size="13" lengthAdjust="spacing" textLength="133.0659" x="269.73" y="59.9469">also called Publisher</text></g><!--reverse link ISubject to Subject--><g id="link_ISubject_Subject"><path d="M150.3581,120.3349 C159.7781,138.8049 162.58,144.3 172.93,164.57 " fill="#FFFFFF" fill-opacity="0.00000" id="ISubject-backto-Subject" style="stroke:#181818;stroke-width:1;stroke-dasharray:7.0,7.0;"/><polygon fill="#FFFFFF" fill-opacity="0.00000" points="142.18,104.3,145.0131,123.061,155.7031,117.6089,142.18,104.3" style="stroke:#181818;stroke-width:1;"/></g><!--reverse link IObserver to ConcreteObserverA--><g id="link_IObserver_ConcreteObserverA"><path d="M563.2664,282.9466 C593.1964,311.9966 624.38,342.27 654.28,371.29 " fill="#FFFFFF" fill-opacity="0.00000" id="IObserver-backto-ConcreteObserverA" style="stroke:#181818;stroke-width:1;stroke-dasharray:7.0,7.0;"/><polygon fill="#FFFFFF" fill-opacity="0.00000" points="550.35,270.41,559.0875,287.2521,567.4453,278.6412,550.35,270.41" style="stroke:#181818;stroke-width:1;"/></g><!--reverse link IObserver to ConcreteObserverB--><g id="link_IObserver_ConcreteObserverB"><path d="M498.5996,287.1443 C487.0896,316.1943 476.76,342.27 465.26,371.29 " fill="#FFFFFF" fill-opacity="0.00000" id="IObserver-backto-ConcreteObserverB" style="stroke:#181818;stroke-width:1;stroke-dasharray:7.0,7.0;"/><polygon fill="#FFFFFF" fill-opacity="0.00000" points="505.23,270.41,493.0215,284.9342,504.1777,289.3545,505.23,270.41" style="stroke:#181818;stroke-width:1;"/></g><!--link Subject to IObserver--><g id="link_Subject_IObserver"><path codeLine="32" d="M321.65,237.78 C353.7,237.78 379.75,237.78 411.79,237.78 " fill="#FFFFFF" fill-opacity="0.00000" id="Subject-to-IObserver" style="stroke:#181818;stroke-width:1;stroke-dasharray:7.0,7.0;"/><polygon fill="#181818" points="417.79,237.78,408.79,233.78,412.79,237.78,408.79,241.78,417.79,237.78" style="stroke:#181818;stroke-width:1;"/></g><!--reverse link Subject to Program--><g id="link_Subject_Program"><path codeLine="33" d="M209.76,316.73 C209.76,337.91 209.76,354 209.76,371.23 " fill="#FFFFFF" fill-opacity="0.00000" id="Subject-backto-Program" style="stroke:#181818;stroke-width:1;stroke-dasharray:7.0,7.0;"/><polygon fill="#181818" points="209.76,310.73,205.76,319.73,209.76,315.73,213.76,319.73,209.76,310.73" style="stroke:#181818;stroke-width:1;"/></g><!--link Program to ConcreteObserverA--><g id="link_Program_ConcreteObserverA"><path codeLine="34" d="M269.38,371.23 C294.49,359.26 324.53,347.17 353.26,341.17 C439.84,323.1 465.91,322.05 552.26,341.17 C579.43,347.19 602.2631,356.5577 625.7731,368.5277 " fill="#FFFFFF" fill-opacity="0.00000" id="Program-to-ConcreteObserverA" style="stroke:#181818;stroke-width:1;stroke-dasharray:7.0,7.0;"/><polygon fill="#181818" points="631.12,371.25,624.9146,363.6019,626.6643,368.9814,621.2848,370.7311,631.12,371.25" style="stroke:#181818;stroke-width:1;"/></g><!--link Program to ConcreteObserverB--><g id="link_Program_ConcreteObserverB"><path codeLine="35" d="M288.32,403.82 C308.85,403.82 325.24,403.82 346.72,403.82 " fill="#FFFFFF" fill-opacity="0.00000" id="Program-to-ConcreteObserverB" style="stroke:#181818;stroke-width:1;stroke-dasharray:7.0,7.0;"/><polygon fill="#181818" points="352.72,403.82,343.72,399.82,347.72,403.82,343.72,407.82,352.72,403.82" style="stroke:#181818;stroke-width:1;"/><text fill="#000000" font-family="sans-serif" font-size="13" lengthAdjust="spacing" textLength="29.7832" x="306.05" y="396.8869">uses</text></g><!--SRC=[hP1HIyCm4CVVyodkiKFS1n0PhFeoc3eeFeb8cbwxapGfkQiWudUtwvgrKs78p4job__l_x-4d60ejK5OFUICuGq3V2ZerWKyDeKMJ5PPcx-Y4U3zFbEVIj78nUk8BKMqsIQZdnyEiq5mYoS4zrweV4_w86CrCyGCgXkBDJhXxxcNq8q4cNGJ3_MQMAuF8GjuYJ7y_uFkoypNcBPC3fdNlY8pVSADToQWO3HR7ZtcJv__ks5whk4c-2he-a3SQN89Io1NFJs33XNtucWm3rHjPRuOirHqcBTDru_2iHs9dtznMfF25RICh9JpWY2-0LzEihLb3qPRYyKkcKsWl6kZAs0739Z5Kdfk6Eu8sxIv9TvEg2y0]--></g></svg>