<svg xmlns="http://www.w3.org/2000/svg" xmlns:xlink="http://www.w3.org/1999/xlink" contentStyleType="text/css" data-diagram-type="CLASS" height="516px" preserveAspectRatio="none" style="width:1460px;height:516px;background:#FFFFFF;" version="1.1" viewBox="0 0 1460 516" width="1460px" zoomAndPan="magnify"><defs/><g><!--class IAbstractFactory--><g id="elem_IAbstractFactory"><rect codeLine="1" fill="#F1F1F1" height="80.5938" id="IAbstractFactory" rx="2.5" ry="2.5" style="stroke:#181818;stroke-width:0.5;" width="282.4434" x="428.79" y="147.6"/><ellipse cx="508.1005" cy="163.6" fill="#B4A7E5" rx="11" ry="11" style="stroke:#181818;stroke-width:1;"/><path d="M504.0224,159.3656 L504.0224,157.2094 L511.413,157.2094 L511.413,159.3656 L508.9443,159.3656 L508.9443,167.4438 L511.413,167.4438 L511.413,169.6 L504.0224,169.6 L504.0224,167.4438 L506.4912,167.4438 L506.4912,159.3656 L504.0224,159.3656 Z " fill="#000000"/><text fill="#000000" font-family="sans-serif" font-size="14" font-style="italic" lengthAdjust="spacing" textLength="115.3223" x="528.6005" y="168.4467">IAbstractFactory</text><line style="stroke:#181818;stroke-width:0.5;" x1="429.79" x2="710.2334" y1="179.6" y2="179.6"/><line style="stroke:#181818;stroke-width:0.5;" x1="429.79" x2="710.2334" y1="187.6" y2="187.6"/><ellipse cx="439.79" cy="201.2484" fill="#84BE84" rx="3" ry="3" style="stroke:#038048;stroke-width:1;"/><text fill="#000000" font-family="sans-serif" font-size="14" lengthAdjust="spacing" textLength="256.3887" x="448.79" y="204.5951">CreateProductA(): IAbstractProductA</text><ellipse cx="439.79" cy="217.5453" fill="#84BE84" rx="3" ry="3" style="stroke:#038048;stroke-width:1;"/><text fill="#000000" font-family="sans-serif" font-size="14" lengthAdjust="spacing" textLength="256.4434" x="448.79" y="220.892">CreateProductB(): IAbstractProductB</text></g><!--class IAbstractProductA--><g id="elem_IAbstractProductA"><rect codeLine="6" fill="#F1F1F1" height="64.2969" id="IAbstractProductA" rx="2.5" ry="2.5" style="stroke:#181818;stroke-width:0.5;" width="200.0156" x="60" y="296.34"/><ellipse cx="93.824" cy="312.34" fill="#B4A7E5" rx="11" ry="11" style="stroke:#181818;stroke-width:1;"/><path d="M89.7458,308.1056 L89.7458,305.9494 L97.1365,305.9494 L97.1365,308.1056 L94.6677,308.1056 L94.6677,316.1838 L97.1365,316.1838 L97.1365,318.34 L89.7458,318.34 L89.7458,316.1838 L92.2146,316.1838 L92.2146,308.1056 L89.7458,308.1056 Z " fill="#000000"/><text fill="#000000" font-family="sans-serif" font-size="14" font-style="italic" lengthAdjust="spacing" textLength="126.1846" x="112.0071" y="317.1867">IAbstractProductA</text><line style="stroke:#181818;stroke-width:0.5;" x1="61" x2="259.0156" y1="328.34" y2="328.34"/><line style="stroke:#181818;stroke-width:0.5;" x1="61" x2="259.0156" y1="336.34" y2="336.34"/><ellipse cx="71" cy="349.9884" fill="#84BE84" rx="3" ry="3" style="stroke:#038048;stroke-width:1;"/><text fill="#000000" font-family="sans-serif" font-size="14" lengthAdjust="spacing" textLength="174.0156" x="80" y="353.3351">UsefulFunctionA(): string</text></g><!--class IAbstractProductB--><g id="elem_IAbstractProductB"><rect codeLine="10" fill="#F1F1F1" height="80.5938" id="IAbstractProductB" rx="2.5" ry="2.5" style="stroke:#181818;stroke-width:0.5;" width="470.6436" x="929.69" y="288.19"/><ellipse cx="1097.6558" cy="304.19" fill="#B4A7E5" rx="11" ry="11" style="stroke:#181818;stroke-width:1;"/><path d="M1093.5777,299.9556 L1093.5777,297.7994 L1100.9683,297.7994 L1100.9683,299.9556 L1098.4996,299.9556 L1098.4996,308.0338 L1100.9683,308.0338 L1100.9683,310.19 L1093.5777,310.19 L1093.5777,308.0338 L1096.0464,308.0338 L1096.0464,299.9556 L1093.5777,299.9556 Z " fill="#000000"/><text fill="#000000" font-family="sans-serif" font-size="14" font-style="italic" lengthAdjust="spacing" textLength="126.2119" x="1118.1558" y="309.0367">IAbstractProductB</text><line style="stroke:#181818;stroke-width:0.5;" x1="930.69" x2="1399.3336" y1="320.19" y2="320.19"/><line style="stroke:#181818;stroke-width:0.5;" x1="930.69" x2="1399.3336" y1="328.19" y2="328.19"/><ellipse cx="940.69" cy="341.8384" fill="#84BE84" rx="3" ry="3" style="stroke:#038048;stroke-width:1;"/><text fill="#000000" font-family="sans-serif" font-size="14" lengthAdjust="spacing" textLength="174.043" x="949.69" y="345.1851">UsefulFunctionB(): string</text><ellipse cx="940.69" cy="358.1353" fill="#84BE84" rx="3" ry="3" style="stroke:#038048;stroke-width:1;"/><text fill="#000000" font-family="sans-serif" font-size="14" lengthAdjust="spacing" textLength="444.6436" x="949.69" y="361.482">AnotherUsefulFunctionB(IAbstractProductA collaborator): string</text></g><!--class ConcreteFactory1--><g id="elem_ConcreteFactory1"><rect codeLine="15" fill="#F1F1F1" height="80.5938" id="ConcreteFactory1" rx="2.5" ry="2.5" style="stroke:#181818;stroke-width:0.5;" width="282.4434" x="294.79" y="288.19"/><ellipse cx="369.4043" cy="304.19" fill="#ADD1B2" rx="11" ry="11" style="stroke:#181818;stroke-width:1;"/><path d="M372.373,309.8306 Q371.7949,310.1275 371.1543,310.2681 Q370.5136,310.4244 369.8105,310.4244 Q367.3105,310.4244 365.9824,308.7838 Q364.6699,307.1275 364.6699,304.0025 Q364.6699,300.8775 365.9824,299.2213 Q367.3105,297.565 369.8105,297.565 Q370.5136,297.565 371.1543,297.7213 Q371.8105,297.8775 372.373,298.1744 L372.373,300.8931 Q371.748,300.315 371.1543,300.0494 Q370.5605,299.7681 369.9355,299.7681 Q368.5918,299.7681 367.9043,300.8463 Q367.2168,301.9088 367.2168,304.0025 Q367.2168,306.0963 367.9043,307.1744 Q368.5918,308.2369 369.9355,308.2369 Q370.5605,308.2369 371.1543,307.9713 Q371.748,307.69 372.373,307.1119 L372.373,309.8306 Z " fill="#000000"/><text fill="#000000" font-family="sans-serif" font-size="14" lengthAdjust="spacing" textLength="124.7148" x="389.9043" y="309.0367">ConcreteFactory1</text><line style="stroke:#181818;stroke-width:0.5;" x1="295.79" x2="576.2334" y1="320.19" y2="320.19"/><line style="stroke:#181818;stroke-width:0.5;" x1="295.79" x2="576.2334" y1="328.19" y2="328.19"/><ellipse cx="305.79" cy="341.8384" fill="#84BE84" rx="3" ry="3" style="stroke:#038048;stroke-width:1;"/><text fill="#000000" font-family="sans-serif" font-size="14" lengthAdjust="spacing" textLength="256.3887" x="314.79" y="345.1851">CreateProductA(): IAbstractProductA</text><ellipse cx="305.79" cy="358.1353" fill="#84BE84" rx="3" ry="3" style="stroke:#038048;stroke-width:1;"/><text fill="#000000" font-family="sans-serif" font-size="14" lengthAdjust="spacing" textLength="256.4434" x="314.79" y="361.482">CreateProductB(): IAbstractProductB</text></g><!--class ConcreteFactory2--><g id="elem_ConcreteFactory2"><rect codeLine="20" fill="#F1F1F1" height="80.5938" id="ConcreteFactory2" rx="2.5" ry="2.5" style="stroke:#181818;stroke-width:0.5;" width="282.4434" x="611.79" y="288.19"/><ellipse cx="686.4043" cy="304.19" fill="#ADD1B2" rx="11" ry="11" style="stroke:#181818;stroke-width:1;"/><path d="M689.373,309.8306 Q688.7949,310.1275 688.1543,310.2681 Q687.5136,310.4244 686.8105,310.4244 Q684.3105,310.4244 682.9824,308.7838 Q681.6699,307.1275 681.6699,304.0025 Q681.6699,300.8775 682.9824,299.2213 Q684.3105,297.565 686.8105,297.565 Q687.5136,297.565 688.1543,297.7213 Q688.8105,297.8775 689.373,298.1744 L689.373,300.8931 Q688.748,300.315 688.1543,300.0494 Q687.5605,299.7681 686.9355,299.7681 Q685.5918,299.7681 684.9043,300.8463 Q684.2168,301.9088 684.2168,304.0025 Q684.2168,306.0963 684.9043,307.1744 Q685.5918,308.2369 686.9355,308.2369 Q687.5605,308.2369 688.1543,307.9713 Q688.748,307.69 689.373,307.1119 L689.373,309.8306 Z " fill="#000000"/><text fill="#000000" font-family="sans-serif" font-size="14" lengthAdjust="spacing" textLength="124.7148" x="706.9043" y="309.0367">ConcreteFactory2</text><line style="stroke:#181818;stroke-width:0.5;" x1="612.79" x2="893.2334" y1="320.19" y2="320.19"/><line style="stroke:#181818;stroke-width:0.5;" x1="612.79" x2="893.2334" y1="328.19" y2="328.19"/><ellipse cx="622.79" cy="341.8384" fill="#84BE84" rx="3" ry="3" style="stroke:#038048;stroke-width:1;"/><text fill="#000000" font-family="sans-serif" font-size="14" lengthAdjust="spacing" textLength="256.3887" x="631.79" y="345.1851">CreateProductA(): IAbstractProductA</text><ellipse cx="622.79" cy="358.1353" fill="#84BE84" rx="3" ry="3" style="stroke:#038048;stroke-width:1;"/><text fill="#000000" font-family="sans-serif" font-size="14" lengthAdjust="spacing" textLength="256.4434" x="631.79" y="361.482">CreateProductB(): IAbstractProductB</text></g><!--class ConcreteProductA1--><g id="elem_ConcreteProductA1"><rect codeLine="25" fill="#F1F1F1" height="64.2969" id="ConcreteProductA1" rx="2.5" ry="2.5" style="stroke:#181818;stroke-width:0.5;" width="200.0156" x="7" y="436.93"/><ellipse cx="36.5973" cy="452.93" fill="#ADD1B2" rx="11" ry="11" style="stroke:#181818;stroke-width:1;"/><path d="M39.5661,458.5706 Q38.9879,458.8675 38.3473,459.0081 Q37.7067,459.1644 37.0036,459.1644 Q34.5036,459.1644 33.1754,457.5238 Q31.8629,455.8675 31.8629,452.7425 Q31.8629,449.6175 33.1754,447.9613 Q34.5036,446.305 37.0036,446.305 Q37.7067,446.305 38.3473,446.4613 Q39.0036,446.6175 39.5661,446.9144 L39.5661,449.6331 Q38.9411,449.055 38.3473,448.7894 Q37.7536,448.5081 37.1286,448.5081 Q35.7848,448.5081 35.0973,449.5863 Q34.4098,450.6488 34.4098,452.7425 Q34.4098,454.8363 35.0973,455.9144 Q35.7848,456.9769 37.1286,456.9769 Q37.7536,456.9769 38.3473,456.7113 Q38.9411,456.43 39.5661,455.8519 L39.5661,458.5706 Z " fill="#000000"/><text fill="#000000" font-family="sans-serif" font-size="14" lengthAdjust="spacing" textLength="135.5771" x="53.8412" y="457.7767">ConcreteProductA1</text><line style="stroke:#181818;stroke-width:0.5;" x1="8" x2="206.0156" y1="468.93" y2="468.93"/><line style="stroke:#181818;stroke-width:0.5;" x1="8" x2="206.0156" y1="476.93" y2="476.93"/><ellipse cx="18" cy="490.5784" fill="#84BE84" rx="3" ry="3" style="stroke:#038048;stroke-width:1;"/><text fill="#000000" font-family="sans-serif" font-size="14" lengthAdjust="spacing" textLength="174.0156" x="27" y="493.9251">UsefulFunctionA(): string</text></g><!--class ConcreteProductA2--><g id="elem_ConcreteProductA2"><rect codeLine="29" fill="#F1F1F1" height="64.2969" id="ConcreteProductA2" rx="2.5" ry="2.5" style="stroke:#181818;stroke-width:0.5;" width="200.0156" x="242" y="436.93"/><ellipse cx="271.5973" cy="452.93" fill="#ADD1B2" rx="11" ry="11" style="stroke:#181818;stroke-width:1;"/><path d="M274.5661,458.5706 Q273.9879,458.8675 273.3473,459.0081 Q272.7067,459.1644 272.0036,459.1644 Q269.5036,459.1644 268.1754,457.5238 Q266.8629,455.8675 266.8629,452.7425 Q266.8629,449.6175 268.1754,447.9613 Q269.5036,446.305 272.0036,446.305 Q272.7067,446.305 273.3473,446.4613 Q274.0036,446.6175 274.5661,446.9144 L274.5661,449.6331 Q273.9411,449.055 273.3473,448.7894 Q272.7536,448.5081 272.1286,448.5081 Q270.7848,448.5081 270.0973,449.5863 Q269.4098,450.6488 269.4098,452.7425 Q269.4098,454.8363 270.0973,455.9144 Q270.7848,456.9769 272.1286,456.9769 Q272.7536,456.9769 273.3473,456.7113 Q273.9411,456.43 274.5661,455.8519 L274.5661,458.5706 Z " fill="#000000"/><text fill="#000000" font-family="sans-serif" font-size="14" lengthAdjust="spacing" textLength="135.5771" x="288.8412" y="457.7767">ConcreteProductA2</text><line style="stroke:#181818;stroke-width:0.5;" x1="243" x2="441.0156" y1="468.93" y2="468.93"/><line style="stroke:#181818;stroke-width:0.5;" x1="243" x2="441.0156" y1="476.93" y2="476.93"/><ellipse cx="253" cy="490.5784" fill="#84BE84" rx="3" ry="3" style="stroke:#038048;stroke-width:1;"/><text fill="#000000" font-family="sans-serif" font-size="14" lengthAdjust="spacing" textLength="174.0156" x="262" y="493.9251">UsefulFunctionA(): string</text></g><!--class ConcreteProductB1--><g id="elem_ConcreteProductB1"><rect codeLine="33" fill="#F1F1F1" height="80.5938" id="ConcreteProductB1" rx="2.5" ry="2.5" style="stroke:#181818;stroke-width:0.5;" width="470.6436" x="476.69" y="428.79"/><ellipse cx="639.9595" cy="444.79" fill="#ADD1B2" rx="11" ry="11" style="stroke:#181818;stroke-width:1;"/><path d="M642.9283,450.4306 Q642.3502,450.7275 641.7095,450.8681 Q641.0689,451.0244 640.3658,451.0244 Q637.8658,451.0244 636.5377,449.3837 Q635.2252,447.7275 635.2252,444.6025 Q635.2252,441.4775 636.5377,439.8212 Q637.8658,438.165 640.3658,438.165 Q641.0689,438.165 641.7095,438.3212 Q642.3658,438.4775 642.9283,438.7744 L642.9283,441.4931 Q642.3033,440.915 641.7095,440.6494 Q641.1158,440.3681 640.4908,440.3681 Q639.147,440.3681 638.4595,441.4462 Q637.772,442.5087 637.772,444.6025 Q637.772,446.6962 638.4595,447.7744 Q639.147,448.8369 640.4908,448.8369 Q641.1158,448.8369 641.7095,448.5712 Q642.3033,448.29 642.9283,447.7119 L642.9283,450.4306 Z " fill="#000000"/><text fill="#000000" font-family="sans-serif" font-size="14" lengthAdjust="spacing" textLength="135.6045" x="660.4595" y="449.6367">ConcreteProductB1</text><line style="stroke:#181818;stroke-width:0.5;" x1="477.69" x2="946.3336" y1="460.79" y2="460.79"/><line style="stroke:#181818;stroke-width:0.5;" x1="477.69" x2="946.3336" y1="468.79" y2="468.79"/><ellipse cx="487.69" cy="482.4384" fill="#84BE84" rx="3" ry="3" style="stroke:#038048;stroke-width:1;"/><text fill="#000000" font-family="sans-serif" font-size="14" lengthAdjust="spacing" textLength="174.043" x="496.69" y="485.7851">UsefulFunctionB(): string</text><ellipse cx="487.69" cy="498.7353" fill="#84BE84" rx="3" ry="3" style="stroke:#038048;stroke-width:1;"/><text fill="#000000" font-family="sans-serif" font-size="14" lengthAdjust="spacing" textLength="444.6436" x="496.69" y="502.082">AnotherUsefulFunctionB(IAbstractProductA collaborator): string</text></g><!--class ConcreteProductB2--><g id="elem_ConcreteProductB2"><rect codeLine="38" fill="#F1F1F1" height="80.5938" id="ConcreteProductB2" rx="2.5" ry="2.5" style="stroke:#181818;stroke-width:0.5;" width="470.6436" x="982.69" y="428.79"/><ellipse cx="1145.9595" cy="444.79" fill="#ADD1B2" rx="11" ry="11" style="stroke:#181818;stroke-width:1;"/><path d="M1148.9283,450.4306 Q1148.3502,450.7275 1147.7095,450.8681 Q1147.0689,451.0244 1146.3658,451.0244 Q1143.8658,451.0244 1142.5377,449.3837 Q1141.2252,447.7275 1141.2252,444.6025 Q1141.2252,441.4775 1142.5377,439.8212 Q1143.8658,438.165 1146.3658,438.165 Q1147.0689,438.165 1147.7095,438.3212 Q1148.3658,438.4775 1148.9283,438.7744 L1148.9283,441.4931 Q1148.3033,440.915 1147.7095,440.6494 Q1147.1158,440.3681 1146.4908,440.3681 Q1145.147,440.3681 1144.4595,441.4462 Q1143.772,442.5087 1143.772,444.6025 Q1143.772,446.6962 1144.4595,447.7744 Q1145.147,448.8369 1146.4908,448.8369 Q1147.1158,448.8369 1147.7095,448.5712 Q1148.3033,448.29 1148.9283,447.7119 L1148.9283,450.4306 Z " fill="#000000"/><text fill="#000000" font-family="sans-serif" font-size="14" lengthAdjust="spacing" textLength="135.6045" x="1166.4595" y="449.6367">ConcreteProductB2</text><line style="stroke:#181818;stroke-width:0.5;" x1="983.69" x2="1452.3336" y1="460.79" y2="460.79"/><line style="stroke:#181818;stroke-width:0.5;" x1="983.69" x2="1452.3336" y1="468.79" y2="468.79"/><ellipse cx="993.69" cy="482.4384" fill="#84BE84" rx="3" ry="3" style="stroke:#038048;stroke-width:1;"/><text fill="#000000" font-family="sans-serif" font-size="14" lengthAdjust="spacing" textLength="174.043" x="1002.69" y="485.7851">UsefulFunctionB(): string</text><ellipse cx="993.69" cy="498.7353" fill="#84BE84" rx="3" ry="3" style="stroke:#038048;stroke-width:1;"/><text fill="#000000" font-family="sans-serif" font-size="14" lengthAdjust="spacing" textLength="444.6436" x="1002.69" y="502.082">AnotherUsefulFunctionB(IAbstractProductA collaborator): string</text></g><!--class Client--><g id="elem_Client"><rect codeLine="43" fill="#F1F1F1" height="80.5938" id="Client" rx="2.5" ry="2.5" style="stroke:#181818;stroke-width:0.5;" width="337.8281" x="401.09" y="7"/><ellipse cx="545.4889" cy="23" fill="#ADD1B2" rx="11" ry="11" style="stroke:#181818;stroke-width:1;"/><path d="M548.4577,28.6406 Q547.8796,28.9375 547.2389,29.0781 Q546.5983,29.2344 545.8952,29.2344 Q543.3952,29.2344 542.0671,27.5938 Q540.7546,25.9375 540.7546,22.8125 Q540.7546,19.6875 542.0671,18.0313 Q543.3952,16.375 545.8952,16.375 Q546.5983,16.375 547.2389,16.5313 Q547.8952,16.6875 548.4577,16.9844 L548.4577,19.7031 Q547.8327,19.125 547.2389,18.8594 Q546.6452,18.5781 546.0202,18.5781 Q544.6764,18.5781 543.9889,19.6563 Q543.3014,20.7188 543.3014,22.8125 Q543.3014,24.9063 543.9889,25.9844 Q544.6764,27.0469 546.0202,27.0469 Q546.6452,27.0469 547.2389,26.7813 Q547.8327,26.5 548.4577,25.9219 L548.4577,28.6406 Z " fill="#000000"/><text fill="#000000" font-family="sans-serif" font-size="14" lengthAdjust="spacing" textLength="40.5303" x="565.9889" y="27.8467">Client</text><line style="stroke:#181818;stroke-width:0.5;" x1="402.09" x2="737.9181" y1="39" y2="39"/><line style="stroke:#181818;stroke-width:0.5;" x1="402.09" x2="737.9181" y1="47" y2="47"/><ellipse cx="412.09" cy="60.6484" fill="#84BE84" rx="3" ry="3" style="stroke:#038048;stroke-width:1;"/><text fill="#000000" font-family="sans-serif" font-size="14" lengthAdjust="spacing" textLength="83.1387" x="421.09" y="63.9951">Main(): void</text><ellipse cx="412.09" cy="76.9453" fill="#84BE84" rx="3" ry="3" style="stroke:#038048;stroke-width:1;"/><text fill="#000000" font-family="sans-serif" font-size="14" lengthAdjust="spacing" textLength="311.8281" x="421.09" y="80.292">ClientMethod(IAbstractFactory factory): void</text></g><!--reverse link IAbstractFactory to ConcreteFactory1--><g id="link_IAbstractFactory_ConcreteFactory1"><path codeLine="48" d="M519.1001,241.5523 C501.1601,260.1123 492.36,269.21 474.41,287.77 " fill="none" id="IAbstractFactory-backto-ConcreteFactory1" style="stroke:#181818;stroke-width:1;stroke-dasharray:7.0,7.0;"/><polygon fill="none" points="531.61,228.61,514.786,237.3823,523.4142,245.7222,531.61,228.61" style="stroke:#181818;stroke-width:1;"/></g><!--reverse link IAbstractFactory to ConcreteFactory2--><g id="link_IAbstractFactory_ConcreteFactory2"><path codeLine="49" d="M636.7978,239.4792 C661.2978,258.0392 676.06,269.21 700.56,287.77 " fill="none" id="IAbstractFactory-backto-ConcreteFactory2" style="stroke:#181818;stroke-width:1;stroke-dasharray:7.0,7.0;"/><polygon fill="none" points="622.45,228.61,633.1748,244.2618,640.4209,234.6966,622.45,228.61" style="stroke:#181818;stroke-width:1;"/></g><!--reverse link IAbstractProductA to ConcreteProductA1--><g id="link_IAbstractProductA_ConcreteProductA1"><path codeLine="51" d="M141.5527,377.7534 C132.8827,400.4334 127.65,414.11 118.99,436.76 " fill="none" id="IAbstractProductA-backto-ConcreteProductA1" style="stroke:#181818;stroke-width:1;stroke-dasharray:7.0,7.0;"/><polygon fill="none" points="147.98,360.94,135.9482,375.6109,147.1571,379.8958,147.98,360.94" style="stroke:#181818;stroke-width:1;"/></g><!--reverse link IAbstractProductA to ConcreteProductA2--><g id="link_IAbstractProductA_ConcreteProductA2"><path codeLine="52" d="M215.6309,371.8447 C245.3109,394.4447 270.84,413.89 300.56,436.52 " fill="none" id="IAbstractProductA-backto-ConcreteProductA2" style="stroke:#181818;stroke-width:1;stroke-dasharray:7.0,7.0;"/><polygon fill="none" points="201.31,360.94,211.996,376.6183,219.2658,367.0711,201.31,360.94" style="stroke:#181818;stroke-width:1;"/></g><!--reverse link IAbstractProductB to ConcreteProductB1--><g id="link_IAbstractProductB_ConcreteProductB1"><path codeLine="54" d="M1017.9877,374.4664 C957.3277,393.0264 902.5,409.8 841.84,428.36 " fill="none" id="IAbstractProductB-backto-ConcreteProductB1" style="stroke:#181818;stroke-width:1;stroke-dasharray:7.0,7.0;"/><polygon fill="none" points="1035.2,369.2,1016.2322,368.729,1019.7431,380.2039,1035.2,369.2" style="stroke:#181818;stroke-width:1;"/></g><!--reverse link IAbstractProductB to ConcreteProductB2--><g id="link_IAbstractProductB_ConcreteProductB2"><path codeLine="55" d="M1186.6234,386.0149 C1193.7134,404.5749 1195.72,409.8 1202.82,428.36 " fill="none" id="IAbstractProductB-backto-ConcreteProductB2" style="stroke:#181818;stroke-width:1;stroke-dasharray:7.0,7.0;"/><polygon fill="none" points="1180.2,369.2,1181.0184,388.156,1192.2283,383.8738,1180.2,369.2" style="stroke:#181818;stroke-width:1;"/></g><!--link ConcreteFactory1 to ConcreteProductA1--><g id="link_ConcreteFactory1_ConcreteProductA1"><path codeLine="57" d="M341.73,369.2 C291.03,390.56 234.9093,414.2005 187.5093,434.1705 " fill="none" id="ConcreteFactory1-to-ConcreteProductA1" style="stroke:#181818;stroke-width:1;stroke-dasharray:7.0,7.0;"/><polygon fill="#181818" points="181.98,436.5,191.827,436.6919,186.5878,434.5587,188.7209,429.3195,181.98,436.5" style="stroke:#181818;stroke-width:1;"/></g><!--link ConcreteFactory1 to ConcreteProductB1--><g id="link_ConcreteFactory1_ConcreteProductB1"><path codeLine="58" d="M515.1,369.2 C552.05,387.76 590.5881,407.1074 627.5481,425.6674 " fill="none" id="ConcreteFactory1-to-ConcreteProductB1" style="stroke:#181818;stroke-width:1;stroke-dasharray:7.0,7.0;"/><polygon fill="#181818" points="632.91,428.36,626.6622,420.7465,628.4417,426.1162,623.0721,427.8958,632.91,428.36" style="stroke:#181818;stroke-width:1;"/></g><!--link ConcreteFactory2 to ConcreteProductA2--><g id="link_ConcreteFactory2_ConcreteProductA2"><path codeLine="60" d="M635.23,369.2 C571.9,390.56 500.5653,414.6125 441.3553,434.5825 " fill="none" id="ConcreteFactory2-to-ConcreteProductA2" style="stroke:#181818;stroke-width:1;stroke-dasharray:7.0,7.0;"/><polygon fill="#181818" points="435.67,436.5,445.4764,437.414,440.4078,434.9021,442.9197,429.8335,435.67,436.5" style="stroke:#181818;stroke-width:1;"/></g><!--link ConcreteFactory2 to ConcreteProductB2--><g id="link_ConcreteFactory2_ConcreteProductB2"><path codeLine="61" d="M886.26,369.2 C948.52,387.76 1016.72,408.0862 1078.99,426.6462 " fill="none" id="ConcreteFactory2-to-ConcreteProductB2" style="stroke:#181818;stroke-width:1;stroke-dasharray:7.0,7.0;"/><polygon fill="#181818" points="1084.74,428.36,1077.2575,421.9559,1079.9483,426.9318,1074.9724,429.6226,1084.74,428.36" style="stroke:#181818;stroke-width:1;"/></g><!--link Client to IAbstractFactory--><g id="link_Client_IAbstractFactory"><path codeLine="63" d="M570.01,88.02 C570.01,106.57 570.01,122.62 570.01,141.17 " fill="none" id="Client-to-IAbstractFactory" style="stroke:#181818;stroke-width:1;stroke-dasharray:7.0,7.0;"/><polygon fill="#181818" points="570.01,147.17,574.01,138.17,570.01,142.17,566.01,138.17,570.01,147.17" style="stroke:#181818;stroke-width:1;"/></g><!--link Client to IAbstractProductA--><g id="link_Client_IAbstractProductA"><path codeLine="64" d="M504.43,87.96 C475.51,105.78 441.29,127.32 411.01,147.6 C336.17,197.71 256.2819,255.9494 206.8819,292.5294 " fill="none" id="Client-to-IAbstractProductA" style="stroke:#181818;stroke-width:1;stroke-dasharray:7.0,7.0;"/><polygon fill="#181818" points="202.06,296.1,211.6733,293.9588,206.0783,293.1245,206.9125,287.5295,202.06,296.1" style="stroke:#181818;stroke-width:1;"/></g><!--link Client to IAbstractProductB--><g id="link_Client_IAbstractProductB"><path codeLine="65" d="M654.62,88.01 C767.72,141.07 961.5784,232.031 1074.7684,285.151 " fill="none" id="Client-to-IAbstractProductB" style="stroke:#181818;stroke-width:1;stroke-dasharray:7.0,7.0;"/><polygon fill="#181818" points="1080.2,287.7,1073.752,280.2554,1075.6737,285.5758,1070.3532,287.4975,1080.2,287.7" style="stroke:#181818;stroke-width:1;"/></g><!--SRC=[nPF1QiCm38RlVWeVEmg1-3X68IuKUYZqiWTm7MKr61iSPJ2wldlTPFRQsYk6iIuG0jQd_rSaIna4rma9TDtiUdH2uig_rdtG0w7-cTEb0u6mTROT93Qpf-TlD1pcI9uZEJaIebBF81HDNtle1hqQZ4HbpUZgIMNUxWlm7mJuXS0KRup5FRXRBAr8Mgt5pZhXct9LXTIYx-dI6ka0uQjhzT-rBUl77kKNDEgo4UMJsI-IUVrlimqLiCTNe1KOZBOReSpPwzsgDWnp93Q0UzlEaXtkfcz8yRe9yl9PLSajBiFOXLpyeoimtffIC2F9ioIlIq4lcInfLIqoDPPWtfSaEvYJOqNOMDqqv7FqjktPM5pdEq5-0W00]--></g></svg>