<svg xmlns="http://www.w3.org/2000/svg" xmlns:xlink="http://www.w3.org/1999/xlink" contentStyleType="text/css" data-diagram-type="CLASS" height="516px" preserveAspectRatio="none" style="width:916px;height:516px;background:#FFFFFF;" version="1.1" viewBox="0 0 916 516" width="916px" zoomAndPan="magnify"><defs/><g><!--class Component--><g id="elem_Component"><rect codeLine="1" fill="#F1F1F1" height="64.2969" id="Component" rx="2.5" ry="2.5" style="stroke:#181818;stroke-width:0.5;" width="160.4014" x="65.91" y="280.04"/><ellipse cx="102.1149" cy="296.04" fill="#B4A7E5" rx="11" ry="11" style="stroke:#181818;stroke-width:1;"/><path d="M98.0368,291.8056 L98.0368,289.6494 L105.4274,289.6494 L105.4274,291.8056 L102.9587,291.8056 L102.9587,299.8837 L105.4274,299.8837 L105.4274,302.04 L98.0368,302.04 L98.0368,299.8837 L100.5056,299.8837 L100.5056,291.8056 L98.0368,291.8056 Z " fill="#000000"/><text fill="#000000" font-family="sans-serif" font-size="14" font-style="italic" lengthAdjust="spacing" textLength="81.2793" x="120.8271" y="300.8867">Component</text><line style="stroke:#181818;stroke-width:0.5;" x1="66.91" x2="225.3114" y1="312.04" y2="312.04"/><line style="stroke:#181818;stroke-width:0.5;" x1="66.91" x2="225.3114" y1="320.04" y2="320.04"/><ellipse cx="76.91" cy="333.6884" fill="#84BE84" rx="3" ry="3" style="stroke:#038048;stroke-width:1;"/><text fill="#000000" font-family="sans-serif" font-size="14" lengthAdjust="spacing" textLength="134.4014" x="85.91" y="337.0351">Operation() : string</text></g><!--class Decorator--><g id="elem_Decorator"><rect codeLine="5" fill="#F1F1F1" height="113.1875" id="Decorator" rx="2.5" ry="2.5" style="stroke:#181818;stroke-width:0.5;" width="306.123" x="265.05" y="255.6"/><ellipse cx="378.9606" cy="271.6" fill="#A9DCDF" rx="11" ry="11" style="stroke:#181818;stroke-width:1;"/><path d="M379.07,266.9438 L377.9138,272.0219 L380.2419,272.0219 L379.07,266.9438 Z M377.5856,264.7094 L380.57,264.7094 L383.9294,277.1 L381.4763,277.1 L380.7106,274.0375 L377.4294,274.0375 L376.6794,277.1 L374.2419,277.1 L377.5856,264.7094 Z " fill="#000000"/><text fill="#000000" font-family="sans-serif" font-size="14" font-style="italic" lengthAdjust="spacing" textLength="69.8018" x="399.4606" y="276.4467">Decorator</text><line style="stroke:#181818;stroke-width:0.5;" x1="266.05" x2="570.173" y1="287.6" y2="287.6"/><rect fill="#FFFFFF" fill-opacity="0.00000" height="6" style="stroke:#C82930;stroke-width:1;" width="6" x="273.05" y="298.2484"/><text fill="#000000" font-family="sans-serif" font-size="14" lengthAdjust="spacing" textLength="171.9307" x="285.05" y="304.5951">Component _component</text><line style="stroke:#181818;stroke-width:0.5;" x1="266.05" x2="570.173" y1="311.8969" y2="311.8969"/><ellipse cx="276.05" cy="325.5453" fill="#84BE84" rx="3" ry="3" style="stroke:#038048;stroke-width:1;"/><text fill="#000000" font-family="sans-serif" font-size="14" lengthAdjust="spacing" textLength="245.6563" x="285.05" y="328.892">Decorator(Component component)</text><ellipse cx="276.05" cy="341.8422" fill="#84BE84" rx="3" ry="3" style="stroke:#038048;stroke-width:1;"/><text fill="#000000" font-family="sans-serif" font-size="14" lengthAdjust="spacing" textLength="280.123" x="285.05" y="345.1889">SetComponent(Component component)</text><ellipse cx="276.05" cy="358.1391" fill="#84BE84" rx="3" ry="3" style="stroke:#038048;stroke-width:1;"/><text fill="#000000" font-family="sans-serif" font-size="14" lengthAdjust="spacing" textLength="134.4014" x="285.05" y="361.4857">Operation() : string</text></g><!--class ConcreteComponent--><g id="elem_ConcreteComponent"><rect codeLine="12" fill="#F1F1F1" height="64.2969" id="ConcreteComponent" rx="2.5" ry="2.5" style="stroke:#181818;stroke-width:0.5;" width="176.6621" x="54.78" y="436.93"/><ellipse cx="69.78" cy="452.93" fill="#ADD1B2" rx="11" ry="11" style="stroke:#181818;stroke-width:1;"/><path d="M72.7488,458.5706 Q72.1706,458.8675 71.53,459.0081 Q70.8894,459.1644 70.1863,459.1644 Q67.6863,459.1644 66.3581,457.5238 Q65.0456,455.8675 65.0456,452.7425 Q65.0456,449.6175 66.3581,447.9613 Q67.6863,446.305 70.1863,446.305 Q70.8894,446.305 71.53,446.4613 Q72.1863,446.6175 72.7488,446.9144 L72.7488,449.6331 Q72.1238,449.055 71.53,448.7894 Q70.9363,448.5081 70.3113,448.5081 Q68.9675,448.5081 68.28,449.5863 Q67.5925,450.6488 67.5925,452.7425 Q67.5925,454.8363 68.28,455.9144 Q68.9675,456.9769 70.3113,456.9769 Q70.9363,456.9769 71.53,456.7113 Q72.1238,456.43 72.7488,455.8519 L72.7488,458.5706 Z " fill="#000000"/><text fill="#000000" font-family="sans-serif" font-size="14" lengthAdjust="spacing" textLength="144.6621" x="83.78" y="457.7767">ConcreteComponent</text><line style="stroke:#181818;stroke-width:0.5;" x1="55.78" x2="230.4421" y1="468.93" y2="468.93"/><line style="stroke:#181818;stroke-width:0.5;" x1="55.78" x2="230.4421" y1="476.93" y2="476.93"/><ellipse cx="65.78" cy="490.5784" fill="#84BE84" rx="3" ry="3" style="stroke:#038048;stroke-width:1;"/><text fill="#000000" font-family="sans-serif" font-size="14" lengthAdjust="spacing" textLength="134.4014" x="74.78" y="493.9251">Operation() : string</text></g><!--class ConcreteDecoratorA--><g id="elem_ConcreteDecoratorA"><rect codeLine="16" fill="#F1F1F1" height="80.5938" id="ConcreteDecoratorA" rx="2.5" ry="2.5" style="stroke:#181818;stroke-width:0.5;" width="304.2021" x="266.01" y="428.79"/><ellipse cx="342.4802" cy="444.79" fill="#ADD1B2" rx="11" ry="11" style="stroke:#181818;stroke-width:1;"/><path d="M345.449,450.4306 Q344.8708,450.7275 344.2302,450.8681 Q343.5896,451.0244 342.8865,451.0244 Q340.3865,451.0244 339.0583,449.3837 Q337.7458,447.7275 337.7458,444.6025 Q337.7458,441.4775 339.0583,439.8212 Q340.3865,438.165 342.8865,438.165 Q343.5896,438.165 344.2302,438.3212 Q344.8865,438.4775 345.449,438.7744 L345.449,441.4931 Q344.824,440.915 344.2302,440.6494 Q343.6365,440.3681 343.0115,440.3681 Q341.6677,440.3681 340.9802,441.4462 Q340.2927,442.5087 340.2927,444.6025 Q340.2927,446.6962 340.9802,447.7744 Q341.6677,448.8369 343.0115,448.8369 Q343.6365,448.8369 344.2302,448.5712 Q344.824,448.29 345.449,447.7119 L345.449,450.4306 Z " fill="#000000"/><text fill="#000000" font-family="sans-serif" font-size="14" lengthAdjust="spacing" textLength="142.7617" x="362.9802" y="449.6367">ConcreteDecoratorA</text><line style="stroke:#181818;stroke-width:0.5;" x1="267.01" x2="569.2121" y1="460.79" y2="460.79"/><line style="stroke:#181818;stroke-width:0.5;" x1="267.01" x2="569.2121" y1="468.79" y2="468.79"/><ellipse cx="277.01" cy="482.4384" fill="#84BE84" rx="3" ry="3" style="stroke:#038048;stroke-width:1;"/><text fill="#000000" font-family="sans-serif" font-size="14" lengthAdjust="spacing" textLength="278.2021" x="286.01" y="485.7851">ConcreteDecoratorA(Component comp)</text><ellipse cx="277.01" cy="498.7353" fill="#84BE84" rx="3" ry="3" style="stroke:#038048;stroke-width:1;"/><text fill="#000000" font-family="sans-serif" font-size="14" lengthAdjust="spacing" textLength="134.4014" x="286.01" y="502.082">Operation() : string</text></g><!--class ConcreteDecoratorB--><g id="elem_ConcreteDecoratorB"><rect codeLine="21" fill="#F1F1F1" height="80.5938" id="ConcreteDecoratorB" rx="2.5" ry="2.5" style="stroke:#181818;stroke-width:0.5;" width="304.2295" x="605" y="428.79"/><ellipse cx="681.4702" cy="444.79" fill="#ADD1B2" rx="11" ry="11" style="stroke:#181818;stroke-width:1;"/><path d="M684.439,450.4306 Q683.8608,450.7275 683.2202,450.8681 Q682.5796,451.0244 681.8765,451.0244 Q679.3765,451.0244 678.0483,449.3837 Q676.7358,447.7275 676.7358,444.6025 Q676.7358,441.4775 678.0483,439.8212 Q679.3765,438.165 681.8765,438.165 Q682.5796,438.165 683.2202,438.3212 Q683.8765,438.4775 684.439,438.7744 L684.439,441.4931 Q683.814,440.915 683.2202,440.6494 Q682.6265,440.3681 682.0015,440.3681 Q680.6577,440.3681 679.9702,441.4462 Q679.2827,442.5087 679.2827,444.6025 Q679.2827,446.6962 679.9702,447.7744 Q680.6577,448.8369 682.0015,448.8369 Q682.6265,448.8369 683.2202,448.5712 Q683.814,448.29 684.439,447.7119 L684.439,450.4306 Z " fill="#000000"/><text fill="#000000" font-family="sans-serif" font-size="14" lengthAdjust="spacing" textLength="142.7891" x="701.9702" y="449.6367">ConcreteDecoratorB</text><line style="stroke:#181818;stroke-width:0.5;" x1="606" x2="908.2295" y1="460.79" y2="460.79"/><line style="stroke:#181818;stroke-width:0.5;" x1="606" x2="908.2295" y1="468.79" y2="468.79"/><ellipse cx="616" cy="482.4384" fill="#84BE84" rx="3" ry="3" style="stroke:#038048;stroke-width:1;"/><text fill="#000000" font-family="sans-serif" font-size="14" lengthAdjust="spacing" textLength="278.2295" x="625" y="485.7851">ConcreteDecoratorB(Component comp)</text><ellipse cx="616" cy="498.7353" fill="#84BE84" rx="3" ry="3" style="stroke:#038048;stroke-width:1;"/><text fill="#000000" font-family="sans-serif" font-size="14" lengthAdjust="spacing" textLength="134.4014" x="625" y="502.082">Operation() : string</text></g><!--class Client--><g id="elem_Client"><rect codeLine="26" fill="#F1F1F1" height="64.2969" id="Client" rx="2.5" ry="2.5" style="stroke:#181818;stroke-width:0.5;" width="278.2256" x="7" y="131.3"/><ellipse cx="121.5977" cy="147.3" fill="#ADD1B2" rx="11" ry="11" style="stroke:#181818;stroke-width:1;"/><path d="M124.5664,152.9406 Q123.9883,153.2375 123.3477,153.3781 Q122.707,153.5344 122.0039,153.5344 Q119.5039,153.5344 118.1758,151.8938 Q116.8633,150.2375 116.8633,147.1125 Q116.8633,143.9875 118.1758,142.3313 Q119.5039,140.675 122.0039,140.675 Q122.707,140.675 123.3477,140.8313 Q124.0039,140.9875 124.5664,141.2844 L124.5664,144.0031 Q123.9414,143.425 123.3477,143.1594 Q122.7539,142.8781 122.1289,142.8781 Q120.7852,142.8781 120.0977,143.9563 Q119.4102,145.0188 119.4102,147.1125 Q119.4102,149.2063 120.0977,150.2844 Q120.7852,151.3469 122.1289,151.3469 Q122.7539,151.3469 123.3477,151.0813 Q123.9414,150.8 124.5664,150.2219 L124.5664,152.9406 Z " fill="#000000"/><text fill="#000000" font-family="sans-serif" font-size="14" lengthAdjust="spacing" textLength="40.5303" x="142.0977" y="152.1467">Client</text><line style="stroke:#181818;stroke-width:0.5;" x1="8" x2="284.2256" y1="163.3" y2="163.3"/><line style="stroke:#181818;stroke-width:0.5;" x1="8" x2="284.2256" y1="171.3" y2="171.3"/><ellipse cx="18" cy="184.9484" fill="#84BE84" rx="3" ry="3" style="stroke:#038048;stroke-width:1;"/><text fill="#000000" font-family="sans-serif" font-size="14" lengthAdjust="spacing" textLength="252.2256" x="27" y="188.2951">ClientCode(Component component)</text></g><!--class Program--><g id="elem_Program"><rect codeLine="30" fill="#F1F1F1" height="64.2969" id="Program" rx="2.5" ry="2.5" style="stroke:#181818;stroke-width:0.5;" width="156.4229" x="67.9" y="7"/><ellipse cx="112.0599" cy="23" fill="#ADD1B2" rx="11" ry="11" style="stroke:#181818;stroke-width:1;"/><path d="M115.0287,28.6406 Q114.4505,28.9375 113.8099,29.0781 Q113.1693,29.2344 112.4662,29.2344 Q109.9662,29.2344 108.638,27.5938 Q107.3255,25.9375 107.3255,22.8125 Q107.3255,19.6875 108.638,18.0313 Q109.9662,16.375 112.4662,16.375 Q113.1693,16.375 113.8099,16.5313 Q114.4662,16.6875 115.0287,16.9844 L115.0287,19.7031 Q114.4037,19.125 113.8099,18.8594 Q113.2162,18.5781 112.5912,18.5781 Q111.2474,18.5781 110.5599,19.6563 Q109.8724,20.7188 109.8724,22.8125 Q109.8724,24.9063 110.5599,25.9844 Q111.2474,27.0469 112.5912,27.0469 Q113.2162,27.0469 113.8099,26.7813 Q114.4037,26.5 115.0287,25.9219 L115.0287,28.6406 Z " fill="#000000"/><text fill="#000000" font-family="sans-serif" font-size="14" lengthAdjust="spacing" textLength="59.623" x="132.5399" y="27.8467">Program</text><line style="stroke:#181818;stroke-width:0.5;" x1="68.9" x2="223.3229" y1="39" y2="39"/><line style="stroke:#181818;stroke-width:0.5;" x1="68.9" x2="223.3229" y1="47" y2="47"/><ellipse cx="78.9" cy="60.6484" fill="#84BE84" rx="3" ry="3" style="stroke:#038048;stroke-width:1;"/><text fill="#000000" font-family="sans-serif" font-size="14" lengthAdjust="spacing" textLength="130.4229" x="87.9" y="63.9951">Main(string[] args)</text></g><!--reverse link Component to ConcreteComponent--><g id="link_Component_ConcreteComponent"><path codeLine="34" d="M145.1606,362.5366 C144.6406,389.3166 144.24,409.67 143.72,436.52 " fill="#FFFFFF" fill-opacity="0.00000" id="Component-backto-ConcreteComponent" style="stroke:#181818;stroke-width:1;stroke-dasharray:7.0,7.0;"/><polygon fill="#FFFFFF" fill-opacity="0.00000" points="145.51,344.54,139.1617,362.4201,151.1594,362.6531,145.51,344.54" style="stroke:#181818;stroke-width:1;"/></g><!--reverse link Component to Decorator--><g id="link_Component_Decorator"><path codeLine="35" d="M244.6,312.19 C257.31,312.19 252.03,312.19 264.75,312.19 " fill="#FFFFFF" fill-opacity="0.00000" id="Component-backto-Decorator" style="stroke:#181818;stroke-width:1;stroke-dasharray:7.0,7.0;"/><polygon fill="#FFFFFF" fill-opacity="0.00000" points="226.6,312.19,244.6,318.19,244.6,306.19,226.6,312.19" style="stroke:#181818;stroke-width:1;"/></g><!--reverse link Decorator to ConcreteDecoratorA--><g id="link_Decorator_ConcreteDecoratorA"><path codeLine="36" d="M418.11,387.11 C418.11,406.87 418.11,410.66 418.11,428.75 " fill="#FFFFFF" fill-opacity="0.00000" id="Decorator-backto-ConcreteDecoratorA" style="stroke:#181818;stroke-width:1;"/><polygon fill="#FFFFFF" fill-opacity="0.00000" points="418.11,369.11,412.11,387.11,424.11,387.11,418.11,369.11" style="stroke:#181818;stroke-width:1;"/></g><!--reverse link Decorator to ConcreteDecoratorB--><g id="link_Decorator_ConcreteDecoratorB"><path codeLine="37" d="M556.8718,376.5909 C599.8318,396.2209 630.8,410.37 670.24,428.39 " fill="#FFFFFF" fill-opacity="0.00000" id="Decorator-backto-ConcreteDecoratorB" style="stroke:#181818;stroke-width:1;"/><polygon fill="#FFFFFF" fill-opacity="0.00000" points="540.5,369.11,554.3782,382.0482,559.3654,371.1336,540.5,369.11" style="stroke:#181818;stroke-width:1;"/></g><!--link Client to Component--><g id="link_Client_Component"><path codeLine="39" d="M146.11,195.93 C146.11,220.69 146.11,249.02 146.11,273.76 " fill="#FFFFFF" fill-opacity="0.00000" id="Client-to-Component" style="stroke:#181818;stroke-width:1;"/><polygon fill="#181818" points="146.11,279.76,150.11,270.76,146.11,274.76,142.11,270.76,146.11,279.76" style="stroke:#181818;stroke-width:1;"/></g><!--link Program to Client--><g id="link_Program_Client"><path codeLine="40" d="M146.11,71.65 C146.11,89.91 146.11,106.82 146.11,125.06 " fill="#FFFFFF" fill-opacity="0.00000" id="Program-to-Client" style="stroke:#181818;stroke-width:1;stroke-dasharray:7.0,7.0;"/><polygon fill="#181818" points="146.11,131.06,150.11,122.06,146.11,126.06,142.11,122.06,146.11,131.06" style="stroke:#181818;stroke-width:1;"/></g><!--SRC=[dPB12i8m38RlVOeSDwHz0961crTHy2WYjSPPq5QotjHtTxYjLRUfhAUKV7_o9wqs3kaW5K9cpnThq3YuCYZF21ON9EcqDL4COoWSQPEpEsDoLyPIEL0dMHGmGsLBpb8jv2-bjge9wveUZWBacRY6LkXyzXlNPx3obLcZ21t-FzYxpbkTUc4xzM4l7jOXxU-G3kjmqgy3LzVCxh5xdLwt99kJF7lXN6eJLSNN6v2K5qyu59dSX6Xl-XqWdH-T24_Fme-Pt3ZlsEfF8YqzL2DodeJ_nXh_GYJrq0y0]--></g></svg>