<svg xmlns="http://www.w3.org/2000/svg" xmlns:xlink="http://www.w3.org/1999/xlink" contentStyleType="text/css" data-diagram-type="CLASS" height="359px" preserveAspectRatio="none" style="width:857px;height:359px;background:#FFFFFF;" version="1.1" viewBox="0 0 857 359" width="857px" zoomAndPan="magnify"><defs/><g><!--class IProduct--><g id="elem_IProduct"><rect codeLine="1" fill="#F1F1F1" height="64.2969" id="IProduct" rx="2.5" ry="2.5" style="stroke:#181818;stroke-width:0.5;" width="151.2344" x="509.46" y="155.74"/><ellipse cx="552.088" cy="171.74" fill="#B4A7E5" rx="11" ry="11" style="stroke:#181818;stroke-width:1;"/><path d="M548.0099,167.5056 L548.0099,165.3494 L555.4005,165.3494 L555.4005,167.5056 L552.9317,167.5056 L552.9317,175.5838 L555.4005,175.5838 L555.4005,177.74 L548.0099,177.74 L548.0099,175.5838 L550.4786,175.5838 L550.4786,167.5056 L548.0099,167.5056 Z " fill="#000000"/><text fill="#000000" font-family="sans-serif" font-size="14" font-style="italic" lengthAdjust="spacing" textLength="57.8389" x="572.2275" y="176.5867">IProduct</text><line style="stroke:#181818;stroke-width:0.5;" x1="510.46" x2="659.6944" y1="187.74" y2="187.74"/><line style="stroke:#181818;stroke-width:0.5;" x1="510.46" x2="659.6944" y1="195.74" y2="195.74"/><ellipse cx="520.46" cy="209.3884" fill="#84BE84" rx="3" ry="3" style="stroke:#038048;stroke-width:1;"/><text fill="#000000" font-family="sans-serif" font-size="14" lengthAdjust="spacing" textLength="125.2344" x="529.46" y="212.7351">string Operation()</text></g><!--class ConcreteProduct1--><g id="elem_ConcreteProduct1"><rect codeLine="5" fill="#F1F1F1" height="64.2969" id="ConcreteProduct1" rx="2.5" ry="2.5" style="stroke:#181818;stroke-width:0.5;" width="158" x="499.07" y="288.18"/><ellipse cx="514.07" cy="304.18" fill="#ADD1B2" rx="11" ry="11" style="stroke:#181818;stroke-width:1;"/><path d="M517.0387,309.8206 Q516.4606,310.1175 515.82,310.2581 Q515.1794,310.4144 514.4762,310.4144 Q511.9762,310.4144 510.6481,308.7738 Q509.3356,307.1175 509.3356,303.9925 Q509.3356,300.8675 510.6481,299.2113 Q511.9762,297.555 514.4762,297.555 Q515.1794,297.555 515.82,297.7113 Q516.4762,297.8675 517.0387,298.1644 L517.0387,300.8831 Q516.4137,300.305 515.82,300.0394 Q515.2262,299.7581 514.6012,299.7581 Q513.2575,299.7581 512.57,300.8363 Q511.8825,301.8988 511.8825,303.9925 Q511.8825,306.0863 512.57,307.1644 Q513.2575,308.2269 514.6012,308.2269 Q515.2262,308.2269 515.82,307.9613 Q516.4137,307.68 517.0387,307.1019 L517.0387,309.8206 Z " fill="#000000"/><text fill="#000000" font-family="sans-serif" font-size="14" lengthAdjust="spacing" textLength="126" x="528.07" y="309.0267">ConcreteProduct1</text><line style="stroke:#181818;stroke-width:0.5;" x1="500.07" x2="656.07" y1="320.18" y2="320.18"/><line style="stroke:#181818;stroke-width:0.5;" x1="500.07" x2="656.07" y1="328.18" y2="328.18"/><ellipse cx="510.07" cy="341.8284" fill="#84BE84" rx="3" ry="3" style="stroke:#038048;stroke-width:1;"/><text fill="#000000" font-family="sans-serif" font-size="14" lengthAdjust="spacing" textLength="125.2344" x="519.07" y="345.1751">string Operation()</text></g><!--class ConcreteProduct2--><g id="elem_ConcreteProduct2"><rect codeLine="9" fill="#F1F1F1" height="64.2969" id="ConcreteProduct2" rx="2.5" ry="2.5" style="stroke:#181818;stroke-width:0.5;" width="158" x="692.07" y="288.18"/><ellipse cx="707.07" cy="304.18" fill="#ADD1B2" rx="11" ry="11" style="stroke:#181818;stroke-width:1;"/><path d="M710.0388,309.8206 Q709.4606,310.1175 708.82,310.2581 Q708.1794,310.4144 707.4763,310.4144 Q704.9763,310.4144 703.6481,308.7738 Q702.3356,307.1175 702.3356,303.9925 Q702.3356,300.8675 703.6481,299.2113 Q704.9763,297.555 707.4763,297.555 Q708.1794,297.555 708.82,297.7113 Q709.4763,297.8675 710.0388,298.1644 L710.0388,300.8831 Q709.4138,300.305 708.82,300.0394 Q708.2263,299.7581 707.6013,299.7581 Q706.2575,299.7581 705.57,300.8363 Q704.8825,301.8988 704.8825,303.9925 Q704.8825,306.0863 705.57,307.1644 Q706.2575,308.2269 707.6013,308.2269 Q708.2263,308.2269 708.82,307.9613 Q709.4138,307.68 710.0388,307.1019 L710.0388,309.8206 Z " fill="#000000"/><text fill="#000000" font-family="sans-serif" font-size="14" lengthAdjust="spacing" textLength="126" x="721.07" y="309.0267">ConcreteProduct2</text><line style="stroke:#181818;stroke-width:0.5;" x1="693.07" x2="849.07" y1="320.18" y2="320.18"/><line style="stroke:#181818;stroke-width:0.5;" x1="693.07" x2="849.07" y1="328.18" y2="328.18"/><ellipse cx="703.07" cy="341.8284" fill="#84BE84" rx="3" ry="3" style="stroke:#038048;stroke-width:1;"/><text fill="#000000" font-family="sans-serif" font-size="14" lengthAdjust="spacing" textLength="125.2344" x="712.07" y="345.1751">string Operation()</text></g><!--class Creator--><g id="elem_Creator"><rect codeLine="13" fill="#F1F1F1" height="80.5938" id="Creator" rx="2.5" ry="2.5" style="stroke:#181818;stroke-width:0.5;" width="266.3652" x="207.89" y="147.59"/><ellipse cx="310.5555" cy="163.59" fill="#A9DCDF" rx="11" ry="11" style="stroke:#181818;stroke-width:1;"/><path d="M310.6649,158.9338 L309.5087,164.0119 L311.8368,164.0119 L310.6649,158.9338 Z M309.1805,156.6994 L312.1649,156.6994 L315.5243,169.09 L313.0712,169.09 L312.3055,166.0275 L309.0243,166.0275 L308.2743,169.09 L305.8368,169.09 L309.1805,156.6994 Z " fill="#000000"/><text fill="#000000" font-family="sans-serif" font-size="14" font-style="italic" lengthAdjust="spacing" textLength="52.5342" x="331.0555" y="168.4367">Creator</text><line style="stroke:#181818;stroke-width:0.5;" x1="208.89" x2="473.2552" y1="179.59" y2="179.59"/><line style="stroke:#181818;stroke-width:0.5;" x1="208.89" x2="473.2552" y1="187.59" y2="187.59"/><ellipse cx="218.89" cy="201.2384" fill="#84BE84" rx="3" ry="3" style="stroke:#038048;stroke-width:1;"/><text fill="#000000" font-family="sans-serif" font-size="14" lengthAdjust="spacing" textLength="240.3652" x="227.89" y="204.5851">abstract IProduct FactoryMethod()</text><ellipse cx="218.89" cy="217.5353" fill="#84BE84" rx="3" ry="3" style="stroke:#038048;stroke-width:1;"/><text fill="#000000" font-family="sans-serif" font-size="14" lengthAdjust="spacing" textLength="164.9375" x="227.89" y="220.882">string SomeOperation()</text></g><!--class ConcreteCreator1--><g id="elem_ConcreteCreator1"><rect codeLine="18" fill="#F1F1F1" height="64.2969" id="ConcreteCreator1" rx="2.5" ry="2.5" style="stroke:#181818;stroke-width:0.5;" width="204.1445" x="7" y="288.18"/><ellipse cx="43.2941" cy="304.18" fill="#ADD1B2" rx="11" ry="11" style="stroke:#181818;stroke-width:1;"/><path d="M46.2629,309.8206 Q45.6848,310.1175 45.0441,310.2581 Q44.4035,310.4144 43.7004,310.4144 Q41.2004,310.4144 39.8723,308.7738 Q38.5598,307.1175 38.5598,303.9925 Q38.5598,300.8675 39.8723,299.2113 Q41.2004,297.555 43.7004,297.555 Q44.4035,297.555 45.0441,297.7113 Q45.7004,297.8675 46.2629,298.1644 L46.2629,300.8831 Q45.6379,300.305 45.0441,300.0394 Q44.4504,299.7581 43.8254,299.7581 Q42.4816,299.7581 41.7941,300.8363 Q41.1066,301.8988 41.1066,303.9925 Q41.1066,306.0863 41.7941,307.1644 Q42.4816,308.2269 43.8254,308.2269 Q44.4504,308.2269 45.0441,307.9613 Q45.6379,307.68 46.2629,307.1019 L46.2629,309.8206 Z " fill="#000000"/><text fill="#000000" font-family="sans-serif" font-size="14" lengthAdjust="spacing" textLength="124.8242" x="62.0262" y="309.0267">ConcreteCreator1</text><line style="stroke:#181818;stroke-width:0.5;" x1="8" x2="210.1445" y1="320.18" y2="320.18"/><line style="stroke:#181818;stroke-width:0.5;" x1="8" x2="210.1445" y1="328.18" y2="328.18"/><ellipse cx="18" cy="341.8284" fill="#84BE84" rx="3" ry="3" style="stroke:#038048;stroke-width:1;"/><text fill="#000000" font-family="sans-serif" font-size="14" lengthAdjust="spacing" textLength="178.1445" x="27" y="345.1751">IProduct FactoryMethod()</text></g><!--class ConcreteCreator2--><g id="elem_ConcreteCreator2"><rect codeLine="22" fill="#F1F1F1" height="64.2969" id="ConcreteCreator2" rx="2.5" ry="2.5" style="stroke:#181818;stroke-width:0.5;" width="204.1445" x="246" y="288.18"/><ellipse cx="282.2941" cy="304.18" fill="#ADD1B2" rx="11" ry="11" style="stroke:#181818;stroke-width:1;"/><path d="M285.2629,309.8206 Q284.6848,310.1175 284.0441,310.2581 Q283.4035,310.4144 282.7004,310.4144 Q280.2004,310.4144 278.8723,308.7738 Q277.5598,307.1175 277.5598,303.9925 Q277.5598,300.8675 278.8723,299.2113 Q280.2004,297.555 282.7004,297.555 Q283.4035,297.555 284.0441,297.7113 Q284.7004,297.8675 285.2629,298.1644 L285.2629,300.8831 Q284.6379,300.305 284.0441,300.0394 Q283.4504,299.7581 282.8254,299.7581 Q281.4816,299.7581 280.7941,300.8363 Q280.1066,301.8988 280.1066,303.9925 Q280.1066,306.0863 280.7941,307.1644 Q281.4816,308.2269 282.8254,308.2269 Q283.4504,308.2269 284.0441,307.9613 Q284.6379,307.68 285.2629,307.1019 L285.2629,309.8206 Z " fill="#000000"/><text fill="#000000" font-family="sans-serif" font-size="14" lengthAdjust="spacing" textLength="124.8242" x="301.0262" y="309.0267">ConcreteCreator2</text><line style="stroke:#181818;stroke-width:0.5;" x1="247" x2="449.1445" y1="320.18" y2="320.18"/><line style="stroke:#181818;stroke-width:0.5;" x1="247" x2="449.1445" y1="328.18" y2="328.18"/><ellipse cx="257" cy="341.8284" fill="#84BE84" rx="3" ry="3" style="stroke:#038048;stroke-width:1;"/><text fill="#000000" font-family="sans-serif" font-size="14" lengthAdjust="spacing" textLength="178.1445" x="266" y="345.1751">IProduct FactoryMethod()</text></g><!--class Client--><g id="elem_Client"><rect codeLine="26" fill="#F1F1F1" height="80.5938" id="Client" rx="2.5" ry="2.5" style="stroke:#181818;stroke-width:0.5;" width="254.8125" x="213.67" y="7"/><ellipse cx="316.5611" cy="23" fill="#ADD1B2" rx="11" ry="11" style="stroke:#181818;stroke-width:1;"/><path d="M319.5299,28.6406 Q318.9517,28.9375 318.3111,29.0781 Q317.6705,29.2344 316.9674,29.2344 Q314.4674,29.2344 313.1392,27.5938 Q311.8267,25.9375 311.8267,22.8125 Q311.8267,19.6875 313.1392,18.0313 Q314.4674,16.375 316.9674,16.375 Q317.6705,16.375 318.3111,16.5313 Q318.9674,16.6875 319.5299,16.9844 L319.5299,19.7031 Q318.9049,19.125 318.3111,18.8594 Q317.7174,18.5781 317.0924,18.5781 Q315.7486,18.5781 315.0611,19.6563 Q314.3736,20.7188 314.3736,22.8125 Q314.3736,24.9063 315.0611,25.9844 Q315.7486,27.0469 317.0924,27.0469 Q317.7174,27.0469 318.3111,26.7813 Q318.9049,26.5 319.5299,25.9219 L319.5299,28.6406 Z " fill="#000000"/><text fill="#000000" font-family="sans-serif" font-size="14" lengthAdjust="spacing" textLength="40.5303" x="337.0611" y="27.8467">Client</text><line style="stroke:#181818;stroke-width:0.5;" x1="214.67" x2="467.4825" y1="39" y2="39"/><line style="stroke:#181818;stroke-width:0.5;" x1="214.67" x2="467.4825" y1="47" y2="47"/><ellipse cx="224.67" cy="60.6484" fill="#84BE84" rx="3" ry="3" style="stroke:#038048;stroke-width:1;"/><text fill="#000000" font-family="sans-serif" font-size="14" lengthAdjust="spacing" textLength="78.4219" x="233.67" y="63.9951">void Main()</text><ellipse cx="224.67" cy="76.9453" fill="#84BE84" rx="3" ry="3" style="stroke:#038048;stroke-width:1;"/><text fill="#000000" font-family="sans-serif" font-size="14" lengthAdjust="spacing" textLength="228.8125" x="233.67" y="80.292">void ClientCode(Creator creator)</text></g><!--reverse link IProduct to ConcreteProduct1--><g id="link_IProduct_ConcreteProduct1"><path codeLine="32" d="M582.416,238.4342 C581.316,258.9442 580.85,267.59 579.75,288.05 " fill="#FFFFFF" fill-opacity="0.00000" id="IProduct-backto-ConcreteProduct1" style="stroke:#181818;stroke-width:1;stroke-dasharray:7.0,7.0;"/><polygon fill="#FFFFFF" fill-opacity="0.00000" points="583.38,220.46,576.4246,238.1128,588.4074,238.7555,583.38,220.46" style="stroke:#181818;stroke-width:1;"/></g><!--reverse link IProduct to ConcreteProduct2--><g id="link_IProduct_ConcreteProduct2"><path codeLine="33" d="M644.8345,230.7989 C673.9645,251.2389 697.02,267.4 726.14,287.82 " fill="#FFFFFF" fill-opacity="0.00000" id="IProduct-backto-ConcreteProduct2" style="stroke:#181818;stroke-width:1;stroke-dasharray:7.0,7.0;"/><polygon fill="#FFFFFF" fill-opacity="0.00000" points="630.1,220.46,641.3882,235.7105,648.2808,225.8874,630.1,220.46" style="stroke:#181818;stroke-width:1;"/></g><!--reverse link Creator to ConcreteCreator1--><g id="link_Creator_ConcreteCreator1"><path codeLine="35" d="M254.829,237.3801 C221.099,256.3401 196.98,269.91 165.32,287.7 " fill="#FFFFFF" fill-opacity="0.00000" id="Creator-backto-ConcreteCreator1" style="stroke:#181818;stroke-width:1;"/><polygon fill="#FFFFFF" fill-opacity="0.00000" points="270.52,228.56,251.889,232.1497,257.7691,242.6104,270.52,228.56" style="stroke:#181818;stroke-width:1;"/></g><!--reverse link Creator to ConcreteCreator2--><g id="link_Creator_ConcreteCreator2"><path codeLine="36" d="M344.1529,246.3542 C345.1729,265.3942 345.42,269.96 346.38,287.83 " fill="#FFFFFF" fill-opacity="0.00000" id="Creator-backto-ConcreteCreator2" style="stroke:#181818;stroke-width:1;"/><polygon fill="#FFFFFF" fill-opacity="0.00000" points="343.19,228.38,338.1615,246.6752,350.1443,246.0333,343.19,228.38" style="stroke:#181818;stroke-width:1;"/></g><!--link Creator to IProduct--><g id="link_Creator_IProduct"><path codeLine="38" d="M474.51,187.89 C486.03,187.89 491.54,187.89 503.06,187.89 " fill="#FFFFFF" fill-opacity="0.00000" id="Creator-to-IProduct" style="stroke:#181818;stroke-width:1;"/><polygon fill="#181818" points="509.06,187.89,500.06,183.89,504.06,187.89,500.06,191.89,509.06,187.89" style="stroke:#181818;stroke-width:1;"/></g><!--link Client to Creator--><g id="link_Client_Creator"><path codeLine="40" d="M341.07,88.01 C341.07,106.57 341.07,122.61 341.07,141.17 " fill="#FFFFFF" fill-opacity="0.00000" id="Client-to-Creator" style="stroke:#181818;stroke-width:1;stroke-dasharray:7.0,7.0;"/><polygon fill="#181818" points="341.07,147.17,345.07,138.17,341.07,142.17,337.07,138.17,341.07,147.17" style="stroke:#181818;stroke-width:1;"/></g><!--SRC=[dP712i8m38RlVOeU9zA1FGyl0y63AFW4jSsqC1lfgY3ETxTiQwUCJRINqgJVdp-9DWvi8IJGzSwYkaf77uJwCwULizeSwVO2LZYD9fcH9o6o55L5SpJIWeEEMVm3yI-GEFYuy8Owse9mQ2CKqz7uoh_GtZVWJgYyneVu7iymwQhJxriPrHr3-IzegS7qixwXLdGZj8cscqZxAqS5IMXVjdSZHMATh4xJmLAcqvoGe9dLZ0tcC9dbxxLP2OLZOK5UjkqjJPSXzW80]--></g></svg>