<svg xmlns="http://www.w3.org/2000/svg" xmlns:xlink="http://www.w3.org/1999/xlink" contentStyleType="text/css" data-diagram-type="CLASS" height="491px" preserveAspectRatio="none" style="width:945px;height:491px;background:#FFFFFF;" version="1.1" viewBox="0 0 945 491" width="945px" zoomAndPan="magnify"><defs/><g><!--class ICommand--><g id="elem_ICommand"><rect codeLine="1" fill="#F1F1F1" height="64.2969" id="ICommand" rx="2.5" ry="2.5" style="stroke:#181818;stroke-width:0.5;" width="108.084" x="379.09" y="39.59"/><ellipse cx="394.09" cy="55.59" fill="#B4A7E5" rx="11" ry="11" style="stroke:#181818;stroke-width:1;"/><path d="M390.0119,51.3556 L390.0119,49.1994 L397.4025,49.1994 L397.4025,51.3556 L394.9338,51.3556 L394.9338,59.4337 L397.4025,59.4337 L397.4025,61.59 L390.0119,61.59 L390.0119,59.4337 L392.4806,59.4337 L392.4806,51.3556 L390.0119,51.3556 Z " fill="#000000"/><text fill="#000000" font-family="sans-serif" font-size="14" font-style="italic" lengthAdjust="spacing" textLength="76.084" x="408.09" y="60.4367">ICommand</text><line style="stroke:#181818;stroke-width:0.5;" x1="380.09" x2="486.174" y1="71.59" y2="71.59"/><line style="stroke:#181818;stroke-width:0.5;" x1="380.09" x2="486.174" y1="79.59" y2="79.59"/><ellipse cx="390.09" cy="93.2384" fill="#84BE84" rx="3" ry="3" style="stroke:#038048;stroke-width:1;"/><text fill="#000000" font-family="sans-serif" font-size="14" lengthAdjust="spacing" textLength="67.3408" x="399.09" y="96.5851">Execute()</text></g><!--class SimpleCommand--><g id="elem_SimpleCommand"><rect codeLine="5" fill="#F1F1F1" height="96.8906" id="SimpleCommand" rx="2.5" ry="2.5" style="stroke:#181818;stroke-width:0.5;" width="266.1602" x="192.05" y="213.78"/><ellipse cx="261.0007" cy="229.78" fill="#ADD1B2" rx="11" ry="11" style="stroke:#181818;stroke-width:1;"/><path d="M263.9694,235.4206 Q263.3913,235.7175 262.7507,235.8581 Q262.1101,236.0144 261.4069,236.0144 Q258.9069,236.0144 257.5788,234.3738 Q256.2663,232.7175 256.2663,229.5925 Q256.2663,226.4675 257.5788,224.8113 Q258.9069,223.155 261.4069,223.155 Q262.1101,223.155 262.7507,223.3113 Q263.4069,223.4675 263.9694,223.7644 L263.9694,226.4831 Q263.3444,225.905 262.7507,225.6394 Q262.1569,225.3581 261.5319,225.3581 Q260.1882,225.3581 259.5007,226.4363 Q258.8132,227.4988 258.8132,229.5925 Q258.8132,231.6863 259.5007,232.7644 Q260.1882,233.8269 261.5319,233.8269 Q262.1569,233.8269 262.7507,233.5613 Q263.3444,233.28 263.9694,232.7019 L263.9694,235.4206 Z " fill="#000000"/><text fill="#000000" font-family="sans-serif" font-size="14" lengthAdjust="spacing" textLength="119.7588" x="281.5007" y="234.6267">SimpleCommand</text><line style="stroke:#181818;stroke-width:0.5;" x1="193.05" x2="457.2102" y1="245.78" y2="245.78"/><rect fill="transparent" height="6" style="stroke:#C82930;stroke-width:1;" width="6" x="200.05" y="256.4284"/><text fill="#000000" font-family="sans-serif" font-size="14" lengthAdjust="spacing" textLength="116.4775" x="212.05" y="262.7751">_payload : string</text><line style="stroke:#181818;stroke-width:0.5;" x1="193.05" x2="457.2102" y1="270.0769" y2="270.0769"/><ellipse cx="203.05" cy="283.7253" fill="#84BE84" rx="3" ry="3" style="stroke:#038048;stroke-width:1;"/><text fill="#000000" font-family="sans-serif" font-size="14" lengthAdjust="spacing" textLength="240.1602" x="212.05" y="287.072">SimpleCommand(payload : string)</text><ellipse cx="203.05" cy="300.0222" fill="#84BE84" rx="3" ry="3" style="stroke:#038048;stroke-width:1;"/><text fill="#000000" font-family="sans-serif" font-size="14" lengthAdjust="spacing" textLength="67.3408" x="212.05" y="303.3689">Execute()</text></g><!--class ComplexCommand--><g id="elem_ComplexCommand"><rect codeLine="11" fill="#F1F1F1" height="129.4844" id="ComplexCommand" rx="2.5" ry="2.5" style="stroke:#181818;stroke-width:0.5;" width="445.4463" x="493.4" y="197.48"/><ellipse cx="645.0689" cy="213.48" fill="#ADD1B2" rx="11" ry="11" style="stroke:#181818;stroke-width:1;"/><path d="M648.0377,219.1206 Q647.4596,219.4175 646.8189,219.5581 Q646.1783,219.7144 645.4752,219.7144 Q642.9752,219.7144 641.6471,218.0738 Q640.3346,216.4175 640.3346,213.2925 Q640.3346,210.1675 641.6471,208.5113 Q642.9752,206.855 645.4752,206.855 Q646.1783,206.855 646.8189,207.0113 Q647.4752,207.1675 648.0377,207.4644 L648.0377,210.1831 Q647.4127,209.605 646.8189,209.3394 Q646.2252,209.0581 645.6002,209.0581 Q644.2564,209.0581 643.5689,210.1363 Q642.8814,211.1988 642.8814,213.2925 Q642.8814,215.3863 643.5689,216.4644 Q644.2564,217.5269 645.6002,217.5269 Q646.2252,217.5269 646.8189,217.2613 Q647.4127,216.98 648.0377,216.4019 L648.0377,219.1206 Z " fill="#000000"/><text fill="#000000" font-family="sans-serif" font-size="14" lengthAdjust="spacing" textLength="133.6084" x="665.5689" y="218.3267">ComplexCommand</text><line style="stroke:#181818;stroke-width:0.5;" x1="494.4" x2="937.8463" y1="229.48" y2="229.48"/><rect fill="transparent" height="6" style="stroke:#C82930;stroke-width:1;" width="6" x="501.4" y="240.1284"/><text fill="#000000" font-family="sans-serif" font-size="14" lengthAdjust="spacing" textLength="139.0361" x="513.4" y="246.4751">_receiver : Receiver</text><rect fill="transparent" height="6" style="stroke:#C82930;stroke-width:1;" width="6" x="501.4" y="256.4253"/><text fill="#000000" font-family="sans-serif" font-size="14" lengthAdjust="spacing" textLength="69.3848" x="513.4" y="262.772">_a : string</text><rect fill="transparent" height="6" style="stroke:#C82930;stroke-width:1;" width="6" x="501.4" y="272.7222"/><text fill="#000000" font-family="sans-serif" font-size="14" lengthAdjust="spacing" textLength="69.6924" x="513.4" y="279.0689">_b : string</text><line style="stroke:#181818;stroke-width:0.5;" x1="494.4" x2="937.8463" y1="286.3706" y2="286.3706"/><ellipse cx="504.4" cy="300.0191" fill="#84BE84" rx="3" ry="3" style="stroke:#038048;stroke-width:1;"/><text fill="#000000" font-family="sans-serif" font-size="14" lengthAdjust="spacing" textLength="419.4463" x="513.4" y="303.3657">ComplexCommand(receiver : Receiver, a : string, b : string)</text><ellipse cx="504.4" cy="316.3159" fill="#84BE84" rx="3" ry="3" style="stroke:#038048;stroke-width:1;"/><text fill="#000000" font-family="sans-serif" font-size="14" lengthAdjust="spacing" textLength="67.3408" x="513.4" y="319.6626">Execute()</text></g><!--class Receiver--><g id="elem_Receiver"><rect codeLine="19" fill="#F1F1F1" height="80.5938" id="Receiver" rx="2.5" ry="2.5" style="stroke:#181818;stroke-width:0.5;" width="223.3193" x="604.47" y="403.97"/><ellipse cx="681.282" cy="419.97" fill="#ADD1B2" rx="11" ry="11" style="stroke:#181818;stroke-width:1;"/><path d="M684.2508,425.6106 Q683.6726,425.9075 683.032,426.0481 Q682.3914,426.2044 681.6883,426.2044 Q679.1883,426.2044 677.8601,424.5637 Q676.5476,422.9075 676.5476,419.7825 Q676.5476,416.6575 677.8601,415.0012 Q679.1883,413.345 681.6883,413.345 Q682.3914,413.345 683.032,413.5012 Q683.6883,413.6575 684.2508,413.9544 L684.2508,416.6731 Q683.6258,416.095 683.032,415.8294 Q682.4383,415.5481 681.8133,415.5481 Q680.4695,415.5481 679.782,416.6262 Q679.0945,417.6887 679.0945,419.7825 Q679.0945,421.8762 679.782,422.9544 Q680.4695,424.0169 681.8133,424.0169 Q682.4383,424.0169 683.032,423.7512 Q683.6258,423.47 684.2508,422.8919 L684.2508,425.6106 Z " fill="#000000"/><text fill="#000000" font-family="sans-serif" font-size="14" lengthAdjust="spacing" textLength="61.1953" x="701.782" y="424.8167">Receiver</text><line style="stroke:#181818;stroke-width:0.5;" x1="605.47" x2="826.7893" y1="435.97" y2="435.97"/><line style="stroke:#181818;stroke-width:0.5;" x1="605.47" x2="826.7893" y1="443.97" y2="443.97"/><ellipse cx="615.47" cy="457.6184" fill="#84BE84" rx="3" ry="3" style="stroke:#038048;stroke-width:1;"/><text fill="#000000" font-family="sans-serif" font-size="14" lengthAdjust="spacing" textLength="168.3691" x="624.47" y="460.9651">DoSomething(a : string)</text><ellipse cx="615.47" cy="473.9153" fill="#84BE84" rx="3" ry="3" style="stroke:#038048;stroke-width:1;"/><text fill="#000000" font-family="sans-serif" font-size="14" lengthAdjust="spacing" textLength="197.3193" x="624.47" y="477.262">DoSomethingElse(b : string)</text></g><!--class Invoker--><g id="elem_Invoker"><rect codeLine="24" fill="#F1F1F1" height="129.4844" id="Invoker" rx="2.5" ry="2.5" style="stroke:#181818;stroke-width:0.5;" width="280.2559" x="7" y="7"/><ellipse cx="116.7134" cy="23" fill="#ADD1B2" rx="11" ry="11" style="stroke:#181818;stroke-width:1;"/><path d="M119.6821,28.6406 Q119.104,28.9375 118.4634,29.0781 Q117.8228,29.2344 117.1196,29.2344 Q114.6196,29.2344 113.2915,27.5938 Q111.979,25.9375 111.979,22.8125 Q111.979,19.6875 113.2915,18.0313 Q114.6196,16.375 117.1196,16.375 Q117.8228,16.375 118.4634,16.5313 Q119.1196,16.6875 119.6821,16.9844 L119.6821,19.7031 Q119.0571,19.125 118.4634,18.8594 Q117.8696,18.5781 117.2446,18.5781 Q115.9009,18.5781 115.2134,19.6563 Q114.5259,20.7188 114.5259,22.8125 Q114.5259,24.9063 115.2134,25.9844 Q115.9009,27.0469 117.2446,27.0469 Q117.8696,27.0469 118.4634,26.7813 Q119.0571,26.5 119.6821,25.9219 L119.6821,28.6406 Z " fill="#000000"/><text fill="#000000" font-family="sans-serif" font-size="14" lengthAdjust="spacing" textLength="52.3291" x="137.2134" y="27.8467">Invoker</text><line style="stroke:#181818;stroke-width:0.5;" x1="8" x2="286.2559" y1="39" y2="39"/><rect fill="transparent" height="6" style="stroke:#C82930;stroke-width:1;" width="6" x="15" y="49.6484"/><text fill="#000000" font-family="sans-serif" font-size="14" lengthAdjust="spacing" textLength="148.3398" x="27" y="55.9951">_onStart : ICommand</text><rect fill="transparent" height="6" style="stroke:#C82930;stroke-width:1;" width="6" x="15" y="65.9453"/><text fill="#000000" font-family="sans-serif" font-size="14" lengthAdjust="spacing" textLength="155.0117" x="27" y="72.292">_onFinish : ICommand</text><line style="stroke:#181818;stroke-width:0.5;" x1="8" x2="286.2559" y1="79.5938" y2="79.5938"/><ellipse cx="18" cy="93.2422" fill="#84BE84" rx="3" ry="3" style="stroke:#038048;stroke-width:1;"/><text fill="#000000" font-family="sans-serif" font-size="14" lengthAdjust="spacing" textLength="247.584" x="27" y="96.5889">SetOnStart(command : ICommand)</text><ellipse cx="18" cy="109.5391" fill="#84BE84" rx="3" ry="3" style="stroke:#038048;stroke-width:1;"/><text fill="#000000" font-family="sans-serif" font-size="14" lengthAdjust="spacing" textLength="254.2559" x="27" y="112.8857">SetOnFinish(command : ICommand)</text><ellipse cx="18" cy="125.8359" fill="#84BE84" rx="3" ry="3" style="stroke:#038048;stroke-width:1;"/><text fill="#000000" font-family="sans-serif" font-size="14" lengthAdjust="spacing" textLength="175.3896" x="27" y="129.1826">DoSomethingImportant()</text></g><!--reverse link ICommand to SimpleCommand--><g id="link_ICommand_SimpleCommand"><path codeLine="31" d="M406.102,119.9084 C389.052,149.6684 372.2,179.08 352.6,213.28 " fill="transparent" id="ICommand-backto-SimpleCommand" style="stroke:#181818;stroke-width:1;stroke-dasharray:7.0,7.0;"/><polygon fill="transparent" points="415.05,104.29,400.8959,116.9257,411.3081,122.891,415.05,104.29" style="stroke:#181818;stroke-width:1;"/></g><!--reverse link ICommand to ComplexCommand--><g id="link_ICommand_ComplexCommand"><path codeLine="32" d="M495.4824,114.2664 C533.4024,139.5164 572.85,165.8 619.84,197.09 " fill="transparent" id="ICommand-backto-ComplexCommand" style="stroke:#181818;stroke-width:1;stroke-dasharray:7.0,7.0;"/><polygon fill="transparent" points="480.5,104.29,492.1569,119.2605,498.8078,109.2723,480.5,104.29" style="stroke:#181818;stroke-width:1;"/></g><!--link ComplexCommand to Receiver--><g id="link_ComplexCommand_Receiver"><path codeLine="33" d="M716.13,327.46 C716.13,352.91 716.13,375.36 716.13,397.69 " fill="transparent" id="ComplexCommand-to-Receiver" style="stroke:#181818;stroke-width:1;"/><polygon fill="#181818" points="716.13,403.69,720.13,394.69,716.13,398.69,712.13,394.69,716.13,403.69" style="stroke:#181818;stroke-width:1;"/><text fill="#000000" font-family="sans-serif" font-size="13" lengthAdjust="spacing" textLength="29.7832" x="717.13" y="370.0369">uses</text></g><!--link Invoker to ICommand--><g id="link_Invoker_ICommand"><path codeLine="34" d="M287.61,71.74 C320.11,71.74 346.77,71.74 372.89,71.74 " fill="transparent" id="Invoker-to-ICommand" style="stroke:#181818;stroke-width:1;"/><polygon fill="#181818" points="378.89,71.74,369.89,67.74,373.89,71.74,369.89,75.74,378.89,71.74" style="stroke:#181818;stroke-width:1;"/><text fill="#000000" font-family="sans-serif" font-size="13" lengthAdjust="spacing" textLength="55.7642" x="305.67" y="64.8069">depends</text></g><!--SRC=[ZP91JiCm44NtFiKi7T7q015Y0qNAgX8v07ATeR68xSXsgrQ5kpEYYHExWCZAol_pPlp7oWHqRq8Yr8zMQs5Qk32Wxmus9vI7WBnWdup9NdWFZT93ZwcnXDT1d7ihMgZ01wVCVWGaRfwRYj_RK0aLdcxwE9IeZkY8yJ8U9qcapUdFBXydfV8VO2kOCIlO_MVKgJIczcGRgp5qLCR53M6XRdgFVDaZCcjpjEyHILUnfWd21V9EIvgLPsMKxtA9miUmlPPnEUOuUugbwKhumxKOkjQ3TK6Oy9r1V3Bt7-jrkkvCIxDdsOBByc4EieA3Hy-c44gdzbqWGmHMqEA0flLV]--></g></svg>