<svg xmlns="http://www.w3.org/2000/svg" xmlns:xlink="http://www.w3.org/1999/xlink" contentStyleType="text/css" data-diagram-type="CLASS" height="442px" preserveAspectRatio="none" style="width:1343px;height:442px;background:#FFFFFF;" version="1.1" viewBox="0 0 1343 442" width="1343px" zoomAndPan="magnify"><defs/><g><!--class IComponent--><g id="elem_IComponent"><rect codeLine="1" fill="#F1F1F1" height="64.2969" id="IComponent" rx="2.5" ry="2.5" style="stroke:#181818;stroke-width:0.5;" width="215.1709" x="779.39" y="172.74"/><ellipse cx="840.0213" cy="188.74" fill="#B4A7E5" rx="11" ry="11" style="stroke:#181818;stroke-width:1;"/><path d="M835.9432,184.5056 L835.9432,182.3494 L843.3338,182.3494 L843.3338,184.5056 L840.8651,184.5056 L840.8651,192.5838 L843.3338,192.5838 L843.3338,194.74 L835.9432,194.74 L835.9432,192.5838 L838.412,192.5838 L838.412,184.5056 L835.9432,184.5056 Z " fill="#000000"/><text fill="#000000" font-family="sans-serif" font-size="14" font-style="italic" lengthAdjust="spacing" textLength="85.4082" x="860.5213" y="193.5867">IComponent</text><line style="stroke:#181818;stroke-width:0.5;" x1="780.39" x2="993.5609" y1="204.74" y2="204.74"/><line style="stroke:#181818;stroke-width:0.5;" x1="780.39" x2="993.5609" y1="212.74" y2="212.74"/><ellipse cx="790.39" cy="226.3884" fill="#84BE84" rx="3" ry="3" style="stroke:#038048;stroke-width:1;"/><text fill="#000000" font-family="sans-serif" font-size="14" lengthAdjust="spacing" textLength="189.1709" x="799.39" y="229.7351">void Accept(IVisitor visitor)</text></g><!--class ConcreteComponentA--><g id="elem_ConcreteComponentA"><rect codeLine="5" fill="#F1F1F1" height="80.5938" id="ConcreteComponentA" rx="2.5" ry="2.5" style="stroke:#181818;stroke-width:0.5;" width="369.9297" x="577.01" y="338.78"/><ellipse cx="680.6052" cy="354.78" fill="#ADD1B2" rx="11" ry="11" style="stroke:#181818;stroke-width:1;"/><path d="M683.574,360.4206 Q682.9958,360.7175 682.3552,360.8581 Q681.7146,361.0144 681.0115,361.0144 Q678.5115,361.0144 677.1833,359.3738 Q675.8708,357.7175 675.8708,354.5925 Q675.8708,351.4675 677.1833,349.8113 Q678.5115,348.155 681.0115,348.155 Q681.7146,348.155 682.3552,348.3113 Q683.0115,348.4675 683.574,348.7644 L683.574,351.4831 Q682.949,350.905 682.3552,350.6394 Q681.7615,350.3581 681.1365,350.3581 Q679.7927,350.3581 679.1052,351.4363 Q678.4177,352.4988 678.4177,354.5925 Q678.4177,356.6863 679.1052,357.7644 Q679.7927,358.8269 681.1365,358.8269 Q681.7615,358.8269 682.3552,358.5613 Q682.949,358.28 683.574,357.7019 L683.574,360.4206 Z " fill="#000000"/><text fill="#000000" font-family="sans-serif" font-size="14" lengthAdjust="spacing" textLength="154.2393" x="701.1052" y="359.6267">ConcreteComponentA</text><line style="stroke:#181818;stroke-width:0.5;" x1="578.01" x2="945.9397" y1="370.78" y2="370.78"/><line style="stroke:#181818;stroke-width:0.5;" x1="578.01" x2="945.9397" y1="378.78" y2="378.78"/><ellipse cx="588.01" cy="392.4284" fill="#84BE84" rx="3" ry="3" style="stroke:#038048;stroke-width:1;"/><text fill="#000000" font-family="sans-serif" font-size="14" lengthAdjust="spacing" textLength="189.1709" x="597.01" y="395.7751">void Accept(IVisitor visitor)</text><ellipse cx="588.01" cy="408.7253" fill="#84BE84" rx="3" ry="3" style="stroke:#038048;stroke-width:1;"/><text fill="#000000" font-family="sans-serif" font-size="14" lengthAdjust="spacing" textLength="343.9297" x="597.01" y="412.072">string ExclusiveMethodOfConcreteComponentA()</text></g><!--class ConcreteComponentB--><g id="elem_ConcreteComponentB"><rect codeLine="10" fill="#F1F1F1" height="80.5938" id="ConcreteComponentB" rx="2.5" ry="2.5" style="stroke:#181818;stroke-width:0.5;" width="354.7266" x="981.61" y="338.78"/><ellipse cx="1077.59" cy="354.78" fill="#ADD1B2" rx="11" ry="11" style="stroke:#181818;stroke-width:1;"/><path d="M1080.5587,360.4206 Q1079.9806,360.7175 1079.34,360.8581 Q1078.6994,361.0144 1077.9962,361.0144 Q1075.4962,361.0144 1074.1681,359.3738 Q1072.8556,357.7175 1072.8556,354.5925 Q1072.8556,351.4675 1074.1681,349.8113 Q1075.4962,348.155 1077.9962,348.155 Q1078.6994,348.155 1079.34,348.3113 Q1079.9962,348.4675 1080.5587,348.7644 L1080.5587,351.4831 Q1079.9337,350.905 1079.34,350.6394 Q1078.7462,350.3581 1078.1212,350.3581 Q1076.7775,350.3581 1076.09,351.4363 Q1075.4025,352.4988 1075.4025,354.5925 Q1075.4025,356.6863 1076.09,357.7644 Q1076.7775,358.8269 1078.1212,358.8269 Q1078.7462,358.8269 1079.34,358.5613 Q1079.9337,358.28 1080.5587,357.7019 L1080.5587,360.4206 Z " fill="#000000"/><text fill="#000000" font-family="sans-serif" font-size="14" lengthAdjust="spacing" textLength="154.2666" x="1098.09" y="359.6267">ConcreteComponentB</text><line style="stroke:#181818;stroke-width:0.5;" x1="982.61" x2="1335.3366" y1="370.78" y2="370.78"/><line style="stroke:#181818;stroke-width:0.5;" x1="982.61" x2="1335.3366" y1="378.78" y2="378.78"/><ellipse cx="992.61" cy="392.4284" fill="#84BE84" rx="3" ry="3" style="stroke:#038048;stroke-width:1;"/><text fill="#000000" font-family="sans-serif" font-size="14" lengthAdjust="spacing" textLength="189.1709" x="1001.61" y="395.7751">void Accept(IVisitor visitor)</text><ellipse cx="992.61" cy="408.7253" fill="#84BE84" rx="3" ry="3" style="stroke:#038048;stroke-width:1;"/><text fill="#000000" font-family="sans-serif" font-size="14" lengthAdjust="spacing" textLength="328.7266" x="1001.61" y="412.072">string SpecialMethodOfConcreteComponentB()</text></g><!--class IVisitor--><g id="elem_IVisitor"><rect codeLine="15" fill="#F1F1F1" height="113.1875" id="IVisitor" rx="2.5" ry="2.5" style="stroke:#181818;stroke-width:0.5;" width="249.9453" x="494" y="148.29"/><ellipse cx="590.4277" cy="164.29" fill="#B4A7E5" rx="11" ry="11" style="stroke:#181818;stroke-width:1;"/><path d="M586.3496,160.0556 L586.3496,157.8994 L593.7402,157.8994 L593.7402,160.0556 L591.2715,160.0556 L591.2715,168.1338 L593.7402,168.1338 L593.7402,170.29 L586.3496,170.29 L586.3496,168.1338 L588.8184,168.1338 L588.8184,160.0556 L586.3496,160.0556 Z " fill="#000000"/><text fill="#000000" font-family="sans-serif" font-size="14" font-style="italic" lengthAdjust="spacing" textLength="48.5898" x="610.9277" y="169.1367">IVisitor</text><line style="stroke:#181818;stroke-width:0.5;" x1="495" x2="742.9453" y1="180.29" y2="180.29"/><line style="stroke:#181818;stroke-width:0.5;" x1="495" x2="742.9453" y1="188.29" y2="188.29"/><ellipse cx="505" cy="201.9384" fill="#84BE84" rx="3" ry="3" style="stroke:#038048;stroke-width:1;"/><text fill="#000000" font-family="sans-serif" font-size="14" lengthAdjust="spacing" textLength="223.918" x="514" y="205.2851">void VisitConcreteComponentA(</text><text fill="#000000" font-family="sans-serif" font-size="14" lengthAdjust="spacing" textLength="221.8809" x="514" y="221.582">ConcreteComponentA element)</text><ellipse cx="505" cy="234.5322" fill="#84BE84" rx="3" ry="3" style="stroke:#038048;stroke-width:1;"/><text fill="#000000" font-family="sans-serif" font-size="14" lengthAdjust="spacing" textLength="223.9453" x="514" y="237.8789">void VisitConcreteComponentB(</text><text fill="#000000" font-family="sans-serif" font-size="14" lengthAdjust="spacing" textLength="221.9082" x="514" y="254.1757">ConcreteComponentB element)</text></g><!--class ConcreteVisitor1--><g id="elem_ConcreteVisitor1"><rect codeLine="22" fill="#F1F1F1" height="113.1875" id="ConcreteVisitor1" rx="2.5" ry="2.5" style="stroke:#181818;stroke-width:0.5;" width="249.9453" x="7" y="322.48"/><ellipse cx="69.3472" cy="338.48" fill="#ADD1B2" rx="11" ry="11" style="stroke:#181818;stroke-width:1;"/><path d="M72.3159,344.1206 Q71.7378,344.4175 71.0972,344.5581 Q70.4565,344.7144 69.7534,344.7144 Q67.2534,344.7144 65.9253,343.0738 Q64.6128,341.4175 64.6128,338.2925 Q64.6128,335.1675 65.9253,333.5113 Q67.2534,331.855 69.7534,331.855 Q70.4565,331.855 71.0972,332.0113 Q71.7534,332.1675 72.3159,332.4644 L72.3159,335.1831 Q71.6909,334.605 71.0972,334.3394 Q70.5034,334.0581 69.8784,334.0581 Q68.5347,334.0581 67.8472,335.1363 Q67.1597,336.1988 67.1597,338.2925 Q67.1597,340.3863 67.8472,341.4644 Q68.5347,342.5269 69.8784,342.5269 Q70.5034,342.5269 71.0972,342.2613 Q71.6909,341.98 72.3159,341.4019 L72.3159,344.1206 Z " fill="#000000"/><text fill="#000000" font-family="sans-serif" font-size="14" lengthAdjust="spacing" textLength="116.751" x="89.8472" y="343.3267">ConcreteVisitor1</text><line style="stroke:#181818;stroke-width:0.5;" x1="8" x2="255.9453" y1="354.48" y2="354.48"/><line style="stroke:#181818;stroke-width:0.5;" x1="8" x2="255.9453" y1="362.48" y2="362.48"/><ellipse cx="18" cy="376.1284" fill="#84BE84" rx="3" ry="3" style="stroke:#038048;stroke-width:1;"/><text fill="#000000" font-family="sans-serif" font-size="14" lengthAdjust="spacing" textLength="223.918" x="27" y="379.4751">void VisitConcreteComponentA(</text><text fill="#000000" font-family="sans-serif" font-size="14" lengthAdjust="spacing" textLength="221.8809" x="27" y="395.772">ConcreteComponentA element)</text><ellipse cx="18" cy="408.7222" fill="#84BE84" rx="3" ry="3" style="stroke:#038048;stroke-width:1;"/><text fill="#000000" font-family="sans-serif" font-size="14" lengthAdjust="spacing" textLength="223.9453" x="27" y="412.0689">void VisitConcreteComponentB(</text><text fill="#000000" font-family="sans-serif" font-size="14" lengthAdjust="spacing" textLength="221.9082" x="27" y="428.3657">ConcreteComponentB element)</text></g><!--class ConcreteVisitor2--><g id="elem_ConcreteVisitor2"><rect codeLine="29" fill="#F1F1F1" height="113.1875" id="ConcreteVisitor2" rx="2.5" ry="2.5" style="stroke:#181818;stroke-width:0.5;" width="249.9453" x="292" y="322.48"/><ellipse cx="354.3472" cy="338.48" fill="#ADD1B2" rx="11" ry="11" style="stroke:#181818;stroke-width:1;"/><path d="M357.3159,344.1206 Q356.7378,344.4175 356.0972,344.5581 Q355.4565,344.7144 354.7534,344.7144 Q352.2534,344.7144 350.9253,343.0738 Q349.6128,341.4175 349.6128,338.2925 Q349.6128,335.1675 350.9253,333.5113 Q352.2534,331.855 354.7534,331.855 Q355.4565,331.855 356.0972,332.0113 Q356.7534,332.1675 357.3159,332.4644 L357.3159,335.1831 Q356.6909,334.605 356.0972,334.3394 Q355.5034,334.0581 354.8784,334.0581 Q353.5347,334.0581 352.8472,335.1363 Q352.1597,336.1988 352.1597,338.2925 Q352.1597,340.3863 352.8472,341.4644 Q353.5347,342.5269 354.8784,342.5269 Q355.5034,342.5269 356.0972,342.2613 Q356.6909,341.98 357.3159,341.4019 L357.3159,344.1206 Z " fill="#000000"/><text fill="#000000" font-family="sans-serif" font-size="14" lengthAdjust="spacing" textLength="116.751" x="374.8472" y="343.3267">ConcreteVisitor2</text><line style="stroke:#181818;stroke-width:0.5;" x1="293" x2="540.9453" y1="354.48" y2="354.48"/><line style="stroke:#181818;stroke-width:0.5;" x1="293" x2="540.9453" y1="362.48" y2="362.48"/><ellipse cx="303" cy="376.1284" fill="#84BE84" rx="3" ry="3" style="stroke:#038048;stroke-width:1;"/><text fill="#000000" font-family="sans-serif" font-size="14" lengthAdjust="spacing" textLength="223.918" x="312" y="379.4751">void VisitConcreteComponentA(</text><text fill="#000000" font-family="sans-serif" font-size="14" lengthAdjust="spacing" textLength="221.8809" x="312" y="395.772">ConcreteComponentA element)</text><ellipse cx="303" cy="408.7222" fill="#84BE84" rx="3" ry="3" style="stroke:#038048;stroke-width:1;"/><text fill="#000000" font-family="sans-serif" font-size="14" lengthAdjust="spacing" textLength="223.9453" x="312" y="412.0689">void VisitConcreteComponentB(</text><text fill="#000000" font-family="sans-serif" font-size="14" lengthAdjust="spacing" textLength="221.9082" x="312" y="428.3657">ConcreteComponentB element)</text></g><!--class Client--><g id="elem_Client"><rect codeLine="36" fill="#F1F1F1" height="64.2969" id="Client" rx="2.5" ry="2.5" style="stroke:#181818;stroke-width:0.5;" width="519.6572" x="517.14" y="7"/><ellipse cx="752.4535" cy="23" fill="#ADD1B2" rx="11" ry="11" style="stroke:#181818;stroke-width:1;"/><path d="M755.4222,28.6406 Q754.8441,28.9375 754.2035,29.0781 Q753.5629,29.2344 752.8597,29.2344 Q750.3597,29.2344 749.0316,27.5938 Q747.7191,25.9375 747.7191,22.8125 Q747.7191,19.6875 749.0316,18.0313 Q750.3597,16.375 752.8597,16.375 Q753.5629,16.375 754.2035,16.5313 Q754.8597,16.6875 755.4222,16.9844 L755.4222,19.7031 Q754.7972,19.125 754.2035,18.8594 Q753.6097,18.5781 752.9847,18.5781 Q751.641,18.5781 750.9535,19.6563 Q750.266,20.7188 750.266,22.8125 Q750.266,24.9063 750.9535,25.9844 Q751.641,27.0469 752.9847,27.0469 Q753.6097,27.0469 754.2035,26.7813 Q754.7972,26.5 755.4222,25.9219 L755.4222,28.6406 Z " fill="#000000"/><text fill="#000000" font-family="sans-serif" font-size="14" lengthAdjust="spacing" textLength="40.5303" x="772.9535" y="27.8467">Client</text><line style="stroke:#181818;stroke-width:0.5;" x1="518.14" x2="1035.7972" y1="39" y2="39"/><line style="stroke:#181818;stroke-width:0.5;" x1="518.14" x2="1035.7972" y1="47" y2="47"/><ellipse cx="528.14" cy="60.6484" fill="#84BE84" rx="3" ry="3" style="stroke:#038048;stroke-width:1;"/><text fill="#000000" font-family="sans-serif" font-size="14" lengthAdjust="spacing" textLength="493.6572" x="537.14" y="63.9951">static void ClientCode(List&lt;IComponent&gt; components, IVisitor visitor)</text></g><!--class Program--><g id="elem_Program"><rect codeLine="40" fill="#F1F1F1" height="64.2969" id="Program" rx="2.5" ry="2.5" style="stroke:#181818;stroke-width:0.5;" width="233.3887" x="216.28" y="7"/><ellipse cx="298.9128" cy="23" fill="#ADD1B2" rx="11" ry="11" style="stroke:#181818;stroke-width:1;"/><path d="M301.8816,28.6406 Q301.3034,28.9375 300.6628,29.0781 Q300.0222,29.2344 299.3191,29.2344 Q296.8191,29.2344 295.4909,27.5938 Q294.1784,25.9375 294.1784,22.8125 Q294.1784,19.6875 295.4909,18.0313 Q296.8191,16.375 299.3191,16.375 Q300.0222,16.375 300.6628,16.5313 Q301.3191,16.6875 301.8816,16.9844 L301.8816,19.7031 Q301.2566,19.125 300.6628,18.8594 Q300.0691,18.5781 299.4441,18.5781 Q298.1003,18.5781 297.4128,19.6563 Q296.7253,20.7188 296.7253,22.8125 Q296.7253,24.9063 297.4128,25.9844 Q298.1003,27.0469 299.4441,27.0469 Q300.0691,27.0469 300.6628,26.7813 Q301.2566,26.5 301.8816,25.9219 L301.8816,28.6406 Z " fill="#000000"/><text fill="#000000" font-family="sans-serif" font-size="14" lengthAdjust="spacing" textLength="59.623" x="319.4128" y="27.8467">Program</text><line style="stroke:#181818;stroke-width:0.5;" x1="217.28" x2="448.6687" y1="39" y2="39"/><line style="stroke:#181818;stroke-width:0.5;" x1="217.28" x2="448.6687" y1="47" y2="47"/><ellipse cx="227.28" cy="60.6484" fill="#84BE84" rx="3" ry="3" style="stroke:#038048;stroke-width:1;"/><text fill="#000000" font-family="sans-serif" font-size="14" lengthAdjust="spacing" textLength="207.3887" x="236.28" y="63.9951">static void Main(string[] args)</text></g><!--reverse link IComponent to ConcreteComponentA--><g id="link_IComponent_ConcreteComponentA"><path codeLine="44" d="M853.4733,252.0348 C832.8133,280.4848 812.95,307.85 790.69,338.52 " fill="#FFFFFF" fill-opacity="0.00000" id="IComponent-backto-ConcreteComponentA" style="stroke:#181818;stroke-width:1;stroke-dasharray:7.0,7.0;"/><polygon fill="#FFFFFF" fill-opacity="0.00000" points="864.05,237.47,848.6183,248.5092,858.3282,255.5604,864.05,237.47" style="stroke:#181818;stroke-width:1;"/></g><!--reverse link IComponent to ConcreteComponentB--><g id="link_IComponent_ConcreteComponentB"><path codeLine="45" d="M952.0686,247.098 C997.0086,275.548 1048.04,307.85 1096.49,338.52 " fill="#FFFFFF" fill-opacity="0.00000" id="IComponent-backto-ConcreteComponentB" style="stroke:#181818;stroke-width:1;stroke-dasharray:7.0,7.0;"/><polygon fill="#FFFFFF" fill-opacity="0.00000" points="936.86,237.47,948.8592,252.1676,955.2779,242.0285,936.86,237.47" style="stroke:#181818;stroke-width:1;"/></g><!--reverse link IVisitor to IComponent--><g id="link_IVisitor_IComponent"><path codeLine="46" d="M750.34,204.89 C761.94,204.89 767.55,204.89 779.16,204.89 " fill="#FFFFFF" fill-opacity="0.00000" id="IVisitor-backto-IComponent" style="stroke:#181818;stroke-width:1;"/><polygon fill="#181818" points="744.34,204.89,753.34,208.89,749.34,204.89,753.34,200.89,744.34,204.89" style="stroke:#181818;stroke-width:1;"/></g><!--reverse link IVisitor to ConcreteVisitor1--><g id="link_IVisitor_ConcreteVisitor1"><path codeLine="47" d="M476.4316,252.6258 C411.0416,274.3958 346.98,296.3 274.97,322.48 C269.22,324.58 263.34,326.74 257.41,328.95 " fill="#FFFFFF" fill-opacity="0.00000" id="IVisitor-backto-ConcreteVisitor1" style="stroke:#181818;stroke-width:1;stroke-dasharray:7.0,7.0;"/><polygon fill="#FFFFFF" fill-opacity="0.00000" points="493.51,246.94,474.5363,246.933,478.3269,258.3186,493.51,246.94" style="stroke:#181818;stroke-width:1;"/></g><!--reverse link IVisitor to ConcreteVisitor2--><g id="link_IVisitor_ConcreteVisitor2"><path codeLine="48" d="M539.6915,273.4669 C516.9915,292.8169 505.27,302.81 482.57,322.16 " fill="#FFFFFF" fill-opacity="0.00000" id="IVisitor-backto-ConcreteVisitor2" style="stroke:#181818;stroke-width:1;stroke-dasharray:7.0,7.0;"/><polygon fill="#FFFFFF" fill-opacity="0.00000" points="553.39,261.79,535.7992,268.9008,543.5838,278.0331,553.39,261.79" style="stroke:#181818;stroke-width:1;"/></g><!--link IVisitor to ConcreteComponentA--><g id="link_IVisitor_ConcreteComponentA"><path codeLine="51" d="M665.4,261.79 C686.2,286.83 706.3961,311.1647 725.2861,333.9047 " fill="#FFFFFF" fill-opacity="0.00000" id="IVisitor-to-ConcreteComponentA" style="stroke:#181818;stroke-width:1;stroke-dasharray:7.0,7.0;"/><polygon fill="#181818" points="729.12,338.52,726.446,329.0411,725.9251,334.6739,720.2923,334.153,729.12,338.52" style="stroke:#181818;stroke-width:1;"/></g><!--link IVisitor to ConcreteComponentB--><g id="link_IVisitor_ConcreteComponentB"><path codeLine="52" d="M744.3,255.31 C750.26,257.44 756.17,259.51 761.97,261.48 C809.79,277.76 919.0924,309.6862 1013.1124,336.6462 " fill="#FFFFFF" fill-opacity="0.00000" id="IVisitor-to-ConcreteComponentB" style="stroke:#181818;stroke-width:1;stroke-dasharray:7.0,7.0;"/><polygon fill="#181818" points="1018.88,338.3,1011.3312,331.9742,1014.0737,336.9218,1009.1261,339.6643,1018.88,338.3" style="stroke:#181818;stroke-width:1;"/></g><!--link Client to IComponent--><g id="link_Client_IComponent"><path codeLine="54" d="M798.18,71.72 C817.66,100.71 843.0236,138.4699 862.4836,167.4299 " fill="#FFFFFF" fill-opacity="0.00000" id="Client-to-IComponent" style="stroke:#181818;stroke-width:1;"/><polygon fill="#181818" points="865.83,172.41,864.1304,162.7089,863.0413,168.2599,857.4903,167.1708,865.83,172.41" style="stroke:#181818;stroke-width:1;"/><text fill="#000000" font-family="sans-serif" font-size="13" lengthAdjust="spacing" textLength="31.0591" x="828.97" y="114.3569">Uses</text></g><!--link Client to IVisitor--><g id="link_Client_IVisitor"><path codeLine="55" d="M746.51,71.72 C725.7,93.28 701.7364,118.1225 677.1864,143.5625 " fill="#FFFFFF" fill-opacity="0.00000" id="Client-to-IVisitor" style="stroke:#181818;stroke-width:1;"/><polygon fill="#181818" points="673.02,147.88,682.148,144.1814,676.492,144.2821,676.3913,138.6261,673.02,147.88" style="stroke:#181818;stroke-width:1;"/><text fill="#000000" font-family="sans-serif" font-size="13" lengthAdjust="spacing" textLength="31.0591" x="716.97" y="114.3569">Uses</text></g><!--link Program to Client--><g id="link_Program_Client"><path codeLine="57" d="M449.92,39.15 C470.99,39.15 487.7,39.15 510.98,39.15 " fill="#FFFFFF" fill-opacity="0.00000" id="Program-to-Client" style="stroke:#181818;stroke-width:1;"/><polygon fill="#181818" points="516.98,39.15,507.98,35.15,511.98,39.15,507.98,43.15,516.98,39.15" style="stroke:#181818;stroke-width:1;"/><text fill="#000000" font-family="sans-serif" font-size="13" lengthAdjust="spacing" textLength="31.04" x="467.91" y="32.2169">Calls</text></g><!--SRC=[rLDDIyGm4BtdLyonYxRW7fUbi2aU5bmKH2_Y8QJJxa3Qb2GMGVtlRh-xREskDyqb8VFclPT7XdA79X4IOHlfhD0vvWu-61pMLQafXesKM3Xl-qoMd3PGDlk2VJ4cbR0M8frBWmxx_irb13N4EaDv2hVlKhrPAd67Rg_Z- -IKr9kJvB-NV2nGab0_2l96a8Q0EhgnL7qtORQ6L6iY7LIO7GwBipHyXeOFD2Unj4Pl_etJvHzsgcWq4jO9Hn9g_gOIwHYzEx9kFGnG2B8xsckO6Pq7erCZiYdsdQ3SQxxgooi8azgwRpIbwyyWc8ZYF8IF8Rx2nFbXxvBrTe-QkoyrNruoDW2289oqDrldZBM9-vMfmUSAdYpQes97r9PObwPlADrNRsh1AuY4KlOR]--></g></svg>